<svg width="40" height="40" viewBox="0 0 40 40" fill="none" xmlns="http://www.w3.org/2000/svg">
<path d="M23.1579 3.15789C23.1579 2.32037 22.8252 1.51715 22.233 0.924926C21.6407 0.332706 20.8375 0 20 0C19.1625 0 18.3593 0.332706 17.767 0.924926C17.1748 1.51715 16.8421 2.32037 16.8421 3.15789V16.8421H3.15789C2.32037 16.8421 1.51715 17.1748 0.924926 17.767C0.332706 18.3593 0 19.1625 0 20C0 20.8375 0.332706 21.6407 0.924926 22.233C1.51715 22.8252 2.32037 23.1579 3.15789 23.1579H16.8421V36.8421C16.8421 37.6796 17.1748 38.4829 17.767 39.0751C18.3593 39.6673 19.1625 40 20 40C20.8375 40 21.6407 39.6673 22.233 39.0751C22.8252 38.4829 23.1579 37.6796 23.1579 36.8421V23.1579H36.8421C37.6796 23.1579 38.4829 22.8252 39.0751 22.233C39.6673 21.6407 40 20.8375 40 20C40 19.1625 39.6673 18.3593 39.0751 17.767C38.4829 17.1748 37.6796 16.8421 36.8421 16.8421H23.1579V3.15789Z" fill="white"/>
</svg>
