<svg width="25" height="25" viewBox="0 0 25 25" fill="none" xmlns="http://www.w3.org/2000/svg">
<path d="M14.4737 1.97368C14.4737 1.45023 14.2657 0.948216 13.8956 0.578079C13.5255 0.207941 13.0235 0 12.5 0C11.9765 0 11.4745 0.207941 11.1044 0.578079C10.7343 0.948216 10.5263 1.45023 10.5263 1.97368V10.5263H1.97368C1.45023 10.5263 0.948216 10.7343 0.578079 11.1044C0.207941 11.4745 0 11.9765 0 12.5C0 13.0235 0.207941 13.5255 0.578079 13.8956C0.948216 14.2657 1.45023 14.4737 1.97368 14.4737H10.5263V23.0263C10.5263 23.5498 10.7343 24.0518 11.1044 24.4219C11.4745 24.7921 11.9765 25 12.5 25C13.0235 25 13.5255 24.7921 13.8956 24.4219C14.2657 24.0518 14.4737 23.5498 14.4737 23.0263V14.4737H23.0263C23.5498 14.4737 24.0518 14.2657 24.4219 13.8956C24.7921 13.5255 25 13.0235 25 12.5C25 11.9765 24.7921 11.4745 24.4219 11.1044C24.0518 10.7343 23.5498 10.5263 23.0263 10.5263H14.4737V1.97368Z" fill="white"/>
</svg>
