<svg width="21" height="21" viewBox="0 0 21 21" fill="none" xmlns="http://www.w3.org/2000/svg">
<path d="M11.8125 9.1875C11.8125 8.8394 11.9508 8.50556 12.1969 8.25942C12.4431 8.01328 12.7769 7.875 13.125 7.875H19.6875V10.5H13.125C12.7769 10.5 12.4431 10.3617 12.1969 10.1156C11.9508 9.86944 11.8125 9.5356 11.8125 9.1875ZM1.3125 11.8125H6.5625C6.9106 11.8125 7.24444 11.9508 7.49058 12.1969C7.73672 12.4431 7.875 12.7769 7.875 13.125C7.875 13.4731 7.73672 13.8069 7.49058 14.0531C7.24444 14.2992 6.9106 14.4375 6.5625 14.4375H1.3125V11.8125Z" fill="#50231F"/>
<path d="M4.59375 0C4.7678 0 4.93472 0.0691404 5.05779 0.192211C5.18086 0.315282 5.25 0.482202 5.25 0.65625V1.3125H15.75V0.65625C15.75 0.482202 15.8191 0.315282 15.9422 0.192211C16.0653 0.0691404 16.2322 0 16.4062 0C16.5803 0 16.7472 0.0691404 16.8703 0.192211C16.9934 0.315282 17.0625 0.482202 17.0625 0.65625V1.3125H18.375C19.0712 1.3125 19.7389 1.58906 20.2312 2.08134C20.7234 2.57363 21 3.24131 21 3.9375V18.375C21 19.0712 20.7234 19.7389 20.2312 20.2312C19.7389 20.7234 19.0712 21 18.375 21H2.625C1.92881 21 1.26113 20.7234 0.768845 20.2312C0.276562 19.7389 0 19.0712 0 18.375V3.9375C0 3.24131 0.276562 2.57363 0.768845 2.08134C1.26113 1.58906 1.92881 1.3125 2.625 1.3125H3.9375V0.65625C3.9375 0.482202 4.00664 0.315282 4.12971 0.192211C4.25278 0.0691404 4.4197 0 4.59375 0V0ZM1.3125 5.25V18.375C1.3125 18.7231 1.45078 19.0569 1.69692 19.3031C1.94306 19.5492 2.2769 19.6875 2.625 19.6875H18.375C18.7231 19.6875 19.0569 19.5492 19.3031 19.3031C19.5492 19.0569 19.6875 18.7231 19.6875 18.375V5.25H1.3125Z" fill="#50231F"/>
</svg>
