<svg width="370" height="287" viewBox="0 0 370 287" fill="none" xmlns="http://www.w3.org/2000/svg">
<path d="M221.229 187.761C221.229 187.761 246.23 200.885 251.232 210.278C256.234 219.672 236.226 238.094 234.352 245.283C232.479 252.472 234.352 253.414 244.67 247.471C254.987 241.527 269.671 219.969 273.104 212.466C276.538 204.963 268.102 204.344 259.981 190.907C251.859 177.47 253.733 162.464 242.169 159.649C230.605 156.834 232.165 154.961 227.163 159.335C222.161 163.71 211.539 180.886 221.229 187.761Z" fill="#ED6A30"/>
<path d="M270.42 216.03C269.871 213.799 270.481 211.072 269.706 208.867C269.257 211.341 268.34 213.707 267.004 215.838C266.949 215.926 266.869 215.996 266.775 216.04C266.681 216.085 266.577 216.102 266.473 216.089C266.37 216.076 266.273 216.034 266.193 215.968C266.112 215.902 266.052 215.815 266.02 215.716C265.479 213.625 265.357 211.472 264.869 209.381C263.998 211.377 263.127 213.363 262.368 215.394C262.22 215.777 261.61 215.978 261.401 215.525C260.81 214.201 260.431 212.792 260.277 211.35C259.484 214.043 258.534 216.779 256.617 218.775C256.548 218.842 256.463 218.89 256.37 218.914C256.277 218.938 256.179 218.938 256.086 218.914C255.993 218.889 255.908 218.841 255.84 218.774C255.771 218.707 255.72 218.623 255.693 218.531C255.205 215.673 255.894 211.969 254.351 209.372C253.796 212.439 252.717 215.386 251.162 218.086C247.833 227.672 235.79 239.75 234.352 245.249C232.479 252.438 234.352 253.379 244.67 247.436C253.532 242.338 265.628 225.65 271.03 216.344C270.908 216.382 270.775 216.371 270.661 216.312C270.547 216.253 270.46 216.152 270.42 216.03Z" fill="#5E322E"/>
<g style="mix-blend-mode:multiply">
<path d="M269.488 202.506C265.809 199.081 262.611 195.173 259.981 190.89C251.85 177.452 253.733 162.447 242.169 159.632C230.605 156.817 232.165 154.944 227.163 159.318C222.161 163.693 211.539 180.886 221.229 187.761C221.229 187.761 246.23 200.885 251.232 210.261C256.234 219.638 236.226 238.077 234.352 245.266C232.479 252.455 234.352 253.396 244.67 247.453C247.522 245.674 250.132 243.532 252.434 241.083C255.553 235.275 257.827 229.051 259.188 222.6C261.026 214.061 262.185 207.115 269.488 202.506Z" fill="#CBB9B6"/>
</g>
<g style="mix-blend-mode:multiply">
<path d="M245.053 200.693C248.6 201.731 252.277 202.25 255.972 202.235C259.127 202.166 262.351 201.713 265.322 203.055C268.144 204.505 270.445 206.794 271.91 209.608C272.382 210.454 272.804 211.326 273.174 212.222C276.381 204.902 268.033 204.17 259.981 190.846C251.929 177.522 253.733 162.403 242.169 159.588C230.605 156.774 232.165 154.9 227.163 159.274C222.161 163.649 211.539 180.842 221.229 187.718C227.404 191.023 233.38 194.686 239.128 198.689C241.088 199.473 243.049 200.144 245.053 200.693Z" fill="#CBB9B6"/>
</g>
<path d="M95.2742 130.465C98.7852 127.216 101.835 123.502 104.337 119.425C108.398 112.758 111.84 105.255 118.715 100.567C125.591 95.8789 129.756 96.9159 131.943 105.569C134.131 114.222 134.444 119.834 134.131 123.695C133.817 127.555 133.817 138.073 128.092 143.484C122.367 148.896 109.862 146.822 109.862 146.822L95.2742 130.465Z" fill="#50231F"/>
<g style="mix-blend-mode:multiply">
<path d="M112.859 123.198C108.222 127.112 104.208 131.711 100.956 136.835L109.862 146.822C109.862 146.822 122.358 148.905 128.092 143.484C133.826 138.064 133.817 127.546 134.131 123.695C134.37 119.659 134.077 115.61 133.259 111.652C125.781 114.156 118.855 118.076 112.859 123.198Z" fill="#AF948E"/>
</g>
<path d="M267.893 108.27C267.893 108.27 282.062 64.5166 319.986 46.6003C357.91 28.684 392.079 34.1042 417.115 26.6013C442.15 19.0984 450.864 8.67621 453.365 1.18203C455.866 -6.31216 457.54 23.2637 440.451 51.1839C423.363 79.1041 395.861 93.2734 377.526 96.1926C359.191 99.1119 322.94 98.6936 302.933 102.859C282.925 107.024 278.733 114.946 278.733 114.946L267.893 108.27Z" fill="#ED6A30"/>
<path d="M94.9605 218.391C94.9605 218.391 96.834 234.33 89.9586 236.831C83.0831 239.332 29.0204 243.392 25.892 247.453C22.7636 251.514 23.391 254.956 43.085 254.642C62.7791 254.329 85.2703 250.895 96.834 250.285C108.398 249.675 118.088 251.845 119.029 246.225C119.97 240.604 104.964 214.331 94.9605 218.391Z" fill="#ED6A30"/>
<path d="M105.278 134.16C105.278 134.16 122.776 118.849 139.969 115.721C157.162 112.593 163.411 116.348 158.565 129.786C153.72 143.223 140.126 158.865 133.713 164.006C127.299 169.148 122.001 168.694 122.001 168.694L105.278 134.16Z" fill="#5E322E"/>
<path d="M106.629 136.295C106.629 136.295 113.714 129.42 126.323 124.095C138.932 118.771 148.195 117.943 150.174 121.481C152.152 125.019 145.904 138.038 140.283 146.064C135.76 152.508 130.113 158.084 123.613 162.525C119.343 165.366 106.629 136.295 106.629 136.295Z" fill="#FEFADA"/>
<path d="M109.87 136.975C112.705 135.203 115.691 133.687 118.794 132.444C121.059 131.572 125.277 130.701 126.793 131.659C124.179 134.317 120.449 135.851 117.765 138.474C122.34 138.221 127.351 135.746 133.303 139.223C129.259 140.164 125.652 140.661 122.68 143.319C126.419 144.19 131.996 143.537 135.673 148.225C132.701 148.696 128.501 148.391 125.434 149.314C126.305 149.846 126.994 150.325 127.839 150.848C129.047 151.639 130.138 152.595 131.081 153.689C133.009 156.102 134.609 158.759 135.839 161.592C125.565 158.168 124.275 161.331 123.151 161.357C121.242 161.409 122.279 158.534 121.408 156.765C120.641 155.135 122.863 152.87 121.966 151.31C118.913 145.927 114.84 141.191 109.975 137.367" fill="#ED6A30"/>
<path d="M291.439 139.737C289.775 128.069 287.483 110.153 263.31 102.65C239.136 95.147 210.153 115.355 194.346 133.69C178.538 152.024 173.719 168.285 156.875 174.951C140.03 181.618 131.046 173.487 128.118 167.658C126.078 163.6 124.472 159.338 123.325 154.944C122.767 152.756 121.8 150.944 121.661 148.696C121.547 146.953 121.129 144.286 119.988 142.866L119.691 142.543C117.844 140.652 110.576 132.235 99.9886 129.734C88.5295 127.023 73.5237 128.697 62.5177 134.091C51.5117 139.485 46.2657 142.848 37.7259 142.012C29.186 141.175 15.435 135.555 13.3262 136.783C11.2173 138.012 12.4983 142.204 17.082 144.495C21.6656 146.787 94.1762 179.91 105.008 196.998C115.84 214.087 118.341 224.884 118.55 228.047C118.759 231.21 150.844 230.339 159.594 228.918C168.343 227.498 169.807 214.104 182.721 209.547C195.635 204.989 224.81 184.955 238.77 183.709C252.731 182.463 286.071 167.875 288.772 164.747C291.474 161.619 293.112 151.406 291.439 139.737Z" fill="#ED6A30"/>
<path d="M75.8066 137.541C73.7064 138.728 71.8258 140.266 70.247 142.09C68.7569 143.903 67.2929 146.072 67.4933 148.539C67.5629 149.493 67.9615 150.393 68.621 151.086C69.2806 151.779 70.1602 152.221 71.1097 152.338C72.9227 152.567 74.7641 152.342 76.4689 151.684C77.9052 151.182 79.3057 150.582 80.6604 149.889C82.1506 149.122 83.7714 148.216 83.8847 146.351C83.8839 146.108 83.8034 145.871 83.6555 145.678C83.5076 145.484 83.3004 145.344 83.0656 145.28C82.4428 145.148 81.7963 145.184 81.192 145.384C80.6367 145.634 80.1007 145.926 79.5886 146.255C78.6632 146.783 77.7056 147.251 76.7216 147.658C75.9175 148.005 75.0906 148.296 74.2468 148.53C73.9244 148.608 73.5932 148.652 73.2708 148.73C72.9484 148.809 73.6107 148.73 73.3493 148.73H73.1488C72.9513 148.73 72.7509 148.73 72.5475 148.73H72.0944C71.9986 148.73 71.5628 148.652 71.8591 148.73C72.1554 148.809 71.7197 148.73 71.6413 148.669L71.4321 148.608C71.1271 148.547 71.6587 148.774 71.528 148.652C71.3973 148.53 71.2056 148.521 71.2056 148.478C71.2056 148.434 71.5454 148.774 71.345 148.582C71.345 148.582 71.1969 148.443 71.2056 148.434C71.101 148.617 71.589 148.695 71.2056 148.434C71.1711 148.39 71.1445 148.339 71.1271 148.286C71.1271 148.338 71.2404 148.695 71.1794 148.373C71.1184 148.051 71.1794 148.007 71.1794 148.312C71.1794 148.12 71.1794 147.929 71.1794 147.746C71.1751 147.667 71.1751 147.589 71.1794 147.51C71.1794 147.231 71.1184 147.789 71.1794 147.51C71.2404 147.231 71.284 147.022 71.345 146.778C71.5694 145.835 71.9525 144.936 72.4778 144.121C73.8116 142.284 75.2397 140.519 76.7565 138.831C77.2968 138.169 76.6258 137.088 75.7979 137.585L75.8066 137.541Z" fill="#50231F"/>
<path d="M87.3007 142.979C87.6493 142.979 87.9804 142.874 88.3203 142.813C88.6085 142.762 88.8995 142.727 89.1917 142.709C89.3426 142.7 89.4939 142.7 89.6448 142.709H89.7581C89.6971 142.709 89.6971 142.709 89.7581 142.709H89.9847C90.2943 142.783 90.6088 142.835 90.9258 142.866C90.973 142.865 91.0194 142.853 91.0615 142.831C91.1035 142.81 91.1402 142.779 91.1686 142.741C91.1971 142.704 91.2167 142.66 91.226 142.614C91.2352 142.567 91.2339 142.519 91.2221 142.474C90.9694 141.681 90.0369 141.489 89.2962 141.532C88.5555 141.576 87.8933 141.785 87.1874 141.89C87.0621 141.923 86.9531 142 86.8809 142.108C86.8087 142.215 86.7783 142.346 86.7954 142.474C86.8126 142.603 86.876 142.72 86.9739 142.805C87.0717 142.89 87.1973 142.937 87.3268 142.935L87.3007 142.979Z" fill="#F6AB80"/>
<path d="M87.7715 146.439C88.3246 146.417 88.8782 146.466 89.4185 146.587C89.6642 146.644 89.9036 146.726 90.1331 146.831L90.5252 147.005C90.694 147.076 90.8739 147.117 91.0568 147.127C91.3008 147.127 91.4228 146.848 91.3182 146.665C91.2394 146.501 91.1193 146.36 90.9696 146.256C90.8233 146.161 90.6687 146.079 90.5078 146.012C90.2276 145.893 89.9355 145.805 89.6364 145.75C89.0167 145.629 88.3838 145.591 87.7541 145.637C87.6478 145.637 87.5459 145.679 87.4707 145.754C87.3955 145.829 87.3533 145.931 87.3533 146.038C87.3533 146.144 87.3955 146.246 87.4707 146.321C87.5459 146.396 87.6478 146.439 87.7541 146.439H87.7715Z" fill="#F6AB80"/>
<path d="M73.0879 188.702C73.0879 188.702 86.8476 201.826 92.1458 214.949C97.444 228.073 96.834 235.271 99.335 241.205C101.836 247.139 116.214 253.083 151.847 246.207C187.479 239.332 219.66 197.138 232.792 191.203C245.925 185.269 259.667 182.446 264.669 177.452C269.671 172.459 261.227 164.947 258.726 166.194C256.225 167.44 224.662 182.75 213.098 191.203C201.535 199.656 181.222 201.512 174.66 212.448C168.098 223.385 151.533 233.702 146.531 233.362C141.529 233.023 123.09 205.547 117.774 193.364C112.459 181.182 108.093 175.239 93.0869 172.738C78.0811 170.237 73.0879 188.702 73.0879 188.702Z" fill="#FEFADA"/>
<g style="mix-blend-mode:multiply">
<path d="M210.04 204.179C201.357 211.257 192.139 217.652 182.468 223.306C169.162 231.018 159.01 239.802 144.126 243.724C138.897 245.1 130.558 247.758 123.011 249.301C130.497 249.37 139.987 248.508 151.838 246.225C187.461 239.349 219.652 197.155 232.784 191.221C235.285 190.088 237.812 189.068 240.295 188.127L242.038 186.01C229.499 186.166 219.765 196.266 210.04 204.179Z" fill="#DFD4D1"/>
</g>
<path d="M89.0259 179.64C89.0259 179.64 104.023 192.763 106.21 204.641C108.397 216.518 115.273 218.391 117.155 224.683C119.037 230.975 122.776 242.19 117.155 249.083C111.535 255.976 79.9631 271.896 69.0182 274.711C58.0732 277.526 48.7054 283.774 54.0211 286.275C59.3367 288.776 86.8473 284.959 116.214 272.463C145.581 259.967 164.342 245.266 166.216 239.959C168.09 234.652 167.471 227.21 170.904 219.045C174.974 209.355 184.76 204.144 179.618 199.665C174.477 195.186 152.421 176.851 138.662 177.478C124.902 178.106 89.3396 172.808 89.0259 179.64Z" fill="#ED6A30"/>
<path d="M224.662 141.506C224.662 141.506 216.541 156.512 222.789 173.679C229.037 190.846 242.788 198.68 255.903 198.68C269.017 198.68 276.05 198.68 283.718 205.555C289.966 211.185 290.28 221.502 287.465 229.31C284.651 237.118 276.233 252.107 280.302 255.592C284.372 259.078 289.365 255.279 295.927 242.155C302.489 229.031 308.127 210.897 305.617 204.022C303.107 197.146 293.121 191.822 293.417 174.333C293.713 156.843 296.545 136.513 286.542 122.448C276.538 108.384 233.411 120.566 224.662 141.506Z" fill="#ED6A30"/>
<path d="M304.58 203.063C303.83 206.261 303.979 209.642 302.541 212.649C302.349 213.041 301.748 212.832 301.748 212.431C301.816 210.246 301.43 208.071 300.615 206.044C300.507 209.606 299.442 213.074 297.53 216.082C297.483 216.16 297.412 216.22 297.328 216.253C297.244 216.287 297.151 216.292 297.064 216.269C296.976 216.245 296.899 216.194 296.843 216.122C296.787 216.051 296.756 215.964 296.754 215.873C296.658 213.6 296.248 211.35 295.534 209.189C295.43 210.287 295.282 211.385 295.081 212.475C294.627 214.413 294.335 216.387 294.21 218.374C294.193 218.471 294.147 218.559 294.076 218.627C294.006 218.696 293.916 218.74 293.819 218.753C293.722 218.767 293.623 218.749 293.537 218.703C293.45 218.657 293.381 218.584 293.339 218.496C292.859 216.605 292.589 214.662 292.136 212.762C291.857 211.603 291.535 210.47 291.195 209.337C291.079 211.244 290.864 213.144 290.55 215.028C290.253 216.618 289.807 218.176 289.217 219.681C289.205 222.964 288.634 226.22 287.526 229.31C284.659 237.144 276.233 252.107 280.302 255.592C284.372 259.078 289.365 255.279 295.927 242.155C302.175 229.668 307.551 212.675 305.913 205.129C305.547 204.393 305.1 203.7 304.58 203.063Z" fill="#5E322E"/>
<path d="M453.33 1.18206C450.829 8.67625 442.08 19.0984 417.079 26.6013C400.313 31.6294 379.425 30.8625 356.08 35.2022C365.569 38.7064 375.506 40.8539 385.595 41.581C374.668 43.1321 367.818 56.0378 355.244 56.578C364.08 58.4167 373.543 58.3209 382.258 58.164C376.28 65.1354 370.729 68.8912 361.91 71.8104C368.306 73.6578 381.081 73.684 387.451 71.6884C382.946 80.4026 375.853 83.7052 366.886 86.4154C375.774 87.1648 383.364 85.7618 391.608 82.5288C387.469 90.9206 372.271 92.6809 364.367 97.6218C369.3 97.2384 373.779 96.7504 377.508 96.1926C395.808 93.2734 423.345 79.1042 440.433 51.184C457.522 23.2638 455.831 -6.32084 453.33 1.18206Z" fill="#FEFADA"/>
<g style="mix-blend-mode:multiply">
<path d="M87.2571 205.826C87.8252 204.725 88.2414 203.552 88.4945 202.34C90.6557 202.61 92.6512 200.832 93.3919 198.785C94.1326 196.737 93.8973 194.427 93.6708 192.31C95.919 192.624 98.3503 192.902 100.328 191.804C102.725 190.463 103.718 187.395 103.352 184.676C103.117 182.933 102.219 179.683 100.799 178.489C99.5092 177.409 97.6967 177.705 95.9974 176.694C93.8973 175.448 91.3354 175.326 88.8954 175.239C86.6559 175.152 84.3989 175.091 82.1506 175.152C75.5366 179.718 73.0879 188.746 73.0879 188.746C78.3749 193.947 83.1221 199.669 87.2571 205.826Z" fill="#CBB9B6"/>
</g>
<path d="M15.3914 137.864C15.3914 137.864 39.7911 148.696 60.1822 153.488C80.5734 158.281 93.9409 160.155 104.354 167.867C114.768 175.579 120.397 182.245 114.986 183.282C109.574 184.319 100.172 179.744 100.172 179.744C100.172 179.744 107.884 190.994 100.172 190.158C92.4595 189.321 86.4206 183.91 86.4206 183.91C86.4206 183.91 94.7513 195.787 87.4576 195.578C80.1638 195.369 72.8788 185.121 72.8788 185.121C72.8788 185.121 86.4206 200.754 77.4624 199.29C68.5042 197.826 48.7057 173.243 38.5014 164.076C28.2971 154.909 9.7446 142.622 8.87319 141.994C8.00177 141.367 15.3914 137.864 15.3914 137.864Z" fill="#FEFADA"/>
<path d="M16.8641 137.794C15.1212 136.626 12.3501 135.572 10.2674 132.566C8.18474 129.559 6.61619 127.041 3.2961 129.028C-0.0240025 131.015 -2.22869 137.881 3.71438 142.36C7.66189 145.341 11.8621 143.772 14.4502 142.108C17.1778 140.339 17.7703 138.378 16.8641 137.794Z" fill="#50231F"/>
<path d="M29.3341 158.604C31.1083 159.1 32.9679 159.213 34.7892 158.935C35.6894 158.785 36.553 158.466 37.3337 157.994C37.8077 157.739 38.2049 157.363 38.4839 156.903C38.7628 156.443 38.9133 155.917 38.9197 155.379C38.9174 155.209 38.8488 155.046 38.7283 154.926C38.6079 154.805 38.4452 154.737 38.2748 154.734C38.0585 154.734 37.8435 154.769 37.6387 154.839L37.4034 154.935L37.6126 154.883C37.5341 154.944 37.2901 154.883 37.1768 154.952C36.739 155.126 36.3236 155.351 35.9394 155.623C35.6083 155.806 35.268 155.972 34.9199 156.12C34.8327 156.12 34.6672 156.233 34.8502 156.12L34.6149 156.216C34.4144 156.286 34.2227 156.355 34.0223 156.408C32.5545 156.819 31.041 157.044 29.5171 157.079C29.3302 157.082 29.151 157.154 29.0125 157.279C28.8739 157.405 28.7854 157.576 28.7631 157.762C28.7408 157.947 28.7863 158.135 28.8912 158.289C28.9962 158.444 29.1534 158.556 29.3341 158.604Z" fill="#50231F"/>
<g style="mix-blend-mode:multiply">
<path d="M291.387 200.188C289.472 197.698 286.914 195.778 283.988 194.637C270.464 189.347 254.16 196.379 241.742 187.352C235.572 182.846 231.642 175.701 230.361 168.25C229.562 162.742 229.381 157.163 229.821 151.615C229.063 154.499 226.579 158.952 226.048 160.695C222.998 170.777 223.869 181.086 231.642 188.659C238.175 194.943 246.84 198.528 255.902 198.697C269.026 198.697 276.05 198.697 283.718 205.573C289.966 211.202 290.28 221.52 287.465 229.328C286.855 231.071 285.966 233.092 285.008 235.288C287.325 232.283 289.366 229.074 291.108 225.703C294.689 218.505 295.909 209.416 292.79 202.314C292.362 201.579 291.893 200.87 291.387 200.188Z" fill="#CBB9B6"/>
</g>
<path d="M73.5672 250.163C73.1228 249.989 72.9921 249.231 73.5672 249.126C76.2424 248.621 78.9177 248.429 81.288 247.157C78.3654 246.785 75.4735 246.202 72.6348 245.414C72.5322 245.38 72.443 245.315 72.3798 245.227C72.3165 245.139 72.2825 245.034 72.2825 244.926C72.2825 244.818 72.3165 244.713 72.3798 244.625C72.443 244.538 72.5322 244.472 72.6348 244.438C73.6861 244.155 74.7168 243.799 75.7196 243.375C74.1859 243.069 72.7001 242.559 71.3015 241.859C71.0139 241.693 71.0314 241.135 71.4061 241.074C73.0977 240.89 74.6994 240.218 76.0159 239.14C57.6115 241.493 28.1751 244.464 25.892 247.427C22.7636 251.497 23.391 254.93 43.085 254.616C54.9014 254.433 67.7287 253.117 78.604 252.002C76.8912 251.486 75.2095 250.872 73.5672 250.163Z" fill="#5E322E"/>
<path d="M104.825 271.557C102.96 271.865 101.052 271.782 99.2216 271.312C99.1594 271.292 99.1025 271.259 99.0548 271.214C99.0071 271.169 98.9698 271.115 98.9457 271.054C98.9216 270.993 98.9112 270.928 98.9152 270.863C98.9192 270.797 98.9375 270.734 98.9689 270.676C99.1637 270.29 99.385 269.917 99.6312 269.561C98.4078 269.566 97.191 269.739 96.0148 270.075C95.9298 270.097 95.8402 270.094 95.7571 270.065C95.6741 270.037 95.6014 269.984 95.5483 269.914C95.4952 269.844 95.4639 269.76 95.4585 269.672C95.4532 269.585 95.4739 269.497 95.5181 269.422C96.5584 267.954 97.8298 266.665 99.2826 265.605C100.507 264.74 101.517 263.608 102.237 262.293C97.8796 263.478 93.9582 266.276 89.3746 266.241C81.2704 270.214 73.4538 273.508 69.0183 274.65C58.082 277.456 48.7056 283.713 54.0212 286.214C58.0995 288.131 75.2664 286.362 96.3111 279.774C99.008 276.892 101.85 274.15 104.825 271.557Z" fill="#5E322E"/>
</svg>
