<svg width="182" height="305" viewBox="0 0 182 305" fill="none" xmlns="http://www.w3.org/2000/svg">
<path d="M144.608 102.812C144.608 102.812 145.909 111.201 147.993 124.839C150.077 138.478 151.378 184.89 153.211 196.428C155.044 207.967 156.862 220.293 161.041 226.077C165.219 231.861 169.126 236.284 163.647 237.09C158.168 237.897 147.993 231.059 143.297 216.633C138.601 202.207 136.527 185.429 133.141 166.809C129.756 148.189 125.297 115.668 128.958 107.532C132.619 99.3953 144.608 102.812 144.608 102.812Z" fill="#ED6A30"/>
<g style="mix-blend-mode:multiply">
<path d="M155.919 228.672C153.373 225.905 151.199 222.813 149.453 219.476C147.427 215.766 145.734 211.882 144.395 207.87C141.694 199.838 140.534 191.364 140.976 182.897C141.16 178.954 141.771 175.042 142.799 171.232C143.913 167.5 145.237 163.834 146.764 160.252C147.944 157.336 149.129 154.386 150.15 151.387C149.502 140.242 148.815 130.089 148.007 124.825C145.918 111.187 144.622 102.798 144.622 102.798C144.622 102.798 132.619 99.3953 128.968 107.517C125.317 115.639 129.746 148.165 133.141 166.78C136.536 185.395 138.63 202.183 143.302 216.618C147.973 231.054 158.173 237.863 163.652 237.076C164.788 236.911 165.504 236.59 165.91 236.128C162.184 234.23 158.805 231.709 155.919 228.672Z" fill="#CBB9B6"/>
</g>
<path d="M100.251 101.5C100.251 101.5 91.3772 128.509 81.7244 137.69C72.0717 146.872 58.2406 161.02 50.1547 171.256C42.0688 181.492 37.8905 190.659 37.6293 199.315C37.3682 207.972 38.4128 211.374 38.4128 212.438C38.4128 213.503 66.5924 231.059 74.156 231.584C81.7196 232.109 81.7244 230.009 81.7244 230.009C81.7244 230.009 90.0715 201.687 99.7291 193.298C109.387 184.909 122.168 175.99 124.514 154.225C126.859 132.461 124.775 107.021 124.775 107.021L100.251 101.5Z" fill="#ED6A30"/>
<path d="M143.65 117.32C139.825 106.832 136.696 83.4045 136.696 83.4045L114.45 85.5042C113.057 88.6489 107.491 101.587 105.407 111.376C103.322 121.165 111.645 129.909 114.45 138.648C117.255 147.387 115.843 159.63 106.103 172.214C96.3632 184.797 79.6305 193.92 78.2474 198.781C76.8643 203.641 73.7208 216.959 75.4618 221.139C77.2028 225.319 80.6799 231.977 80.6799 231.977C80.6799 231.977 89.7281 224.283 99.8161 214.844C109.904 205.406 124.862 190.367 130.767 182.678C136.672 174.989 142.596 164.146 146.073 149.112C149.55 134.079 147.475 127.819 143.65 117.32Z" fill="#FEFADA"/>
<g style="mix-blend-mode:multiply">
<path d="M143.65 117.32C139.825 106.832 136.696 83.4045 136.696 83.4045L135.245 83.5455C135.182 96.863 140.028 109.456 143.287 122.195C144.82 128.169 146.242 134.458 145.991 140.665C145.763 146.206 144.322 151.64 142.281 156.767C137.871 167.844 130.747 177.881 122.497 186.416C121.694 187.247 120.858 188.034 120.026 188.846C119.529 189.374 119.028 189.894 118.522 190.406C115.108 193.872 111.427 197.06 108.081 200.589C104.349 204.606 100.372 208.386 96.1745 211.909C90.202 216.813 83.8378 221.202 77.401 225.469C79.0114 228.833 80.6895 232.045 80.6895 232.045C80.6895 232.045 89.7378 224.351 99.8258 214.912C109.914 205.474 124.872 190.435 130.777 182.746C136.681 175.057 142.605 164.214 146.083 149.18C149.56 134.147 147.475 127.819 143.65 117.32Z" fill="#DFD4D1"/>
</g>
<path d="M54.3282 184.102C55.1116 183.315 63.4587 168.107 72.594 170.206C81.7293 172.306 83.2913 186.732 83.5525 197.478C83.8136 208.224 80.941 236.026 80.941 236.026C80.941 236.026 84.5922 245.465 63.981 238.908C43.3697 232.352 37.107 231.569 36.8459 229.994C36.5847 228.419 54.3282 184.102 54.3282 184.102Z" fill="#ED6A30"/>
<g style="mix-blend-mode:multiply">
<path d="M83.5525 197.478C83.2913 186.727 81.7244 172.301 72.594 170.206C69.2087 169.434 65.9734 171.008 63.1588 173.346C64.7341 173.014 66.3704 173.13 67.8836 173.682C73.1598 175.582 75.1377 181.332 76.1049 186.382C77.4445 193.371 77.1834 200.555 76.5112 207.602C75.8293 214.757 74.9153 221.931 73.6337 228.988C72.9422 232.808 72.1829 236.619 71.5832 240.454C71.5832 240.575 71.5494 240.697 71.53 240.818C83.5718 242.884 80.9216 236.011 80.9216 236.011C80.9216 236.011 83.8136 208.229 83.5525 197.478Z" fill="#CBB9B6"/>
</g>
<path d="M38.1515 195.641C38.1515 195.641 35.3224 205.95 44.4384 210.407C53.5543 214.864 78.8421 217.406 101.02 231.307C114.174 239.569 126.845 250.563 134.432 264.357C138.272 271.332 139.839 278.555 140.579 286.419C140.71 287.78 141.909 305.467 139.636 305.01C137.025 304.485 116.152 285.34 89.0171 281.68C61.882 278.02 33.2042 274.311 14.4065 256.479C-4.39123 238.646 -4.12041 216.098 11.2776 204.56C26.6756 193.021 38.1515 195.641 38.1515 195.641Z" fill="#EF7B43"/>
<path d="M103.274 238.077C103.205 238.096 103.143 238.133 103.093 238.184C103.043 238.235 103.007 238.298 102.988 238.367C102.97 238.436 102.969 238.509 102.987 238.578C103.005 238.648 103.041 238.711 103.09 238.762C105.436 240.838 108.033 242.607 110.494 244.532C111.68 245.435 112.81 246.409 113.879 247.448C114.393 247.917 114.842 248.453 115.214 249.042C113.444 248.269 111.713 247.409 109.933 246.661C107.701 245.695 105.349 245.04 102.94 244.716C102.563 244.668 102.457 245.173 102.655 245.407C105.494 248.634 108.942 251.725 110.876 255.662C108.058 253.349 104.865 251.54 101.436 250.316C97.4899 248.858 93.4615 248.503 89.2977 248.435C88.9301 248.435 88.6835 248.877 88.9108 249.105C91.6432 251.832 104.038 260.814 104.41 265.602C101.91 264.419 99.3029 263.479 96.6243 262.797C93.5534 262.019 90.4003 261.47 87.2278 261.869C86.9038 261.908 86.6185 262.326 86.928 262.593C89.1768 264.537 91.4642 266.447 93.6985 268.387C95.5942 270.02 97.2288 271.915 98.9891 273.684C96.339 273.198 93.7178 272.591 91.0532 272.226C88.108 271.813 85.129 271.556 82.3483 272.766C82.1161 272.863 82.1355 273.184 82.2757 273.344C83.7265 274.997 85.661 276.119 87.5567 277.233C89.346 278.287 91 279.449 92.6829 280.669C93.6985 281.408 94.7092 282.127 95.7054 282.91C119.533 288.426 137.262 304.533 139.655 305.015C141.928 305.471 140.729 287.784 140.599 286.424C139.859 278.559 138.292 271.356 134.452 264.362C128.895 254.277 120.616 245.679 111.418 238.558C110.047 238.139 108.634 237.87 107.206 237.756C105.887 237.584 104.547 237.693 103.274 238.077Z" fill="#FEFADA"/>
<g style="mix-blend-mode:multiply">
<path d="M139.361 304.893L139.24 304.835L139.361 304.893Z" fill="#CBB9B6"/>
</g>
<g style="mix-blend-mode:multiply">
<path d="M137.179 303.542L137.088 303.474L137.179 303.542Z" fill="#CBB9B6"/>
</g>
<g style="mix-blend-mode:multiply">
<path d="M137.9 304.033L137.711 303.906L137.9 304.033Z" fill="#CBB9B6"/>
</g>
<g style="mix-blend-mode:multiply">
<path d="M138.49 304.412L138.292 304.286L138.49 304.412Z" fill="#CBB9B6"/>
</g>
<g style="mix-blend-mode:multiply">
<path d="M138.978 304.699L138.804 304.601L138.978 304.699Z" fill="#CBB9B6"/>
</g>
<g style="mix-blend-mode:multiply">
<path d="M140.24 304.592L140.212 304.649L140.24 304.592Z" fill="#CBB9B6"/>
</g>
<g style="mix-blend-mode:multiply">
<path d="M140.08 304.815C140.069 304.834 140.057 304.851 140.042 304.868C140.057 304.851 140.069 304.834 140.08 304.815Z" fill="#CBB9B6"/>
</g>
<g style="mix-blend-mode:multiply">
<path d="M92.6877 280.649C91.0048 279.429 89.3509 278.268 87.5615 277.213C85.6851 276.105 83.7314 274.982 82.2806 273.325C82.1403 273.164 82.121 272.839 82.3531 272.746C82.7991 272.552 83.258 272.39 83.7265 272.26C80.6508 271.628 77.5847 271.04 74.538 270.467C65.3882 268.751 56.2094 267.118 47.2047 264.736C39.6991 262.749 32.416 260.275 25.8535 256.027C14.9869 248.998 6.50928 237.941 4.06224 225.027C3.34367 221.146 3.18082 217.182 3.57863 213.255C-3.32242 225.469 -0.343407 242.417 14.4404 256.454C33.2043 274.311 61.8966 278.005 89.0317 281.655C91.2998 281.962 93.5244 282.385 95.7006 282.89C94.7044 282.127 93.6936 281.408 92.6877 280.649Z" fill="#CBB9B6"/>
</g>
<g style="mix-blend-mode:multiply">
<path d="M140.381 304.286C140.381 304.286 140.381 304.324 140.381 304.344C140.381 304.363 140.376 304.305 140.381 304.286Z" fill="#CBB9B6"/>
</g>
<path d="M138.292 304.285L137.9 304.033L138.292 304.285Z" fill="#CBB9B6"/>
<path d="M140.042 304.869C140 304.904 139.953 304.934 139.902 304.956C139.953 304.934 140 304.904 140.042 304.869Z" fill="#CBB9B6"/>
<path d="M139.651 304.995C139.551 304.97 139.454 304.936 139.36 304.893C139.454 304.936 139.551 304.97 139.651 304.995Z" fill="#CBB9B6"/>
<path d="M139.24 304.835L138.979 304.699L139.24 304.835Z" fill="#CBB9B6"/>
<path d="M139.854 304.981C139.787 305 139.717 305 139.651 304.981C139.717 305 139.787 305 139.854 304.981Z" fill="#CBB9B6"/>
<path d="M138.804 304.601L138.49 304.412L138.804 304.601Z" fill="#CBB9B6"/>
<path d="M140.792 302.307C140.768 302.521 140.739 302.721 140.71 302.915C140.739 302.725 140.768 302.526 140.792 302.307Z" fill="#CBB9B6"/>
<path d="M140.608 303.474C140.579 303.624 140.54 303.77 140.507 303.901C140.565 303.765 140.565 303.624 140.608 303.474Z" fill="#CBB9B6"/>
<path d="M140.492 303.95C140.458 304.072 140.42 304.183 140.381 304.285C140.42 304.183 140.458 304.072 140.492 303.95Z" fill="#CBB9B6"/>
<path d="M140.362 304.344C140.326 304.429 140.286 304.512 140.241 304.592C140.286 304.512 140.326 304.429 140.362 304.344Z" fill="#CBB9B6"/>
<path d="M140.081 304.815C140.132 304.767 140.176 304.711 140.212 304.65C140.176 304.711 140.132 304.767 140.081 304.815Z" fill="#CBB9B6"/>
<path d="M140.71 302.925C140.681 303.109 140.647 303.284 140.613 303.449C140.647 303.279 140.681 303.109 140.71 302.925Z" fill="#CBB9B6"/>
<path d="M137.078 303.474C131.41 299.585 117.709 289.199 100.106 284.032C117.714 289.184 131.415 299.581 137.078 303.474Z" fill="#CBB9B6"/>
<path d="M100.082 284.037C99.376 283.833 98.6602 283.634 97.9348 283.444C98.6602 283.634 99.376 283.838 100.082 284.037Z" fill="#CBB9B6"/>
<path d="M137.711 303.906L137.17 303.542L137.711 303.906Z" fill="#CBB9B6"/>
<path d="M97.8864 283.43C97.161 283.24 96.4356 283.06 95.7006 282.89C96.4356 283.06 97.161 283.24 97.8864 283.43Z" fill="#CBB9B6"/>
<g style="mix-blend-mode:multiply">
<path d="M140.241 304.592C140.286 304.511 140.326 304.429 140.362 304.344C140.362 304.344 140.362 304.305 140.362 304.285C140.4 304.183 140.439 304.072 140.473 303.95V303.901C140.507 303.77 140.545 303.624 140.574 303.474C140.608 303.309 140.642 303.134 140.671 302.949C140.7 302.754 140.729 302.555 140.753 302.341C140.69 302.239 140.632 302.132 140.565 302.03C136.986 296.465 132.053 291.955 126.613 288.261C113.831 279.575 98.7232 275.41 83.6782 272.314C83.2097 272.443 82.7508 272.606 82.3048 272.8C82.0727 272.897 82.092 273.218 82.2323 273.378C83.6831 275.031 85.6175 276.153 87.5132 277.266C89.3026 278.321 90.9565 279.483 92.6394 280.703C93.655 281.442 94.6658 282.161 95.662 282.943C96.3971 283.114 97.1128 283.293 97.8479 283.483H97.8962C98.6216 283.672 99.347 283.872 100.043 284.076C117.647 289.228 131.347 299.629 137.015 303.517L137.107 303.586L137.649 303.95L137.837 304.076L138.229 304.329L138.427 304.456L138.742 304.645L138.916 304.742L139.177 304.878L139.298 304.937C139.391 304.979 139.488 305.013 139.588 305.039C139.654 305.059 139.725 305.059 139.791 305.039H139.839C139.89 305.016 139.937 304.987 139.98 304.951C139.994 304.935 140.007 304.917 140.018 304.898C140.069 304.849 140.113 304.794 140.149 304.733L140.241 304.592Z" fill="#DFD4D1"/>
</g>
<path d="M161.045 226.062C156.867 220.293 155.044 207.967 153.216 196.414C152.959 194.79 152.732 192.457 152.471 189.638C152.099 190.742 151.736 191.84 151.397 192.953C151.371 193.027 151.327 193.093 151.269 193.146C151.211 193.199 151.142 193.238 151.066 193.258C150.991 193.278 150.911 193.279 150.835 193.262C150.759 193.244 150.688 193.208 150.628 193.157C150.049 192.549 149.56 191.86 149.178 191.111C148.732 191.726 148.43 192.434 148.293 193.182C148.288 193.285 148.252 193.384 148.188 193.465C148.123 193.545 148.035 193.603 147.936 193.631C147.837 193.658 147.732 193.652 147.636 193.615C147.54 193.578 147.458 193.511 147.403 193.425C147.076 192.88 146.784 192.315 146.528 191.733C145.51 192.934 144.694 194.294 144.109 195.758C144.008 196.02 143.665 196.268 143.384 196.054C142.152 195.097 141.154 193.868 140.468 192.462C139.57 194.122 138.937 195.913 138.592 197.77C139.787 204.141 141.36 210.436 143.302 216.618C147.998 231.044 158.173 237.863 163.652 237.076C169.131 236.288 165.229 231.832 161.045 226.062Z" fill="#5E322E"/>
<g style="mix-blend-mode:multiply">
<path d="M112.67 202.387C111.223 189.75 109.772 177.102 108.318 164.442C108.129 162.799 106.973 156.918 104.623 158.862C103.066 160.141 102.65 168.209 102.355 170.216C101.871 173.618 101.804 177.667 101.615 181.099C101.093 190.727 103.013 200.278 105.237 209.692C107.68 207.369 110.17 204.895 112.67 202.387Z" fill="#CBB9B6"/>
</g>
<path d="M109.943 104.732C109.943 104.732 104.884 113.301 109.677 122.934C114.469 132.568 121.395 145.146 122.734 153.978C124.074 162.809 122.468 190.644 122.468 200.812C122.468 210.98 123 224.628 125.931 231.059C128.861 237.489 133.388 240.692 131.792 243.37C130.196 246.048 120.34 244.707 115.548 235.593C110.755 226.48 107.027 204.278 105.16 188.219C103.293 172.16 103.298 155.572 101.165 145.934C99.0327 136.295 93.1714 134.444 95.5894 122.4C98.0075 110.355 101.446 100.989 103.327 100.45C105.208 99.9105 109.943 104.732 109.943 104.732Z" fill="#ED6A30"/>
<path d="M125.921 231.059C122.99 224.633 122.458 210.985 122.458 200.812C122.458 199.792 122.458 198.586 122.502 197.245C121.583 198.922 121.158 200.91 120.708 202.737C120.686 202.808 120.644 202.871 120.588 202.919C120.531 202.967 120.462 202.997 120.389 203.007C120.316 203.017 120.241 203.005 120.174 202.974C120.107 202.942 120.051 202.892 120.011 202.829C119.678 202.309 119.371 201.772 119.093 201.221C117.975 202.193 116.65 203.019 115.79 204.224C115.751 204.285 115.695 204.333 115.63 204.363C115.565 204.393 115.493 204.404 115.422 204.395C115.351 204.385 115.284 204.355 115.229 204.309C115.174 204.262 115.134 204.201 115.113 204.132C114.822 203.35 114.348 202.674 113.986 201.911C113.003 203.047 112.314 204.409 111.979 205.877C111.959 205.942 111.921 206 111.869 206.045C111.817 206.089 111.754 206.117 111.686 206.125C111.619 206.134 111.55 206.123 111.489 206.094C111.428 206.064 111.376 206.018 111.34 205.96C110.857 205.104 110.069 204.501 109.541 203.68C108.809 204.812 108.256 206.052 107.902 207.355C109.88 218.772 112.496 229.829 115.538 235.608C120.331 244.707 130.182 246.043 131.782 243.385C133.383 240.726 128.852 237.479 125.921 231.059Z" fill="#5E322E"/>
<g style="mix-blend-mode:multiply">
<path d="M108.207 109.097C116.505 113.077 122.309 120.839 130.535 124.927C133.92 126.599 137.615 126.997 140.821 124.723C143.278 122.978 145.251 120.494 146.943 117.972C145.493 108.445 144.608 102.812 144.608 102.812C143.032 102.414 141.419 102.182 139.796 102.122C137.929 92.649 136.691 83.4045 136.691 83.4045L114.445 85.5042C113.439 87.774 110.262 95.1521 107.786 102.764C106.267 101.505 104.338 100.153 103.308 100.45C102.921 100.562 102.466 101.072 101.968 101.884L100.271 101.5C100.271 101.5 99.4534 103.979 98.0558 107.673C101.422 106.866 104.918 107.517 108.207 109.097Z" fill="#CBB9B6"/>
</g>
<path d="M119.697 42.6549C119.697 42.6549 128.252 14.1438 134.897 6.59559C144.376 -4.1702 147.891 -0.374229 151.639 8.12175C155.387 16.6177 154.676 33.8819 153.371 42.7132C152.065 51.5446 152.698 52.9201 152.698 52.9201L119.697 42.6549Z" fill="#50231F"/>
<path d="M128.745 45.124C128.745 45.124 127.638 35.3594 130.96 22.8487C134.283 10.3381 138.949 4.21881 143.897 4.11674C148.844 4.01468 150.706 17.0843 150.425 27.7626C150.145 38.4409 145.285 47.5104 144.018 47.593C142.751 47.6757 129.746 45.8773 128.745 45.124Z" fill="#FEFADA"/>
<path d="M106.296 47.875C106.296 47.875 84.7082 27.4613 75.1957 24.2874C61.6257 19.7235 60.4748 24.7735 61.4565 34.0082C62.4382 43.243 71.646 57.8582 77.1688 64.8378C82.6916 71.8173 82.8318 73.3435 82.8318 73.3435L106.296 47.875Z" fill="#50231F"/>
<path d="M99.6952 54.558C99.6952 54.558 95.7925 45.5469 86.691 36.385C77.5896 27.2231 70.5047 24.2632 66.1668 26.6642C61.8289 29.0652 66.7229 41.3134 72.2747 50.417C77.8265 59.5205 86.5556 64.935 87.6921 64.3712C88.8286 63.8074 99.197 55.7148 99.6952 54.558Z" fill="#FEFADA"/>
<path d="M75.278 86.1263C75.278 86.1263 82.8657 63.1269 92.0591 53.4547C101.252 43.7825 113.483 37.8577 123.314 37.464C133.146 37.0703 155.29 47.9138 162.835 56.298C170.379 64.6822 171.897 68.138 171.897 68.138C171.897 68.138 152.355 85.0716 148.51 93.0718C144.666 101.072 147.103 108.625 140.869 110.302C134.636 111.979 127.836 112.528 124.17 108.936C120.505 105.344 75.278 86.1263 75.278 86.1263Z" fill="#ED6A30"/>
<path d="M94.3465 44.5651C91.8382 43.4553 89.1403 42.8431 86.4009 42.7618C85.088 42.7067 83.7729 42.7391 82.4643 42.8591C81.8018 42.9271 80.7137 42.9465 80.2108 43.4569C79.1033 44.5796 82.0339 45.265 82.6288 45.4594C85.2983 46.3731 87.8372 47.6028 89.6846 49.6782C88.2132 49.4329 86.7265 49.2916 85.2354 49.2553C82.7835 49.2796 80.4235 49.9358 78.5617 51.564C78.502 51.6177 78.4592 51.6877 78.4386 51.7655C78.4179 51.8432 78.4203 51.9254 78.4455 52.0018C78.4707 52.0782 78.5175 52.1455 78.5802 52.1956C78.643 52.2456 78.7189 52.2761 78.7986 52.2834C80.4049 52.4076 82.0012 52.6398 83.5766 52.9784C84.7794 53.1993 85.9409 53.6059 87.0199 54.1838C86.5363 54.2713 86.0043 54.3442 85.5111 54.4511C84.5703 54.6534 83.6419 54.9098 82.7303 55.2191C81.0764 55.778 79.3693 56.5119 78.2328 57.8631C78.1913 57.9214 78.164 57.9887 78.1531 58.0595C78.1423 58.1303 78.1481 58.2027 78.1703 58.2709C78.1924 58.339 78.2301 58.4009 78.2805 58.4517C78.3308 58.5024 78.3924 58.5406 78.4601 58.563C80.4961 59.1025 82.8561 57.9555 84.8824 58.3832C83.2839 59.0294 81.8266 59.9838 80.5928 61.1925C80.1817 61.6056 78.7019 63.0395 79.732 63.5692C80.2591 63.8366 81.0812 63.3602 81.6326 63.3165C82.4954 63.2559 83.3557 63.4665 84.0941 63.9192C85.1532 64.5462 85.956 65.494 86.9957 66.1161C87.0375 66.1437 87.0855 66.1602 87.1353 66.164C87.1852 66.1678 87.2351 66.1589 87.2806 66.138C87.326 66.1171 87.3654 66.085 87.3951 66.0446C87.4248 66.0042 87.4438 65.9569 87.4503 65.9071C88.0962 62.4874 89.4291 59.236 91.3675 56.3515C93.32 53.4541 95.6638 50.8433 98.3314 48.5943L98.3556 48.57C98.9536 49.3271 99.3958 50.1962 99.6565 51.1266C99.6792 51.2004 99.7279 51.2633 99.7936 51.3035C99.8593 51.3436 99.9373 51.3581 100.013 51.3444C100.089 51.3306 100.157 51.2895 100.204 51.2287C100.252 51.168 100.275 51.0919 100.271 51.0148C100.029 47.8215 97.1127 45.7753 94.3465 44.5651ZM80.3655 62.9763C80.4864 63.0832 80.3655 63.0394 80.3655 62.9763V62.9763Z" fill="#ED6A30"/>
<path d="M126.453 42.0327C126.489 42.1001 126.547 42.1523 126.618 42.1796C126.689 42.207 126.767 42.2077 126.838 42.1817C126.91 42.1556 126.969 42.1046 127.006 42.0379C127.043 41.9712 127.054 41.8934 127.038 41.8189C126.797 40.8828 126.746 39.9076 126.888 38.9513H126.917C130.351 39.5422 133.686 40.6104 136.826 42.1251C139.942 43.6439 142.718 45.7837 144.985 48.4145C145.016 48.4501 145.056 48.4778 145.1 48.4952C145.144 48.5125 145.192 48.5191 145.239 48.5144C145.286 48.5096 145.332 48.4937 145.372 48.4679C145.411 48.442 145.445 48.4071 145.468 48.3658C146.073 47.2966 146.291 46.0717 146.895 44.9976C147.311 44.234 147.956 43.6217 148.738 43.2478C149.221 43.0097 150.188 43.0048 150.503 42.5091C151.136 41.537 149.139 41.0509 148.568 40.8857C146.898 40.4665 145.162 40.3757 143.457 40.6184C144.995 39.2283 147.611 39.029 149.105 37.5369C149.152 37.4832 149.186 37.4191 149.204 37.3498C149.222 37.2805 149.224 37.2079 149.209 37.1379C149.194 37.0679 149.162 37.0024 149.118 36.9467C149.073 36.8911 149.015 36.8468 148.95 36.8175C147.292 36.2197 145.449 36.4481 143.742 36.8175C142.799 37.0083 141.867 37.2534 140.952 37.5515C140.468 37.7118 139.984 37.9014 139.501 38.0861C140.146 37.0415 140.949 36.1037 141.88 35.3059C143.074 34.2175 144.339 33.2108 145.667 32.2925C145.731 32.2454 145.781 32.1804 145.809 32.1055C145.837 32.0307 145.843 31.9491 145.827 31.8708C145.81 31.7925 145.77 31.7209 145.714 31.6646C145.657 31.6083 145.585 31.5698 145.507 31.5537C143.089 31.0677 140.715 31.7044 138.587 32.9195C137.312 33.7017 136.095 34.5756 134.945 35.5344C135.511 32.8028 137.092 30.4601 138.945 28.3215C139.341 27.8647 141.537 25.7941 140.023 25.381C139.332 25.1963 138.374 25.7261 137.769 26.0031C136.578 26.5571 135.424 27.1903 134.317 27.8987C131.983 29.3532 129.952 31.248 128.334 33.4784C126.54 35.8989 125.06 39.1359 126.453 42.0327ZM149.637 42.3341C149.637 42.3924 149.584 42.4848 149.637 42.3341V42.3341Z" fill="#ED6A30"/>
<path d="M174.378 70.2036C176.061 69.2948 178.533 67.6228 179.804 66.1695C181.778 63.9143 180.003 62.4464 177.498 62.5291C173.3 62.6652 169.861 64.5218 166.626 67.0006C162.641 70.0578 158.792 73.1588 155.503 77.0228C151.02 82.3255 146.697 88.0268 144.269 94.6223C142.483 99.5006 141.317 104.586 140.797 109.758L136.793 112.484C135.061 108.523 127.943 103.638 125.017 101.067C115.441 92.649 101.925 87.7351 89.6894 84.8578C87.3748 84.2998 85.0206 83.9228 82.6481 83.7302C81.1683 83.6232 76.8449 82.9768 75.6455 83.9489C71.5784 87.1908 66.4232 91.2395 64.039 96.1339C63.2797 97.6795 61.766 101.179 64.7257 100.737C66.6843 100.445 68.7251 98.9724 70.3307 97.8691C72.0475 96.688 73.89 95.2347 75.7858 94.4328C75.8438 95.293 74.5526 96.5081 74.0545 97.2858C73.2565 98.5398 72.415 99.857 71.6993 101.174C71.2157 102.068 68.7686 106.341 69.7068 107.41C70.645 108.479 75.1184 106.098 76.1098 105.529C78.2667 104.285 80.2591 102.773 82.3966 101.51C80.704 104.576 78.5278 106.681 77.9668 110.346C77.725 111.969 77.6331 112.776 79.3886 113.189C80.6181 113.402 81.882 113.281 83.0495 112.839C87.8227 111.328 91.5174 107.677 96.16 105.855C101.136 103.911 107.423 104.494 112.08 107.118C116.23 109.456 120.079 112.591 124.514 114.356C129.316 116.266 135.874 117.967 140.536 114.866C143.084 113.17 144.172 110.55 145.372 107.867C147.413 103.337 148.757 98.7294 151.804 94.6515C154.589 90.9819 157.974 86.9915 162.138 84.9064C166.529 82.7143 170.969 81.7957 175.834 80.8965C177.768 80.5466 181.105 80.3668 179.103 77.8345C177.652 75.9875 174.349 75.8903 172.284 75.9535C174.959 75.4675 178.968 75.4286 181.163 73.7469C184.66 71.0688 176.192 69.8731 174.378 70.2036Z" fill="#FEFADA"/>
<path d="M133.344 105.991C131.869 106.657 130.443 107.707 129.853 109.33C129.629 109.925 129.567 110.569 129.673 111.196C129.779 111.823 130.05 112.41 130.457 112.897C132.068 114.642 134.945 114.171 136.928 113.665C139.491 113.014 143.752 111.235 143.592 107.833C143.355 102.87 135.985 104.8 133.344 105.991Z" fill="#50231F"/>
<path d="M113.667 81.7665C113.934 82.7041 114.433 83.5585 115.117 84.2502C115.462 84.5913 115.894 84.83 116.365 84.9398C116.836 85.0496 117.328 85.0263 117.787 84.8724C118.918 84.4106 119.383 83.0448 119.465 81.82C119.576 79.9812 119.155 78.1494 118.251 76.5465C117.802 75.604 117.019 74.8639 116.056 74.4711C111.882 73.1491 113.057 79.9488 113.667 81.7665Z" fill="#50231F"/>
<path d="M134.761 76.1868C135.027 77.125 135.527 77.9798 136.212 78.6704C136.556 79.0112 136.987 79.2496 137.457 79.3594C137.928 79.4692 138.419 79.4461 138.877 79.2926C140.009 78.8065 140.473 77.4651 140.555 76.2402C140.666 74.3944 140.237 72.5563 139.322 70.9521C138.873 70.0096 138.09 69.2695 137.126 68.8767C132.972 67.5499 134.142 74.3544 134.761 76.1868Z" fill="#50231F"/>
<path d="M108.337 76.6874C107.317 76.1042 106.011 75.5987 104.855 76.1042C104.545 76.2333 104.287 76.4647 104.125 76.7604C104.087 76.8349 104.074 76.9193 104.086 77.0021C104.098 77.0848 104.135 77.1617 104.193 77.2221C104.261 77.2741 104.344 77.3051 104.43 77.3111C104.515 77.3172 104.601 77.298 104.676 77.2561C104.797 77.2124 104.942 77.1638 105.073 77.1103L105.232 77.0471L105.344 77.0082H105.378C105.621 76.9395 105.876 76.9181 106.127 76.945C106.756 77.0101 107.368 77.1862 107.936 77.4651C108.376 77.6692 108.758 76.9451 108.328 76.6972L108.337 76.6874Z" fill="#F6AB80"/>
<path d="M108.303 73.4698L108.153 73.3483C108.126 73.3312 108.102 73.3098 108.081 73.2851C108.105 73.324 108.134 73.3386 108.081 73.2851C108.028 73.2317 107.902 73.115 107.815 73.0275C107.65 72.8574 107.491 72.6776 107.331 72.5075C107.154 72.3173 106.95 72.1537 106.727 72.0214C106.605 71.9537 106.479 71.8937 106.35 71.8416C106.18 71.7834 105.997 71.7834 105.827 71.8416C105.759 71.8771 105.706 71.9378 105.681 72.0111C105.656 72.0845 105.66 72.1648 105.692 72.2353C105.762 72.3637 105.855 72.4775 105.968 72.5706C106.014 72.6122 106.062 72.6511 106.113 72.6873C106.074 72.663 106.059 72.6387 106.113 72.6873L106.166 72.7359L106.301 72.8574L106.34 72.8866L106.306 72.8574C106.306 72.8574 106.403 72.9546 106.417 72.9643L106.674 73.2171C107.018 73.5879 107.39 73.9323 107.786 74.2475C107.835 74.3026 107.895 74.3459 107.963 74.374C108.031 74.4021 108.104 74.4143 108.177 74.4098C108.251 74.4052 108.322 74.3839 108.386 74.3476C108.45 74.3113 108.504 74.2608 108.546 74.2C108.587 74.1393 108.615 74.0698 108.626 73.9968C108.637 73.9239 108.631 73.8495 108.609 73.7791C108.587 73.7087 108.549 73.6443 108.499 73.5907C108.448 73.5372 108.387 73.4958 108.318 73.4698H108.303Z" fill="#F6AB80"/>
<path d="M137.987 65.2412C138.036 64.594 138.036 63.9441 137.987 63.297C137.958 63.0005 137.924 62.6992 137.866 62.4027C137.839 62.2355 137.792 62.0723 137.726 61.9166C137.651 61.7683 137.545 61.6375 137.416 61.5327C137.376 61.5063 137.328 61.4966 137.281 61.5057C137.234 61.5148 137.192 61.5419 137.165 61.5813C137.085 61.7036 137.031 61.8408 137.005 61.9847C136.987 62.1462 136.987 62.3092 137.005 62.4707C137.03 62.7721 137.068 63.0734 137.092 63.3748C137.141 63.9629 137.194 64.5461 137.199 65.1342C137.189 65.2412 137.222 65.3477 137.291 65.4302C137.359 65.5127 137.457 65.5644 137.564 65.5741C137.67 65.5838 137.776 65.5505 137.858 65.4817C137.94 65.4129 137.992 65.3141 138.002 65.2071L137.987 65.2412Z" fill="#F6AB80"/>
<path d="M141.348 66.7625C141.464 66.5605 141.597 66.3686 141.745 66.1889L141.778 66.1549C141.745 66.1938 141.803 66.1549 141.807 66.1258L141.924 66.0091C142.006 65.931 142.093 65.858 142.185 65.7904C142.185 65.7904 142.339 65.6835 142.243 65.7418L142.378 65.664C142.48 65.6057 142.581 65.5571 142.683 65.5085C142.779 65.4646 142.878 65.4257 142.978 65.3918L143.108 65.3384H143.186C143.229 65.3384 143.234 65.3384 143.186 65.3384L143.282 65.3092C143.403 65.2721 143.517 65.2163 143.621 65.144C143.681 65.0963 143.725 65.0306 143.746 64.9564C143.767 64.8821 143.764 64.8032 143.737 64.7308C143.597 64.4392 143.2 64.4295 142.92 64.4538C142.418 64.5146 141.949 64.7342 141.58 65.0808C141.168 65.4547 140.838 65.9118 140.613 66.4222C140.583 66.5154 140.587 66.6162 140.624 66.7067C140.661 66.7972 140.729 66.8715 140.815 66.9165C140.902 66.9614 141.001 66.974 141.096 66.952C141.191 66.9301 141.275 66.8749 141.334 66.7965L141.348 66.7625Z" fill="#F6AB80"/>
</svg>
