<svg width="66" height="55" viewBox="0 0 66 55" fill="none" xmlns="http://www.w3.org/2000/svg">
<path d="M0.00344316 31.2271C0.721462 30.1014 1.29829 29.9637 2.45194 30.6539C4.4407 31.8415 6.42601 33.0343 8.49742 34.2684C9.4014 32.678 10.6325 31.5369 12.5731 31.6212C14.5136 31.7056 15.7207 32.8054 16.3853 34.5472C19.3676 34.1118 20.7554 34.8037 21.8953 37.3115C23.0231 37.0378 24.1613 36.9931 25.2495 37.5438C25.7384 37.7888 26.1743 38.1277 26.5321 38.5411C26.8899 38.9546 27.1626 39.4346 27.3347 39.9535C28.1956 39.9535 28.9963 39.8416 29.7453 39.9776C31.3139 40.2564 32.3074 41.2651 32.8446 42.7591C32.9533 43.0752 33.1385 43.3596 33.3836 43.587C35.2174 45.1756 37.0753 46.7333 38.9194 48.3116C39.6329 48.9394 40.5216 49.3334 41.466 49.4407C42.5646 49.5698 43.441 49.1189 43.8353 48.1929C44.2072 47.3185 43.9559 46.42 43.1259 45.7264C39.2345 42.4802 35.3419 39.2352 31.4482 35.9913C31.233 35.8192 31.0143 35.6471 30.8077 35.4526C30.1861 34.8932 30.0845 34.0894 30.5546 33.5008C31.0246 32.9121 31.8907 32.8037 32.5605 33.351C34.2393 34.728 35.8975 36.1221 37.5643 37.5111C40.9495 40.3494 44.3398 43.1532 47.6992 45.9915C48.0477 46.2975 48.4616 46.5198 48.9093 46.6412C49.357 46.7626 49.8266 46.78 50.282 46.692C50.7243 46.6374 51.1396 46.4496 51.4726 46.1536C51.8057 45.8575 52.0408 45.4672 52.1468 45.0345C52.4137 44.0913 52.1881 43.2324 51.4253 42.5852C49.886 41.2788 48.326 39.9948 46.7763 38.7022C43.3325 35.8278 39.8842 32.9551 36.4313 30.0842C35.9561 29.6883 35.6496 29.2322 35.7976 28.5781C35.8457 28.334 35.9619 28.1084 36.1329 27.9275C36.3038 27.7465 36.5225 27.6177 36.7636 27.5558C37.3473 27.3836 37.7967 27.6418 38.2306 28.0015C41.2956 30.5627 44.3639 33.1198 47.4357 35.6729C49.3815 37.2943 51.3358 38.907 53.2729 40.5404C53.5802 40.8102 53.9417 41.0112 54.3331 41.1299C54.7245 41.2487 55.1368 41.2824 55.5423 41.2289C56.5496 41.117 57.2728 40.5886 57.6085 39.6282C57.9529 38.6385 57.7119 37.7469 56.937 37.0464C55.5475 35.7968 54.1321 34.5782 52.7253 33.3476L37.1183 19.6951C37.0546 19.6383 36.984 19.5918 36.7929 19.4489C35.2535 20.6262 33.6729 21.8035 32.1301 23.0256C30.8501 24.0376 29.5938 25.079 28.3609 26.1495C26.1104 28.1031 20.9844 28.11 18.8304 25.3096C17.0069 22.9378 17.0379 19.6193 19.1213 17.4713C21.5423 14.9738 24.0201 12.5297 26.5013 10.0908C26.9352 9.66394 27.5086 9.3765 28.1594 8.92554C27.3743 8.79129 26.7217 8.65532 26.0639 8.57098C21.9211 8.03741 17.799 8.22674 13.6785 8.8653C10.7135 9.33002 8.04801 8.68286 5.71832 6.7775C4.02286 5.39251 2.34117 3.98916 0.67325 2.56745C0.404638 2.33853 0.223842 2.00634 0.00344316 1.72235V0.949531C0.826496 -0.201948 1.51352 -0.293172 2.60174 0.605292C4.00679 1.77226 5.45832 2.88759 6.79966 4.12169C8.88828 6.04426 11.2559 6.48833 14.0143 6.05976C19.7309 5.17506 25.4372 5.21465 31.0608 6.79471C31.3015 6.86794 31.5598 6.85825 31.7943 6.76717C35.2122 5.07524 38.6663 5.25424 42.1772 6.45391C44.5499 7.2646 46.9261 8.13208 49.4452 8.34723C50.9363 8.46943 52.4447 8.4023 53.9444 8.36272C54.279 8.31757 54.5913 8.16961 54.8381 7.9393C57.7365 5.48029 60.6247 3.00923 63.5025 0.526118C63.9795 0.116474 64.4805 -0.109001 65.0918 0.102706C66.1249 0.457272 66.316 1.71374 65.4362 2.49517C64.1 3.67418 62.7363 4.82222 61.3829 5.9823C59.7833 7.35926 58.1509 8.68286 56.6013 10.1046C55.8505 10.793 55.0223 11.0392 54.0546 11.1459C50.2544 11.559 46.6282 10.8257 43.0433 9.645C41.4847 9.10323 39.8897 8.67243 38.2702 8.35583C36.0921 7.96856 34.0603 8.61229 32.1697 9.70525C30.0879 10.9101 28.0837 12.2044 26.4255 14.0082C24.8104 15.7587 23.073 17.399 21.3787 19.0754C20.3335 20.1081 19.9599 21.313 20.4868 22.7089C20.9775 24.0153 22.1329 24.6986 23.6809 24.7743C25.0429 24.8414 26.1552 24.4301 27.2176 23.554C29.6661 21.5299 32.1869 19.5952 34.6991 17.6537C35.2087 17.2955 35.7499 16.9844 36.3159 16.7243C37.0667 16.3387 37.5746 16.4213 38.1979 16.9687C44.5631 22.5431 50.9248 28.1226 57.2831 33.7073C57.6878 34.0636 57.946 34.0619 58.3782 33.7916C60.1276 32.705 61.8931 31.6442 63.6747 30.6092C64.0189 30.402 64.4128 30.292 64.8146 30.2907C65.4293 30.3183 65.8322 30.7382 65.9631 31.3407C66.1008 31.9775 65.8477 32.487 65.2984 32.8209C63.685 33.802 62.063 34.7676 60.4445 35.7469C60.2275 35.8777 60.0157 36.0171 59.8057 36.1497C61.7841 39.9363 59.2547 44.05 55.0309 44.0517C55.0085 46.1756 54.1906 47.8985 52.2501 48.8986C50.3733 49.8659 48.4792 49.6938 46.6489 48.6851C45.4659 51.933 42.5043 53.1602 38.6938 51.5234C38.4665 51.9761 38.2702 52.4511 38.0051 52.8814C36.5105 55.2911 33.5902 55.7076 31.4912 53.8091C30.5873 52.9898 29.7005 52.1516 28.8155 51.3289C26.429 53.038 23.2676 52.3289 22.0916 49.2979C19.1644 49.7557 17.7576 49.0569 16.6126 46.5268C15.304 46.871 14.0091 46.8435 12.8245 46.0517C11.6398 45.26 11.063 44.0964 10.989 42.7057C7.45225 41.8313 6.51211 40.3838 7.02867 36.6282C5.05885 35.444 3.06837 34.2667 1.09855 33.0464C0.680138 32.7865 0.363314 32.3579 0 32.0136L0.00344316 31.2271ZM19.3641 38.7659C19.2849 38.0533 19.0972 37.4974 18.4481 37.2392C17.8627 37.0068 17.2652 37.0774 16.864 37.5834C15.8722 38.8485 14.8959 40.1291 13.9678 41.4424C13.4788 42.1308 13.7371 43.3649 14.3587 43.766C15.0474 44.2152 15.8119 43.9914 16.4473 43.1446C17.2342 42.0998 18.0383 41.0671 18.7925 39.9983C19.0508 39.6385 19.1764 39.1807 19.3641 38.7659ZM24.8741 41.4991C24.7587 40.6472 24.4919 40.1755 23.8892 39.9604C23.2865 39.7453 22.7476 39.8589 22.3705 40.3391C21.3787 41.6059 20.4007 42.8864 19.4778 44.2031C18.9715 44.926 19.2229 46.1051 19.8669 46.525C20.5367 46.9605 21.3339 46.7213 21.959 45.8899C22.7597 44.8279 23.5775 43.778 24.3438 42.6919C24.5831 42.3443 24.695 41.8985 24.8672 41.4991H24.8741ZM24.6434 47.8177C24.757 48.6783 25.0205 49.1826 25.5956 49.3857C26.1707 49.5888 26.7423 49.5251 27.1246 49.0414C28.1302 47.7591 29.1237 46.4596 30.0518 45.1292C30.527 44.4407 30.267 43.2496 29.6747 42.852C28.998 42.3976 28.1973 42.6197 27.5774 43.4407C26.7751 44.5026 25.9606 45.5543 25.1909 46.6386C24.9395 46.9846 24.8173 47.4218 24.6365 47.8177H24.6434ZM30.5356 49.155C31.5274 50.0776 32.4555 50.9674 33.4129 51.8229C34.1446 52.4752 35.0452 52.3857 35.5566 51.5527C35.8441 51.081 35.9561 50.4924 36.0972 49.9433C36.1089 49.8499 36.0994 49.755 36.0696 49.6657C36.0399 49.5763 35.9905 49.4948 35.9251 49.427C34.8093 48.439 33.6746 47.4734 32.5192 46.4768L30.7784 48.8005C30.6975 48.9003 30.6303 49.007 30.5287 49.155H30.5356ZM9.53226 38.1824C9.6373 39.1256 9.9128 39.5972 10.5654 39.8055C11.218 40.0138 11.7156 39.7556 12.2149 39.0137C12.5989 38.444 13.038 37.9019 13.3376 37.2925C13.5729 36.8004 13.7103 36.2673 13.7422 35.7228C13.7784 35.0946 13.4392 34.6144 12.7918 34.4336C12.1443 34.2529 11.6605 34.5008 11.3006 35.0378C10.8719 35.6798 10.4156 36.3063 10.0247 36.9707C9.8026 37.3407 9.6924 37.7676 9.53226 38.1824Z" fill="white"/>
</svg>
