<svg width="38" height="35" viewBox="0 0 38 35" fill="none" xmlns="http://www.w3.org/2000/svg">
<path d="M36.3013 17.2132L19.4591 0.383302C19.3378 0.261796 19.1938 0.165398 19.0352 0.0996266C18.8767 0.0338548 18.7067 0 18.535 0C18.3634 0 18.1934 0.0338548 18.0348 0.0996266C17.8762 0.165398 17.7322 0.261796 17.6109 0.383302L0.768715 17.2132C0.278046 17.7039 0 18.3704 0 19.0655C0 20.5089 1.17352 21.6824 2.6169 21.6824H4.39149V33.6915C4.39149 34.4153 4.9762 35 5.69994 35H15.9181V25.8408H20.4977V35H31.3701C32.0938 35 32.6786 34.4153 32.6786 33.6915V21.6824H34.4531C35.1483 21.6824 35.8147 21.4085 36.3054 20.9137C37.3236 19.8915 37.3236 18.2355 36.3013 17.2132V17.2132Z" fill="white"/>
</svg>
