<svg width="181" height="300" viewBox="0 0 181 300" fill="none" xmlns="http://www.w3.org/2000/svg">
<path d="M75.6586 37.7145C75.6586 37.7145 77.3327 3.0759 69.5151 0.283777C61.6975 -2.50835 51.9197 15.9266 48.8499 28.2166C45.7801 40.5066 45.2195 46.3925 45.2195 46.3925L75.6586 37.7145Z" fill="#50231F"/>
<path d="M71.5874 37.7144C71.5874 37.7144 73.8221 9.5844 66.6425 8.03752C59.4628 6.49063 54.0694 21.8589 52.6543 26.8051C51.2393 31.7512 50.118 41.1949 50.118 41.1949L71.5874 37.7144Z" fill="#FEFADA"/>
<path d="M71.3709 30.6258C70.2928 27.889 68.6964 25.3862 66.6695 23.2549C65.7118 22.2273 64.689 21.2624 63.6075 20.3661C63.0546 19.9175 62.2079 19.117 61.4423 19.1209C59.7605 19.1209 61.4771 21.8627 61.7671 22.4428C63.1087 25.1498 64.1217 27.9884 63.967 30.9506C63.0347 29.6539 62.0101 28.426 60.9011 27.2768C59.0221 25.4476 56.7332 24.183 54.1003 23.9974C54.0148 23.991 53.9293 24.0102 53.8547 24.0525C53.7801 24.0947 53.7197 24.1582 53.6812 24.2348C53.6427 24.3114 53.6278 24.3978 53.6384 24.4829C53.649 24.568 53.6846 24.648 53.7407 24.7128C54.8613 26.0215 55.8945 27.4025 56.8337 28.8469C57.5841 29.9187 58.1632 31.1007 58.5504 32.3506C58.1019 32.0335 57.6611 31.7086 57.201 31.4108C56.3281 30.8574 55.4245 30.3538 54.4947 29.9026C52.8206 29.0789 50.9725 28.3557 49.0819 28.5143C49.0069 28.5275 48.936 28.558 48.8748 28.6033C48.8136 28.6486 48.7638 28.7076 48.7293 28.7755C48.6948 28.8433 48.6766 28.9183 48.676 28.9945C48.6755 29.0707 48.6926 29.1459 48.7262 29.2143C49.8861 31.1479 52.5267 32.0683 53.7523 33.9168C52.0526 33.2027 50.2295 32.8283 48.3859 32.8146C47.7635 32.8146 45.5636 32.7837 45.9502 33.9748C46.1474 34.5703 47.1333 34.8333 47.5856 35.2123C48.2871 35.8204 48.7828 36.631 49.0045 37.5326C49.3409 38.8011 49.2365 40.1275 49.5768 41.3998C49.5884 41.4518 49.613 41.5 49.6483 41.54C49.6835 41.5799 49.7282 41.6104 49.7783 41.6285C49.8284 41.6466 49.8822 41.6518 49.9348 41.6436C49.9874 41.6354 50.0372 41.6141 50.0794 41.5816C53.1335 39.483 56.5826 38.0278 60.2167 37.3045C63.8766 36.5936 67.6174 36.3931 71.3323 36.7089C71.3323 36.7089 71.3555 36.7089 71.3671 36.7089C71.2562 37.7345 70.9407 38.7273 70.4392 39.6286C70.4138 39.665 70.3958 39.7059 70.3862 39.7492C70.3767 39.7924 70.3757 39.8372 70.3834 39.8808C70.3911 39.9244 70.4074 39.9661 70.4312 40.0035C70.455 40.0408 70.486 40.0731 70.5223 40.0985C70.5586 40.1239 70.5995 40.1419 70.6428 40.1515C70.686 40.161 70.7307 40.162 70.7744 40.1543C70.818 40.1465 70.8597 40.1303 70.897 40.1065C70.9344 40.0826 70.9666 40.0517 70.992 40.0154C73.2499 37.3702 72.5656 33.6267 71.3709 30.6258ZM46.9361 34.0251C46.9361 34.1952 46.9052 34.0831 46.9361 34.0251V34.0251Z" fill="#ED6A30"/>
<path d="M92.2294 41.6281C92.2294 41.6281 102.282 29.3381 116.525 22.9147C130.768 16.4913 134.956 15.9305 134.117 26.2675C133.278 36.6046 124.343 56.714 120.434 60.9177C116.525 65.1213 113.734 68.1803 113.734 68.1803L92.2294 41.6281Z" fill="#50231F"/>
<path d="M97.534 44.9809C97.534 44.9809 105.073 36.3223 117.364 29.0597C129.655 21.7971 131.604 25.7261 130.196 31.8518C128.789 37.9774 121.261 52.2436 117.352 57.2709C113.444 62.2983 110.092 64.5335 110.092 64.5335L97.534 44.9809Z" fill="#FEFADA"/>
<path d="M134.117 208.579C134.117 208.579 138.586 215.656 147.896 221.24C157.206 226.825 168.001 227.2 172.47 236.883C176.939 246.567 141.927 263.698 124.811 254.39C107.695 245.082 110.66 231.295 114.012 223.476C117.364 215.656 134.117 208.579 134.117 208.579Z" fill="#ED6A30"/>
<g style="mix-blend-mode:multiply">
<path d="M134.117 208.579C134.117 208.579 138.586 215.656 147.896 221.24C157.206 226.825 168.001 227.2 172.47 236.883C176.939 246.567 141.927 263.698 124.811 254.39C107.695 245.082 110.66 231.295 114.012 223.476C117.364 215.656 134.117 208.579 134.117 208.579Z" fill="#B69E99"/>
</g>
<path d="M27.6241 57.5532C27.6241 57.5532 50.524 35.4831 63.9284 33.8086C77.3327 32.1341 97.4412 38.836 103.028 43.5849C108.615 48.3338 118.106 65.3727 118.945 70.1217C119.784 74.8706 81.2454 90.5134 66.7237 88.2782C52.202 86.0429 27.6241 57.5532 27.6241 57.5532Z" fill="#ED6A30"/>
<path d="M97.2556 88.2782C97.2556 88.2782 97.6422 103.55 100.233 117.7C102.823 131.85 112.524 146.383 116.618 160.904C120.712 175.426 116.618 221.233 115.501 234.277C114.383 247.321 103.214 248.802 103.214 248.802L47.7326 242.471C47.7326 242.471 44.0093 154.574 42.892 141.151C41.7746 127.728 39.9111 113.589 42.5054 106.141C45.0996 98.6925 49.2095 86.0313 49.2095 86.0313L97.2556 88.2782Z" fill="#ED6A30"/>
<g style="mix-blend-mode:multiply">
<path d="M117.492 165.266C117.295 163.795 117.003 162.338 116.618 160.904C112.524 146.383 102.842 131.854 100.233 117.7C99.4594 113.577 98.9065 109.358 98.4812 105.452C98.4194 109.32 98.4812 113.187 98.7596 117.035C99.1462 122.449 102.854 142.728 103.306 148.054C104.145 157.973 101.277 184.019 100.793 184.649C100.793 184.649 93.718 245.171 94.0891 247.777C94.3366 249.51 98.9413 252.031 103.859 253.837C103.487 249.369 103.358 244.884 103.473 240.402C103.704 230.246 104.494 220.11 105.839 210.041C106.264 206.924 106.74 203.788 107.296 200.663C107.447 201.139 107.586 201.618 107.753 202.086C109.695 207.6 112.829 212.617 116.931 216.781C118.017 201.726 119.042 181.946 117.952 169.215C118.938 167.513 119.989 165.847 121.118 164.242C123.798 160.417 127.022 156.65 130.958 154.024C127.188 155.873 122.267 160.305 117.492 165.266Z" fill="#B69E99"/>
</g>
<path d="M43.6343 180.646C43.6343 180.646 30.2299 158.669 20.9238 163.511C11.6177 168.352 12.36 185.488 18.6891 206.344C25.0182 227.2 34.3127 247.317 34.3127 247.317C34.3127 247.317 42.5015 253.648 45.1112 248.435C47.7209 243.222 43.6343 180.646 43.6343 180.646Z" fill="#ED6A30"/>
<g style="mix-blend-mode:multiply">
<path d="M43.6343 180.646C43.6343 180.646 38.0359 171.473 31.5599 166.287C32.1392 169.946 32.4429 173.643 32.4685 177.348C32.5806 184.146 32.0819 190.937 31.4942 197.705C30.8911 204.727 30.4271 211.762 29.8472 218.792C29.4605 223.688 28.9502 228.576 28.3973 233.461C31.7571 241.756 34.3127 247.317 34.3127 247.317C34.3127 247.317 42.5015 253.648 45.1112 248.435C47.7209 243.222 43.6343 180.646 43.6343 180.646Z" fill="#B69E99"/>
</g>
<path d="M110.66 172.452C110.66 172.452 125.182 153.085 134.117 153.085C143.052 153.085 146.408 162.753 144.556 181.018C142.704 199.282 125.557 248.431 125.557 248.431C125.557 248.431 147.9 250.291 146.411 254.39C144.923 258.489 117.368 256.997 111.035 255.879C104.702 254.761 102.096 247.704 101.725 245.078C101.354 242.452 110.66 172.452 110.66 172.452Z" fill="#ED6A30"/>
<path d="M52.9443 88.2781C49.7778 95.5833 45.668 102.27 43.6227 110.066C41.6045 117.75 41.6896 125.535 42.3314 133.331C43.3438 146.043 45.0215 158.693 47.3575 171.23C49.5342 182.603 51.363 194.046 53.3541 205.385C54.224 210.339 54.8581 215.119 55.6313 220.038C56.1687 223.449 56.2693 229.976 58.2527 232.776C61.0866 236.775 69.8051 235.87 74.5219 236.5C78.9295 237.104 83.4376 237.355 87.8915 237.869C87.5899 232.981 89.0514 228.031 89.0514 223.008C89.0514 216.665 88.8233 210.246 89.438 203.996C90.5012 192.886 91.4601 181.698 91.9627 170.576C93.0414 146.808 92.9177 121.463 81.257 99.9223C75.8713 89.9758 63.6848 80.1995 52.9481 89.0129" fill="#FEFADA"/>
<path d="M44.0093 103.55C44.0093 103.55 44.396 117.65 47.4542 128.222C51.6414 142.748 53.6905 160.904 54.0617 178.782C54.4328 196.66 51.4558 252.526 47.7326 253.644C44.0093 254.761 37.6803 258.485 38.4226 245.449C39.1649 232.413 38.4226 183.624 38.4226 169.47C38.4226 155.316 33.9532 133.718 36.1879 122.917C38.4226 112.116 44.0093 103.55 44.0093 103.55Z" fill="#ED6A30"/>
<path d="M67.466 86.4141C67.466 86.4141 82.3628 112.487 85.7109 135.207C89.0591 157.926 87.5745 170.959 88.6918 187.719C89.8092 204.48 83.8513 249.548 84.5936 255.508C85.3359 261.467 92.7862 261.467 94.2593 255.894C95.7323 250.322 103.925 196.301 104.312 175.816C104.698 155.332 99.4903 123.659 95.3998 112.116C91.3093 100.572 81.9877 77.8483 67.466 86.4141Z" fill="#ED6A30"/>
<path d="M53.0757 202.991C53.045 203.037 53.0048 203.075 52.958 203.104C52.9112 203.133 52.8588 203.151 52.8043 203.158C52.7498 203.165 52.6944 203.16 52.6419 203.144C52.5894 203.128 52.5409 203.101 52.4997 203.064C51.7264 202.109 51.1233 201.355 50.8874 200.28C50.1996 201.364 49.4237 202.39 48.5677 203.347C48.5134 203.392 48.4478 203.422 48.3778 203.433C48.3078 203.444 48.2361 203.435 48.1707 203.408C48.1053 203.381 48.0486 203.336 48.0068 203.279C47.9649 203.222 47.9396 203.154 47.9336 203.084C47.9336 202.245 47.8253 201.409 47.8331 200.574C46.7234 201.92 45.7917 203.413 44.6782 204.766C44.6307 204.82 44.569 204.86 44.5002 204.881C44.4314 204.901 44.3582 204.903 44.2887 204.884C44.2192 204.866 44.1563 204.828 44.1069 204.776C44.0576 204.724 44.0238 204.659 44.0093 204.588C43.3753 201.908 43.2361 199.124 42.9229 196.378C42.1429 199.85 40.7116 203.143 38.7048 206.081C38.8092 222.273 38.8247 238.681 38.438 245.449C37.6918 258.485 44.0248 254.761 47.748 253.644C50.3809 252.87 52.6388 224.705 53.6054 201.958C53.4237 202.307 53.2574 202.655 53.0757 202.991Z" fill="#5E322E"/>
<path d="M100.581 197.654C99.6218 199.371 98.9104 201.228 98.0327 202.987C97.9969 203.037 97.9498 203.077 97.8954 203.105C97.8409 203.133 97.7807 203.147 97.7196 203.147C97.6584 203.147 97.5982 203.133 97.5437 203.105C97.4893 203.077 97.4422 203.037 97.4064 202.987C96.8426 202.119 96.5001 201.126 96.4089 200.095C96.017 201.373 95.5431 202.625 94.99 203.842C94.9572 203.904 94.908 203.956 94.8477 203.993C94.7874 204.029 94.7183 204.049 94.6478 204.049C94.5774 204.049 94.5083 204.029 94.448 203.993C94.3877 203.956 94.3385 203.904 94.3057 203.842C93.3314 201.908 93.196 199.727 92.5697 197.689C92.2116 199.2 91.6729 200.662 90.9652 202.044C90.2932 203.483 89.4039 204.811 88.3284 205.98C87.0951 225.815 84.0484 251.142 84.5936 255.508C85.3398 261.467 92.7862 261.467 94.2592 255.894C95.2915 252.027 99.5406 224.907 102.177 201.8C101.156 200.66 100.588 199.185 100.581 197.654V197.654Z" fill="#5E322E"/>
<g style="mix-blend-mode:multiply">
<path d="M45.9386 97.8301C48.0767 99.2339 49.8049 101.144 51.3166 103.186C54.1738 107.053 56.3195 111.443 59.7064 114.888C61.4462 116.656 63.5997 118.322 66.0973 118.779C68.8037 119.278 71.6029 118.319 74.0077 117.093C79.2388 114.424 83.4492 110.224 88.4521 107.208C91.2719 105.491 94.3852 104.311 97.6345 103.728C97.8472 103.689 98.0675 103.662 98.2879 103.631C97.418 94.9954 97.2556 88.2936 97.2556 88.2936L49.2211 86.0544C49.2211 86.0544 47.4194 91.6232 45.4476 97.5478C45.61 97.6329 45.7762 97.7257 45.9386 97.8301Z" fill="#CBB9B6"/>
</g>
<path d="M60.5763 82.9607C58.5465 78.5134 53.3928 74.7623 50.2572 70.9724C46.6229 66.5638 42.0027 63.3772 37.2588 60.2332C30.3421 55.6467 23.8429 53.365 13.3885 53.0866C9.84696 52.9899 -0.963134 56.6985 0.0691606 59.0769C1.79738 63.0562 10.2607 61.3972 15.5884 62.917C12.9593 64.0965 10.1756 64.781 7.80557 65.6705C3.9625 67.1245 2.26907 69.2322 1.15172 71.5911C-0.669296 75.4197 3.81171 74.596 6.45624 74.596C9.54926 74.596 12.6732 74.0159 15.6773 74.0778C13.8254 75.7793 10.4578 77.8483 8.06074 79.7007C5.5206 81.6613 3.84651 84.7744 3.86584 86.8163C3.91223 92.1492 15.2752 88.9936 18.4224 88.3632C29.1435 86.1705 37.0462 88.9588 46.128 94.4386C48.2584 95.7264 50.6284 96.9213 52.4726 98.6152C54.224 100.224 55.3414 102.424 57.0773 104.06C60.6962 107.479 64.7441 108.863 69.5693 107.927C79.1035 106.04 87.6402 100.286 96.9463 97.7412C101.199 96.581 106.144 96.0435 110.428 97.2771C115.18 98.65 121.501 108.457 125.062 105.031C128.29 101.937 123.972 95.2971 121.153 92.2691C127.339 93.8856 131.832 101.987 135.845 98.65C139.642 95.4982 135.559 89.8327 131.565 87.3423C137.094 87.4583 140.597 91.4956 144.505 91.0703C147.888 90.6835 147.158 84.6468 146.458 82.3188C144.204 74.8473 138.884 69.1703 131.143 67.8361C122.723 66.3859 114.093 68.6095 105.99 70.9299C97.244 73.4551 88.4096 75.8373 79.8419 78.8538C74.1624 80.8531 65.3241 85.2269 59.4589 81.8586" fill="#FEFADA"/>
<path d="M70.9997 78.0687C69.2251 77.4732 67.35 77.3262 65.4942 77.1831L63.2363 77.0052C61.8522 76.9008 60.4255 76.7964 59.111 77.2875C57.7964 77.7787 56.6172 79.02 56.5592 80.536C56.5568 81.0686 56.6644 81.5961 56.8753 82.0852C57.0862 82.5743 57.3959 83.0146 57.7848 83.3784C58.5375 84.0563 59.4146 84.5817 60.3675 84.9253C63.2045 86.1096 66.2516 86.7081 69.3257 86.6848C71.4173 86.6578 75.7823 85.9733 76.0375 82.8911C76.2424 80.4084 72.7628 78.6604 70.9997 78.0687Z" fill="#50231F"/>
<path d="M58.9486 90.4669C59.2297 91.744 59.838 92.9259 60.7138 93.8968C61.5895 94.8677 62.7026 95.5941 63.9438 96.0048C65.1176 96.3751 66.3649 96.4485 67.5741 96.2184C68.7832 95.9882 69.9164 95.4618 70.8722 94.6861C71.9625 93.8159 73.3195 92.2536 73.1146 90.7647C73.0956 90.6982 73.0617 90.6369 73.0155 90.5854C72.9693 90.5339 72.912 90.4936 72.848 90.4675C72.7839 90.4414 72.7147 90.4303 72.6457 90.4349C72.5767 90.4395 72.5097 90.4597 72.4496 90.494C71.8426 90.8807 71.4405 91.6271 70.965 92.1878C70.533 92.72 70.0295 93.1898 69.4687 93.5839C68.4413 94.2711 67.2243 94.6187 65.9891 94.5778C63.2827 94.4811 61.0673 92.3967 59.9229 90.057C59.6523 89.504 58.8133 89.9023 58.9525 90.4669H58.9486Z" fill="#50231F"/>
<path d="M65.3164 84.6081C64.9627 85.9154 64.6966 87.2448 64.5199 88.5875C64.2805 89.9381 64.3599 91.3259 64.7519 92.6403C64.8447 92.9033 65.2738 92.9574 65.3396 92.6403C65.8615 90.088 65.7455 87.4389 66.2636 84.8711C66.2985 84.7455 66.282 84.6111 66.2178 84.4976C66.1537 84.3841 66.047 84.3008 65.9214 84.2659C65.7958 84.231 65.6615 84.2475 65.548 84.3117C65.4346 84.3759 65.3512 84.4825 65.3164 84.6081V84.6081Z" fill="#50231F"/>
<path d="M79.2117 66.0881C79.7617 64.781 80.4541 63.5386 81.2763 62.3833C82.0728 61.3314 83.1167 60.2602 84.3693 59.9431C84.6484 59.8653 84.9392 59.8391 85.2277 59.8658C85.3359 59.8675 85.4436 59.8818 85.5485 59.9083C85.622 59.9276 85.9738 60.063 85.7728 59.9663C86.1657 60.1548 86.497 60.4512 86.7278 60.821C87.3987 61.9049 87.8163 63.1264 87.9495 64.3942C88.0265 65.0529 88.0703 65.715 88.081 66.3781C88.081 66.7223 88.081 66.9969 88.139 67.3836C88.1003 67.0704 88.139 67.2134 88.1196 67.3295C88.0964 67.4208 88.0808 67.5139 88.0732 67.6079C88.0587 67.7843 88.1051 67.9604 88.2047 68.1068C88.252 68.1834 88.3224 68.2431 88.4058 68.2771C88.4892 68.3112 88.5812 68.3179 88.6686 68.2963C89.0243 68.2266 89.1442 67.983 89.2988 67.693C89.4737 67.3759 89.6187 67.0431 89.7319 66.6991C89.9164 65.9719 89.9726 65.2181 89.8981 64.4716C89.8394 62.8504 89.3726 61.2702 88.541 59.8774C87.6711 58.5277 86.3527 57.7543 84.7212 57.9244C82.9002 58.1178 81.4503 59.2857 80.3793 60.7049C79.3084 62.1242 78.4307 64.0114 78.3882 65.8638C78.3882 66.2853 79.0339 66.5019 79.2195 66.0881H79.2117Z" fill="#50231F"/>
<path d="M63.1976 65.9721C63.853 64.6082 64.1574 63.1021 64.083 61.5906C64.056 60.0166 63.6964 58.3421 62.7298 57.066C61.7633 55.7898 60.1936 54.9158 58.5349 55.2755C56.9652 55.6196 55.5463 56.8649 54.5797 58.0985C53.934 58.8831 53.4124 59.7622 53.0332 60.705C52.8805 61.1125 52.7956 61.5423 52.7819 61.9773C52.7819 62.364 52.72 62.7508 53.0371 63.0369C53.103 63.0985 53.1865 63.1379 53.2759 63.1497C53.3653 63.1615 53.4562 63.145 53.5358 63.1027C53.8335 62.9325 53.8645 62.6928 54.0114 62.4104C54.1583 62.1281 54.3284 61.9193 54.4869 61.6602C54.8275 61.0756 55.1978 60.509 55.5966 59.9625C56.0352 59.3984 56.523 58.8742 57.0541 58.3963C57.2689 58.1979 57.499 58.0169 57.7423 57.8549C57.8931 57.7543 58.0439 57.6615 58.2024 57.5726C58.2604 57.5378 58.3223 57.5068 58.3841 57.4759C58.3841 57.4759 58.6818 57.3444 58.5117 57.4101C58.7748 57.3014 59.05 57.2247 59.3314 57.182C59.1149 57.2129 59.4899 57.182 59.5518 57.182C59.6136 57.182 59.7953 57.2168 59.5904 57.182C59.6755 57.1967 59.7595 57.2173 59.8417 57.2439C60.3265 57.3901 60.758 57.6751 61.0828 58.0637C61.4409 58.4917 61.7198 58.9802 61.9063 59.5062C62.1386 60.1613 62.3006 60.8393 62.3896 61.5287C62.5378 62.9277 62.5313 64.3387 62.3703 65.7362C62.3715 65.8336 62.4043 65.9279 62.4638 66.0049C62.5233 66.0819 62.6062 66.1375 62.7 66.1633C62.7939 66.189 62.8935 66.1836 62.984 66.1477C63.0745 66.1118 63.1508 66.0475 63.2015 65.9644L63.1976 65.9721Z" fill="#50231F"/>
<path d="M92.0246 57.7234C92.5349 57.2516 93.0221 56.7566 93.5711 56.3041L93.9577 55.9716L94.0582 55.8903C93.9925 55.9406 94.0582 55.8903 94.0814 55.8903L94.325 55.7124L94.4603 55.6042C94.5454 55.5384 94.4294 55.6235 94.4835 55.5848C94.5376 55.5462 94.6459 55.4727 94.7232 55.4108C94.8794 55.2905 95.0163 55.1471 95.1292 54.9854C95.157 54.9351 95.1733 54.8792 95.1768 54.8218C95.1804 54.7644 95.1711 54.7069 95.1496 54.6536C95.1281 54.6002 95.095 54.5524 95.0527 54.5134C95.0103 54.4745 94.9599 54.4455 94.9049 54.4285C94.1046 54.2855 93.3584 54.9313 92.7978 55.4417C92.2372 55.9522 91.8158 56.4975 91.3286 57.0234C91.2338 57.1178 91.1803 57.246 91.1799 57.3798C91.1796 57.5136 91.2324 57.6421 91.3267 57.7369C91.421 57.8318 91.5492 57.8853 91.683 57.8857C91.8167 57.886 91.9452 57.8332 92.04 57.7389L92.0246 57.7234Z" fill="#F6AB80"/>
<path d="M94.5763 60.3879C95.12 60.2558 95.6505 60.0746 96.1615 59.8465C96.4012 59.7434 96.6409 59.6351 96.8806 59.5217C96.9978 59.4636 97.1103 59.3963 97.217 59.3206C97.2957 59.2746 97.3663 59.2158 97.4257 59.1465C97.4711 59.081 97.5039 59.0076 97.5224 58.93C97.5372 58.871 97.5328 58.8088 97.5098 58.7525C97.4869 58.6962 97.4466 58.6486 97.3948 58.6167C97.3422 58.5785 97.2833 58.5497 97.2208 58.5317C97.1205 58.5066 97.0157 58.5066 96.9154 58.5317C96.7827 58.5503 96.6528 58.5854 96.5288 58.6361C96.2658 58.7444 96.0068 58.8681 95.7555 58.9919C95.5042 59.1156 95.2761 59.22 95.1021 59.2896C94.8491 59.3874 94.5909 59.4713 94.3288 59.541C94.2189 59.5717 94.1255 59.6446 94.0691 59.7438C94.0126 59.8431 93.9976 59.9606 94.0273 60.0708C94.0597 60.1797 94.1329 60.2718 94.2316 60.328C94.3303 60.3842 94.4468 60.4001 94.5569 60.3724L94.5763 60.3879Z" fill="#F6AB80"/>
<path d="M95.2065 64.8351C95.739 64.8318 96.2712 64.8641 96.7994 64.9318C97.0662 64.9705 97.3291 65.0285 97.592 65.0788C97.7273 65.1059 97.8626 65.102 97.9786 65.1175C98.0683 65.131 98.1595 65.131 98.2492 65.1175C98.3111 65.1175 98.3691 65.0865 98.431 65.0711C98.4777 65.0575 98.5202 65.032 98.5543 64.9972C98.5883 64.9623 98.6127 64.9192 98.6252 64.8721C98.6376 64.825 98.6377 64.7755 98.6253 64.7283C98.613 64.6812 98.5886 64.638 98.5547 64.6031C98.468 64.4832 98.3523 64.3874 98.2183 64.3247C98.0761 64.2493 97.9273 64.1872 97.7737 64.139C97.4887 64.0761 97.199 64.036 96.9076 64.0192C96.3361 63.9786 95.7625 63.9786 95.191 64.0192C95.0885 64.0192 94.9901 64.0599 94.9176 64.1324C94.8451 64.205 94.8044 64.3033 94.8044 64.4059C94.8044 64.5085 94.8451 64.6068 94.9176 64.6793C94.9901 64.7519 95.0885 64.7926 95.191 64.7926L95.2065 64.8351Z" fill="#F6AB80"/>
<path d="M56.2267 53.133C56.0837 52.6766 55.8981 52.2358 55.7667 51.7756C55.7357 51.6634 55.7087 51.5552 55.6739 51.443C55.6545 51.3889 55.6429 51.3347 55.6236 51.2806C55.6102 51.2355 55.5934 51.1916 55.5733 51.1491L55.5385 51.064C55.5385 51.037 55.5385 51.037 55.5385 51.064C55.5385 51.0911 55.5385 51.064 55.5385 51.0253C55.5326 50.9978 55.5248 50.9707 55.5153 50.9441C55.4967 50.8714 55.4639 50.803 55.4187 50.743C55.4187 50.743 55.3336 50.6193 55.3684 50.685C55.4032 50.7508 55.3684 50.658 55.3684 50.6464C55.3542 50.6134 55.336 50.5822 55.3143 50.5535C55.2648 50.4979 55.2075 50.4497 55.1442 50.4105C55.1015 50.3849 55.0528 50.3714 55.0031 50.3714C54.9534 50.3714 54.9046 50.3849 54.8619 50.4105C54.8131 50.4405 54.7666 50.4741 54.7228 50.511C54.672 50.5676 54.635 50.6351 54.6145 50.7082C54.6145 50.7082 54.5758 50.7933 54.6145 50.7508C54.6532 50.7082 54.5952 50.774 54.5913 50.7817C54.5533 50.8455 54.5296 50.9167 54.5217 50.9905C54.5159 51.0717 54.5159 51.1531 54.5217 51.2342C54.5241 51.5145 54.5764 51.7921 54.6764 52.054C54.8735 52.5529 55.1249 53.0247 55.3375 53.5158C55.3987 53.6231 55.497 53.7044 55.6139 53.7443C55.7308 53.7842 55.8582 53.7799 55.9722 53.7324C56.0862 53.6849 56.179 53.5974 56.2329 53.4863C56.2869 53.3751 56.2985 53.2481 56.2654 53.1291L56.2267 53.133Z" fill="#F6AB80"/>
<path d="M52.1865 55.8903C51.8696 55.6049 51.5761 55.2945 51.3089 54.9622C51.1735 54.7998 51.0343 54.6373 50.8874 54.4788C50.7189 54.2987 50.5308 54.1379 50.3268 53.9993C50.2054 53.8944 50.0573 53.8252 49.8991 53.7993C49.7408 53.7734 49.5784 53.7917 49.4298 53.8523C49.3412 53.9084 49.2739 53.9926 49.2388 54.0915C49.2038 54.1904 49.203 54.2982 49.2365 54.3976C49.2978 54.5496 49.3978 54.6829 49.5265 54.7843C49.8455 55.0473 50.1477 55.3302 50.4312 55.6312C50.7821 56.0112 51.1635 56.3617 51.5718 56.6792C51.6786 56.7383 51.8031 56.757 51.9227 56.7321C52.0422 56.7071 52.1488 56.6402 52.2232 56.5433C52.2976 56.4465 52.3348 56.3262 52.328 56.2042C52.3213 56.0823 52.2711 55.9668 52.1865 55.8787V55.8903Z" fill="#F6AB80"/>
<g style="mix-blend-mode:multiply">
<path d="M125.557 248.431C125.557 248.431 126.848 244.722 128.754 238.983C124.54 238.801 120.268 237.9 116.32 236.976C108.363 235.112 100.468 233.031 92.4962 231.175C84.8797 229.385 77.1703 227.849 69.3528 227.308C61.8986 226.801 54.2975 227.308 47.2106 229.81C41.1367 231.949 35.7587 235.375 30.9027 239.478C32.9518 244.335 34.3127 247.317 34.3127 247.317C35.5972 248.27 36.9865 249.073 38.4535 249.711C39.2616 257.565 44.4733 254.622 47.7326 253.648C48.7262 253.35 49.6657 249.138 50.5085 242.792L102.893 248.767C104.238 251.726 106.801 255.136 111.031 255.883C117.364 257 144.915 258.489 146.408 254.394C147.9 250.299 125.557 248.431 125.557 248.431Z" fill="#B69E99"/>
</g>
<path d="M157.017 225.34C157.017 225.34 158.32 240.607 140.821 243.214C123.322 245.82 79.0107 229.064 55.9252 229.806C32.8397 230.549 8.63293 269.638 8.63293 269.638C8.63293 269.638 21.6661 290.452 73.7951 297.204C122.576 303.534 149.922 299.242 167.629 282.679C181.966 269.271 181.884 254.916 179.36 245.062C175.637 230.553 157.017 225.34 157.017 225.34Z" fill="#EF7B43"/>
<path d="M107.927 299.973C111.526 298.573 114.716 296.879 116.046 294.856C111.654 293.36 105.607 294.323 100.902 293.445C96.1963 292.567 86.5963 291.983 83.3177 288.862C88.4391 289.157 93.5734 289.149 98.6939 288.839C103.488 288.422 108.186 287.247 112.612 285.359C102.058 284.102 89.6313 281.449 81.1719 277.423C86.0357 279.009 112.601 277.833 114.194 273.687C110.176 273.584 106.193 272.92 102.359 271.715C98.7403 270.605 92.1947 269.921 89.3607 267.883C95.6202 267.496 106.832 268.269 111.851 263.988C102.773 261.51 92.2256 259.506 83.3757 255.635C90.1765 255.879 108.506 252.383 111.855 249.811C106.38 246.025 96.1035 248.802 90.8492 244.273C96.4321 242.127 105.027 242.676 111.039 239.633C92.0439 235.429 70.0255 229.354 55.9213 229.806C32.8319 230.553 8.62909 269.638 8.62909 269.638C8.62909 269.638 21.6662 290.452 73.7951 297.204C86.577 298.878 97.8781 299.803 107.927 299.973Z" fill="#FEFADA"/>
<g style="mix-blend-mode:multiply">
<path d="M180.458 251.261C179.348 255.531 177.249 259.479 174.33 262.786C169.768 268.003 150.881 286.693 98.0057 288.882C93.1117 289.144 88.2071 289.138 83.3138 288.862C86.604 291.983 96.173 292.563 100.898 293.445C105.622 294.327 111.65 293.36 116.042 294.856C114.708 296.871 111.518 298.573 107.923 299.973C105.417 299.929 102.84 299.839 100.19 299.702C132.964 301.38 153.421 296.001 167.645 282.686C179.193 271.878 181.374 260.465 180.458 251.261Z" fill="#CBB9B6"/>
</g>
<g style="mix-blend-mode:multiply">
<g style="mix-blend-mode:multiply">
<path d="M116.05 294.856C111.657 293.36 105.611 294.323 100.905 293.445C96.2001 292.567 86.6002 291.983 83.3216 288.862C88.2148 289.138 93.1195 289.144 98.0134 288.882C96.6641 288.94 95.307 288.994 93.9113 289.025C78.4926 289.411 61.8444 285.699 46.9941 281.577C34.0266 277.98 22.8802 272.214 10.5815 266.703C9.34047 268.536 8.64841 269.65 8.64841 269.65C8.64841 269.65 21.6661 290.452 73.7951 297.204C75.3648 297.41 76.9113 297.602 78.4346 297.78C78.7632 297.823 79.0841 297.854 79.4128 297.892C80.619 298.035 81.8176 298.171 82.9929 298.279L83.801 298.36C85.0305 298.492 86.2522 298.615 87.4507 298.728L88.0268 298.782C89.2988 298.898 90.5592 299.01 91.8003 299.11L92.156 299.137C93.4667 299.246 94.758 299.339 96.0223 299.424H96.1808C97.5159 299.514 98.8305 299.591 100.124 299.656H100.159C102.822 299.795 105.399 299.885 107.892 299.926C111.526 298.573 114.731 296.871 116.05 294.856Z" fill="#DFD4D1"/>
</g>
</g>
<path d="M94.6265 47.1349C94.6375 47.2174 94.6787 47.293 94.742 47.3469C94.8054 47.4008 94.8865 47.4293 94.9697 47.4269C95.0529 47.4245 95.1322 47.3914 95.1924 47.3339C95.2525 47.2764 95.2892 47.1986 95.2954 47.1156C95.3594 46.0872 95.6303 45.0823 96.0919 44.1611L96.1189 44.1843C99.4155 45.9259 102.454 48.1177 105.147 50.6966C107.815 53.269 109.93 56.3587 111.364 59.7768C111.383 59.8263 111.414 59.8702 111.454 59.9047C111.494 59.9393 111.542 59.9634 111.594 59.9749C111.645 59.9864 111.699 59.9849 111.75 59.9706C111.801 59.9563 111.847 59.9296 111.886 59.8929C112.856 59.0111 113.482 57.8432 114.453 56.9538C115.128 56.3245 115.982 55.9194 116.896 55.7936C117.484 55.7163 118.443 56.0295 118.942 55.6351C119.904 54.8616 118.037 53.7015 117.511 53.3495C115.952 52.3662 114.215 51.6963 112.4 51.3773C114.426 50.4801 117.151 51.1491 119.166 50.1359C119.23 50.097 119.285 50.0437 119.325 49.9801C119.366 49.9165 119.391 49.8444 119.399 49.7694C119.407 49.6944 119.397 49.6187 119.371 49.5481C119.344 49.4774 119.302 49.4139 119.247 49.3625C117.758 48.2023 115.806 47.8156 113.954 47.6106C112.927 47.4902 111.895 47.4282 110.861 47.425C110.316 47.425 109.767 47.4637 109.218 47.4869C110.221 46.6373 111.351 45.9497 112.566 45.4488C114.141 44.7459 115.761 44.1477 117.414 43.6583C117.497 43.6334 117.57 43.5849 117.624 43.5187C117.679 43.4525 117.713 43.3717 117.722 43.2863C117.731 43.2009 117.715 43.1147 117.675 43.0385C117.636 42.9623 117.575 42.8994 117.499 42.8578C115.18 41.5739 112.574 41.4154 110.007 41.9374C108.456 42.3034 106.934 42.7802 105.452 43.3644C106.925 40.7889 109.318 38.9442 111.905 37.3973C112.462 37.0647 115.385 35.6958 113.973 34.7754C113.332 34.3577 112.183 34.5743 111.48 34.6516C110.084 34.8197 108.701 35.0781 107.339 35.4251C104.482 36.1226 101.786 37.3662 99.4014 39.0873C96.7607 40.9629 94.1626 43.7434 94.6265 47.1349ZM118.114 55.1555C118.114 55.2251 118.01 55.2948 118.114 55.1555V55.1555Z" fill="#ED6A30"/>
</svg>
