<svg width="232" height="385" viewBox="0 0 232 385" fill="none" xmlns="http://www.w3.org/2000/svg">
<path d="M97.094 48.3996C97.094 48.3996 99.2424 3.94735 89.2099 0.364175C79.1775 -3.219 66.6295 20.4389 62.6899 36.2108C58.7504 51.9828 58.0309 59.5362 58.0309 59.5362L97.094 48.3996Z" fill="#50231F"/>
<path d="M91.8694 48.3996C91.8694 48.3996 94.7372 12.2998 85.5234 10.3147C76.3096 8.32956 69.3881 28.0519 67.5722 34.3994C65.7562 40.7469 64.3173 52.8662 64.3173 52.8662L91.8694 48.3996Z" fill="#FEFADA"/>
<path d="M91.5915 39.3026C90.2079 35.7905 88.1593 32.5786 85.5582 29.8435C84.329 28.5248 83.0165 27.2865 81.6285 26.1362C80.919 25.5605 79.8324 24.5332 78.85 24.5382C76.6917 24.5382 78.8947 28.0568 79.2668 28.8013C80.9885 32.2752 82.2884 35.918 82.09 39.7195C80.8935 38.0553 79.5786 36.4797 78.1554 35.0048C75.744 32.6574 72.8067 31.0345 69.4278 30.7963C69.3181 30.7881 69.2084 30.8127 69.1127 30.867C69.0169 30.9212 68.9394 31.0026 68.89 31.101C68.8406 31.1993 68.8215 31.3101 68.8351 31.4193C68.8487 31.5285 68.8944 31.6312 68.9664 31.7144C70.4044 33.3939 71.7304 35.1661 72.9357 37.0197C73.8987 38.3952 74.6419 39.9121 75.1387 41.5161C74.5631 41.1091 73.9975 40.6922 73.4071 40.3101C72.2868 39.5998 71.1273 38.9536 69.9339 38.3746C67.7855 37.3175 65.4138 36.3895 62.9876 36.5929C62.8914 36.6099 62.8004 36.649 62.7219 36.7071C62.6433 36.7653 62.5794 36.8409 62.5351 36.9281C62.4909 37.0152 62.4675 37.1114 62.4668 37.2092C62.4661 37.3069 62.4881 37.4035 62.5311 37.4912C64.0196 39.9726 67.4084 41.1538 68.9813 43.526C66.7999 42.6096 64.4604 42.1291 62.0945 42.1116C61.2957 42.1116 58.4725 42.0719 58.9687 43.6005C59.2217 44.3648 60.4869 44.7022 61.0674 45.1886C61.9676 45.969 62.6038 47.0093 62.8884 48.1663C63.32 49.7941 63.1861 51.4964 63.6227 53.1291C63.6377 53.1958 63.6692 53.2577 63.7144 53.309C63.7596 53.3602 63.817 53.3993 63.8813 53.4226C63.9456 53.4458 64.0147 53.4525 64.0822 53.442C64.1497 53.4314 64.2135 53.4041 64.2677 53.3624C68.1872 50.6692 72.6134 48.8017 77.2772 47.8735C81.974 46.9612 86.7745 46.704 91.5419 47.1092C91.5419 47.1092 91.5717 47.1092 91.5866 47.1092C91.4443 48.4253 91.0394 49.6995 90.3958 50.8562C90.3632 50.9028 90.3401 50.9553 90.3278 51.0108C90.3156 51.0664 90.3143 51.1238 90.3242 51.1798C90.3342 51.2357 90.355 51.2892 90.3856 51.3372C90.4161 51.3851 90.4558 51.4266 90.5024 51.4591C90.549 51.4917 90.6016 51.5148 90.6571 51.5271C90.7126 51.5394 90.77 51.5406 90.8259 51.5307C90.8819 51.5208 90.9354 51.4999 90.9833 51.4693C91.0313 51.4388 91.0727 51.399 91.1053 51.3524C94.0029 47.9579 93.1247 43.1538 91.5915 39.3026ZM60.2339 43.665C60.2339 43.8834 60.1942 43.7394 60.2339 43.665V43.665Z" fill="#ED6A30"/>
<path d="M118.36 53.422C118.36 53.422 131.26 37.6501 149.539 29.4068C167.817 21.1635 173.191 20.4439 172.114 33.7096C171.038 46.9752 159.571 72.7821 154.555 78.1767C149.539 83.5713 145.956 87.4969 145.956 87.4969L118.36 53.422Z" fill="#50231F"/>
<path d="M125.167 57.7248C125.167 57.7248 134.842 46.613 150.615 37.2928C166.388 27.9725 168.889 33.0148 167.083 40.876C165.277 48.7371 155.617 67.0451 150.6 73.4968C145.584 79.9485 141.282 82.817 141.282 82.817L125.167 57.7248Z" fill="#FEFADA"/>
<path d="M172.114 267.673C172.114 267.673 177.85 276.755 189.798 283.922C201.745 291.088 215.598 291.569 221.334 303.996C227.069 316.423 182.137 338.409 160.171 326.463C138.206 314.518 142.012 296.825 146.314 286.79C150.615 276.755 172.114 267.673 172.114 267.673Z" fill="#ED6A30"/>
<g style="mix-blend-mode:multiply">
<path d="M172.114 267.673C172.114 267.673 177.85 276.755 189.798 283.922C201.745 291.088 215.598 291.569 221.334 303.996C227.069 316.423 182.137 338.409 160.171 326.463C138.206 314.518 142.012 296.825 146.314 286.79C150.615 276.755 172.114 267.673 172.114 267.673Z" fill="#B69E99"/>
</g>
<path d="M35.4504 73.859C35.4504 73.859 64.8383 45.536 82.0404 43.3871C99.2424 41.2382 125.048 49.8388 132.218 55.9332C139.387 62.0276 151.568 83.8939 152.645 89.9883C153.721 96.0827 104.264 116.157 85.6276 113.289C66.9917 110.42 35.4504 73.859 35.4504 73.859Z" fill="#ED6A30"/>
<path d="M124.81 113.289C124.81 113.289 125.306 132.887 128.63 151.046C131.955 169.205 144.403 187.856 149.658 206.491C154.912 225.127 149.658 283.912 148.224 300.651C146.79 317.391 132.456 319.292 132.456 319.292L61.256 311.168C61.256 311.168 56.4779 198.367 55.044 181.141C53.6101 163.915 51.2186 145.771 54.5479 136.212C57.8771 126.654 63.1514 110.405 63.1514 110.405L124.81 113.289Z" fill="#ED6A30"/>
<g style="mix-blend-mode:multiply">
<path d="M150.779 212.089C150.527 210.201 150.152 208.331 149.658 206.491C144.403 187.856 131.979 169.21 128.63 151.046C127.638 145.756 126.928 140.341 126.383 135.329C126.303 140.292 126.383 145.255 126.74 150.193C127.236 157.141 131.994 183.166 132.575 190C133.651 202.729 129.97 236.154 129.35 236.963C129.35 236.963 120.27 314.632 120.746 317.977C121.064 320.2 126.973 323.436 133.284 325.753C132.806 320.02 132.641 314.264 132.788 308.512C133.085 295.479 134.099 282.471 135.825 269.549C136.37 265.549 136.981 261.524 137.695 257.514C137.889 258.125 138.067 258.74 138.281 259.341C140.774 266.416 144.796 272.855 150.06 278.199C151.454 258.879 152.769 233.494 151.37 217.156C152.635 214.973 153.984 212.834 155.433 210.774C158.872 205.866 163.01 201.032 168.061 197.662C163.223 200.034 156.907 205.722 150.779 212.089Z" fill="#B69E99"/>
</g>
<path d="M55.9966 231.826C55.9966 231.826 38.7946 203.623 26.8519 209.836C14.9092 216.05 15.8618 238.04 23.9841 264.805C32.1063 291.569 44.0341 317.386 44.0341 317.386C44.0341 317.386 54.5429 325.51 57.892 318.82C61.2411 312.13 55.9966 231.826 55.9966 231.826Z" fill="#ED6A30"/>
<g style="mix-blend-mode:multiply">
<path d="M55.9966 231.827C55.9966 231.827 48.8122 220.055 40.5014 213.399C41.2448 218.095 41.6345 222.839 41.6674 227.593C41.8113 236.318 41.1712 245.033 40.4171 253.718C39.643 262.73 39.0476 271.758 38.3034 280.78C37.8072 287.063 37.1523 293.336 36.4428 299.604C40.7545 310.249 44.0341 317.386 44.0341 317.386C44.0341 317.386 54.5429 325.51 57.892 318.82C61.2411 312.13 55.9966 231.827 55.9966 231.827Z" fill="#B69E99"/>
</g>
<path d="M142.012 221.31C142.012 221.31 160.648 196.456 172.114 196.456C183.581 196.456 187.887 208.863 185.511 232.303C183.134 255.743 161.129 318.815 161.129 318.815C161.129 318.815 189.802 321.202 187.892 326.463C185.982 331.724 150.62 329.808 142.493 328.374C134.366 326.94 131.022 317.882 130.545 314.513C130.069 311.143 142.012 221.31 142.012 221.31Z" fill="#ED6A30"/>
<path d="M67.9443 113.289C63.8807 122.664 58.6065 131.244 55.9818 141.25C53.3918 151.111 53.5009 161.101 54.3246 171.106C55.6239 187.42 57.7769 203.654 60.7747 219.742C63.5681 234.338 65.915 249.023 68.4702 263.574C69.5866 269.931 70.4003 276.065 71.3926 282.378C72.0823 286.755 72.2113 295.133 74.7566 298.726C78.3935 303.857 89.5821 302.696 95.6353 303.505C101.292 304.279 107.077 304.602 112.793 305.262C112.406 298.989 114.281 292.636 114.281 286.19C114.281 278.05 113.988 269.812 114.777 261.792C116.142 247.534 117.372 233.176 118.017 218.903C119.402 188.402 119.243 155.875 104.278 128.232C97.3669 115.468 81.7278 102.921 67.9493 114.232" fill="#FEFADA"/>
<path d="M56.4779 132.887C56.4779 132.887 56.9741 150.982 60.8988 164.55C66.2722 183.191 68.9019 206.491 69.3782 229.434C69.8546 252.378 66.0341 324.071 61.256 325.505C56.4779 326.939 48.3557 331.719 49.3084 314.989C50.261 298.259 49.3084 235.648 49.3084 217.484C49.3084 199.32 43.5727 171.602 46.4405 157.741C49.3084 143.88 56.4779 132.887 56.4779 132.887Z" fill="#ED6A30"/>
<path d="M86.5803 110.897C86.5803 110.897 105.698 144.356 109.994 173.513C114.291 202.67 112.386 219.395 113.82 240.904C115.254 262.413 107.608 320.25 108.56 327.897C109.513 335.545 119.074 335.545 120.965 328.394C122.855 321.242 133.369 251.916 133.865 225.628C134.361 199.34 127.678 158.694 122.428 143.88C117.179 129.066 105.216 99.9041 86.5803 110.897Z" fill="#ED6A30"/>
<path d="M68.113 260.502C68.0735 260.56 68.022 260.61 67.9619 260.647C67.9019 260.684 67.8346 260.707 67.7647 260.716C67.6947 260.725 67.6237 260.719 67.5562 260.698C67.4888 260.678 67.4266 260.643 67.3737 260.596C66.3814 259.37 65.6074 258.403 65.3047 257.023C64.422 258.414 63.4263 259.73 62.3277 260.958C62.2581 261.017 62.1739 261.055 62.084 261.069C61.9942 261.083 61.9023 261.072 61.8183 261.037C61.7344 261.002 61.6616 260.945 61.6079 260.872C61.5542 260.798 61.5218 260.712 61.514 260.621C61.514 259.544 61.3751 258.472 61.385 257.4C59.961 259.127 58.7652 261.043 57.3363 262.78C57.2753 262.849 57.1962 262.9 57.1079 262.927C57.0196 262.953 56.9256 262.955 56.8365 262.931C56.7473 262.908 56.6665 262.86 56.6032 262.792C56.5398 262.725 56.4965 262.642 56.4779 262.551C55.6642 259.112 55.4856 255.539 55.0837 252.015C54.0827 256.471 52.2459 260.696 49.6705 264.467C49.8045 285.247 49.8243 306.304 49.3282 314.989C48.3706 331.719 56.4978 326.939 61.2758 325.505C64.6547 324.513 67.5523 288.368 68.7927 259.177C68.5595 259.623 68.3462 260.07 68.113 260.502Z" fill="#5E322E"/>
<path d="M129.077 253.653C127.846 255.857 126.933 258.239 125.807 260.497C125.761 260.561 125.701 260.612 125.631 260.648C125.561 260.684 125.484 260.702 125.405 260.702C125.327 260.702 125.249 260.684 125.18 260.648C125.11 260.612 125.049 260.561 125.003 260.497C124.28 259.383 123.84 258.108 123.723 256.785C123.22 258.425 122.612 260.032 121.902 261.594C121.86 261.674 121.797 261.741 121.72 261.788C121.642 261.834 121.554 261.859 121.463 261.859C121.373 261.859 121.284 261.834 121.207 261.788C121.129 261.741 121.066 261.674 121.024 261.594C119.774 259.112 119.6 256.313 118.796 253.698C118.337 255.636 117.645 257.513 116.737 259.286C115.875 261.134 114.734 262.838 113.353 264.338C111.771 289.793 107.861 322.294 108.56 327.897C109.518 335.545 119.074 335.545 120.964 328.394C122.289 323.431 127.742 288.626 131.126 258.973C129.815 257.51 129.086 255.618 129.077 253.653Z" fill="#5E322E"/>
<g style="mix-blend-mode:multiply">
<path d="M58.9538 125.547C61.6976 127.349 63.9154 129.8 65.8555 132.421C69.5221 137.383 72.2758 143.016 76.6222 147.438C78.855 149.706 81.6186 151.845 84.8239 152.431C88.297 153.071 91.8892 151.84 94.9754 150.267C101.689 146.843 107.092 141.453 113.512 137.582C117.131 135.378 121.126 133.864 125.296 133.115C125.569 133.066 125.852 133.031 126.135 132.991C125.018 121.909 124.81 113.309 124.81 113.309L63.1662 110.435C63.1662 110.435 60.8541 117.582 58.3237 125.185C58.5321 125.294 58.7454 125.413 58.9538 125.547Z" fill="#CBB9B6"/>
</g>
<path d="M77.7386 106.465C75.1337 100.758 68.5199 95.9437 64.496 91.0801C59.832 85.4225 53.9028 81.3331 47.8149 77.2983C38.9385 71.4124 30.5979 68.4843 17.1816 68.127C12.6368 68.0029 -1.23601 72.7623 0.0887549 75.8144C2.30661 80.9212 13.1677 78.7921 20.0048 80.7425C16.6309 82.2562 13.0585 83.1346 10.017 84.2761C5.08514 86.1421 2.91194 88.8468 1.47802 91.8742C-0.858919 96.7874 4.89163 95.7303 8.2854 95.7303C12.2547 95.7303 16.2637 94.9859 20.1189 95.0653C17.7423 97.2489 13.4207 99.9041 10.3445 102.281C7.08468 104.797 4.93629 108.793 4.9611 111.413C5.02064 118.257 19.6029 114.207 23.6417 113.398C37.4004 110.584 47.542 114.162 59.1969 121.195C61.9308 122.847 64.9723 124.381 67.339 126.555C69.5866 128.619 71.0205 131.443 73.2483 133.542C77.8924 137.929 83.0873 139.706 89.2794 138.505C101.515 136.083 112.47 128.699 124.413 125.433C129.871 123.944 136.217 123.254 141.714 124.837C147.812 126.599 155.924 139.185 160.494 134.788C164.637 130.818 159.095 122.296 155.478 118.411C163.416 120.485 169.182 130.882 174.332 126.599C179.204 122.555 173.965 115.284 168.839 112.088C175.935 112.237 180.43 117.418 185.446 116.872C189.788 116.376 188.85 108.629 187.952 105.641C185.059 96.0529 178.232 88.7674 168.299 87.0553C157.492 85.1942 146.418 88.0478 136.018 91.0255C124.795 94.2663 113.458 97.3234 102.463 101.194C95.1738 103.76 83.8315 109.373 76.3047 105.051" fill="#FEFADA"/>
<path d="M91.1152 100.187C88.8378 99.4227 86.4314 99.2341 84.0498 99.0505L81.1522 98.8222C79.3759 98.6882 77.5451 98.5542 75.8581 99.1845C74.1712 99.8147 72.6579 101.408 72.5834 103.353C72.5803 104.037 72.7184 104.714 72.9891 105.341C73.2597 105.969 73.6571 106.534 74.1563 107.001C75.1222 107.871 76.2478 108.545 77.4707 108.986C81.1114 110.506 85.0218 111.274 88.9668 111.244C91.651 111.209 97.2528 110.331 97.5802 106.376C97.8432 103.189 93.3777 100.946 91.1152 100.187Z" fill="#50231F"/>
<path d="M75.6497 116.098C76.0105 117.737 76.7912 119.253 77.915 120.499C79.0389 121.745 80.4674 122.678 82.0602 123.205C83.5666 123.68 85.1673 123.774 86.719 123.479C88.2707 123.183 89.7249 122.508 90.9515 121.512C92.3507 120.396 94.0922 118.391 93.8292 116.48C93.8048 116.395 93.7613 116.316 93.7021 116.25C93.6428 116.184 93.5692 116.132 93.487 116.099C93.4048 116.065 93.3161 116.051 93.2275 116.057C93.139 116.063 93.0529 116.088 92.9758 116.133C92.1969 116.629 91.6808 117.587 91.0706 118.306C90.5162 118.989 89.87 119.592 89.1504 120.098C87.8319 120.98 86.2701 121.426 84.6849 121.373C81.2118 121.249 78.3687 118.574 76.9001 115.572C76.5528 114.862 75.4761 115.373 75.6547 116.098H75.6497Z" fill="#50231F"/>
<path d="M83.8216 108.579C83.3677 110.257 83.0263 111.963 82.7995 113.686C82.4922 115.419 82.5942 117.2 83.0972 118.887C83.2163 119.224 83.767 119.294 83.8514 118.887C84.5212 115.611 84.3723 112.212 85.0372 108.917C85.0819 108.755 85.0608 108.583 84.9785 108.437C84.8961 108.292 84.7593 108.185 84.5981 108.14C84.4369 108.095 84.2645 108.116 84.1189 108.199C83.9733 108.281 83.8663 108.418 83.8216 108.579Z" fill="#50231F"/>
<path d="M101.654 84.812C102.36 83.1346 103.248 81.5402 104.303 80.0576C105.325 78.7077 106.665 77.333 108.273 76.926C108.631 76.8262 109.004 76.7926 109.374 76.8268C109.513 76.829 109.651 76.8474 109.786 76.8814C109.88 76.9062 110.332 77.0799 110.074 76.9558C110.578 77.1977 111.003 77.5781 111.299 78.0526C112.16 79.4436 112.696 81.0112 112.867 82.6383C112.966 83.4836 113.022 84.3333 113.036 85.1842C113.036 85.6259 113.036 85.9783 113.11 86.4746C113.061 86.0726 113.11 86.2562 113.085 86.4051C113.056 86.5223 113.036 86.6418 113.026 86.7624C113.007 86.9888 113.067 87.2148 113.195 87.4026C113.255 87.501 113.346 87.5775 113.453 87.6212C113.56 87.6649 113.678 87.6735 113.79 87.6458C114.246 87.5565 114.4 87.2438 114.599 86.8716C114.823 86.4646 115.009 86.0376 115.154 85.5961C115.391 84.6629 115.463 83.6956 115.368 82.7375C115.292 80.657 114.693 78.6291 113.626 76.8417C112.51 75.1096 110.818 74.1171 108.724 74.3354C106.387 74.5836 104.527 76.0824 103.152 77.9037C101.778 79.7251 100.652 82.147 100.597 84.5242C100.597 85.0651 101.426 85.343 101.664 84.812H101.654Z" fill="#50231F"/>
<path d="M81.1026 84.6632C81.9437 82.9128 82.3343 80.98 82.2388 79.0402C82.2041 77.0204 81.7427 74.8714 80.5023 73.2337C79.2618 71.596 77.2474 70.4744 75.1189 70.9359C73.1044 71.3776 71.2835 72.9756 70.0431 74.5588C69.2144 75.5657 68.5451 76.6938 68.0584 77.9037C67.8624 78.4267 67.7534 78.9783 67.7359 79.5365C67.7359 80.0328 67.6565 80.5291 68.0634 80.8963C68.148 80.9753 68.2552 81.0259 68.3699 81.041C68.4847 81.0562 68.6013 81.0351 68.7035 80.9807C69.0855 80.7624 69.1252 80.4547 69.3137 80.0924C69.5023 79.7301 69.7206 79.4621 69.924 79.1296C70.361 78.3794 70.8363 77.6522 71.348 76.9509C71.9109 76.2269 72.5369 75.5543 73.2186 74.9409C73.4941 74.6863 73.7894 74.454 74.1017 74.2461C74.2952 74.1171 74.4887 73.998 74.6922 73.8838C74.7666 73.8392 74.846 73.7995 74.9254 73.7598C74.9254 73.7598 75.3074 73.591 75.0891 73.6754C75.4267 73.5358 75.7798 73.4375 76.141 73.3826C75.8631 73.4223 76.3444 73.3826 76.4238 73.3826C76.5032 73.3826 76.7364 73.4273 76.4734 73.3826C76.5826 73.4014 76.6904 73.428 76.7959 73.462C77.4181 73.6497 77.9717 74.0155 78.3886 74.5141C78.8482 75.0634 79.206 75.6903 79.4454 76.3653C79.7435 77.2061 79.9514 78.0761 80.0656 78.9608C80.2558 80.7561 80.2475 82.5669 80.0408 84.3604C80.0424 84.4853 80.0845 84.6063 80.1608 84.7052C80.2372 84.804 80.3436 84.8754 80.464 84.9084C80.5844 84.9415 80.7124 84.9345 80.8285 84.8884C80.9445 84.8424 81.0425 84.7598 81.1076 84.6532L81.1026 84.6632Z" fill="#50231F"/>
<path d="M118.097 74.0774C118.752 73.4719 119.377 72.8367 120.081 72.256L120.578 71.8292L120.707 71.725C120.622 71.7895 120.707 71.725 120.736 71.725L121.049 71.4967L121.223 71.3578C121.332 71.2734 121.183 71.3826 121.252 71.333C121.322 71.2833 121.461 71.189 121.56 71.1096C121.76 70.9553 121.936 70.7712 122.081 70.5637C122.117 70.4991 122.138 70.4274 122.142 70.3537C122.147 70.2801 122.135 70.2063 122.107 70.1379C122.079 70.0694 122.037 70.008 121.983 69.958C121.928 69.908 121.864 69.8708 121.793 69.8491C120.766 69.6654 119.808 70.4942 119.089 71.1493C118.37 71.8044 117.829 72.5042 117.204 73.1791C117.082 73.3002 117.013 73.4647 117.013 73.6364C117.012 73.8082 117.08 73.973 117.201 74.0948C117.322 74.2165 117.487 74.2852 117.658 74.2857C117.83 74.2861 117.995 74.2184 118.117 74.0973L118.097 74.0774Z" fill="#F6AB80"/>
<path d="M121.371 77.4968C122.069 77.3274 122.75 77.0948 123.406 76.802C123.713 76.6697 124.021 76.5307 124.329 76.3852C124.479 76.3106 124.623 76.2243 124.76 76.1271C124.861 76.0681 124.952 75.9926 125.028 75.9038C125.086 75.8196 125.128 75.7254 125.152 75.6259C125.171 75.5501 125.165 75.4704 125.136 75.3981C125.107 75.3258 125.055 75.2648 124.988 75.2239C124.921 75.1748 124.845 75.1379 124.765 75.1147C124.636 75.0825 124.502 75.0825 124.373 75.1147C124.203 75.1387 124.036 75.1837 123.877 75.2487C123.54 75.3876 123.207 75.5465 122.885 75.7053C122.562 75.8641 122.269 75.9981 122.046 76.0874C121.721 76.2128 121.39 76.3205 121.054 76.41C120.913 76.4494 120.793 76.543 120.72 76.6703C120.648 76.7976 120.629 76.9484 120.667 77.0899C120.708 77.2296 120.802 77.3478 120.929 77.4199C121.056 77.492 121.205 77.5125 121.347 77.477L121.371 77.4968Z" fill="#F6AB80"/>
<path d="M122.18 83.2041C122.864 83.1998 123.546 83.2413 124.224 83.3281C124.567 83.3778 124.904 83.4522 125.241 83.5167C125.415 83.5514 125.589 83.5465 125.738 83.5663C125.853 83.5837 125.97 83.5837 126.085 83.5663C126.164 83.5663 126.239 83.5266 126.318 83.5068C126.378 83.4894 126.433 83.4567 126.476 83.412C126.52 83.3672 126.551 83.3119 126.567 83.2515C126.583 83.191 126.583 83.1274 126.568 83.067C126.552 83.0065 126.52 82.9511 126.477 82.9063C126.366 82.7524 126.217 82.6294 126.045 82.5489C125.863 82.4523 125.672 82.3725 125.475 82.3107C125.109 82.23 124.737 82.1785 124.363 82.1569C123.63 82.1048 122.894 82.1048 122.16 82.1569C122.029 82.1569 121.902 82.2092 121.809 82.3022C121.716 82.3953 121.664 82.5215 121.664 82.6532C121.664 82.7848 121.716 82.911 121.809 83.0041C121.902 83.0972 122.029 83.1495 122.16 83.1495L122.18 83.2041Z" fill="#F6AB80"/>
<path d="M72.1567 68.1864C71.9732 67.6008 71.735 67.0351 71.5663 66.4445C71.5266 66.3006 71.4919 66.1616 71.4472 66.0177C71.4224 65.9482 71.4075 65.8787 71.3827 65.8092C71.3656 65.7514 71.344 65.695 71.3182 65.6405L71.2736 65.5313C71.2736 65.4966 71.2736 65.4966 71.2736 65.5313C71.2736 65.5661 71.2736 65.5313 71.2736 65.4817C71.2659 65.4463 71.256 65.4115 71.2438 65.3775C71.2199 65.2841 71.1777 65.1964 71.1197 65.1194C71.1197 65.1194 71.0106 64.9606 71.0553 65.0449C71.0999 65.1293 71.0553 65.0102 71.0553 64.9953C71.037 64.953 71.0136 64.913 70.9858 64.8762C70.9222 64.8048 70.8487 64.743 70.7675 64.6926C70.7128 64.6598 70.6502 64.6425 70.5864 64.6425C70.5226 64.6425 70.46 64.6598 70.4053 64.6926C70.3426 64.7311 70.2829 64.7743 70.2267 64.8216C70.1615 64.8942 70.114 64.9808 70.0877 65.0747C70.0877 65.0747 70.0381 65.1839 70.0877 65.1293C70.1373 65.0747 70.0629 65.1591 70.058 65.169C70.0092 65.2509 69.9787 65.3423 69.9687 65.437C69.9612 65.5411 69.9612 65.6456 69.9687 65.7497C69.9717 66.1094 70.0389 66.4657 70.1671 66.8018C70.4202 67.442 70.7427 68.0475 71.0156 68.6778C71.0941 68.8155 71.2202 68.9197 71.3702 68.9709C71.5203 69.0221 71.6838 69.0167 71.8301 68.9557C71.9764 68.8948 72.0954 68.7824 72.1647 68.6398C72.234 68.4972 72.2488 68.3342 72.2064 68.1815L72.1567 68.1864Z" fill="#F6AB80"/>
<path d="M66.9718 71.725C66.5652 71.3587 66.1885 70.9604 65.8455 70.5339C65.6719 70.3255 65.4932 70.117 65.3047 69.9136C65.0884 69.6825 64.8471 69.4761 64.5853 69.2982C64.4294 69.1636 64.2394 69.0748 64.0363 69.0415C63.8332 69.0083 63.6248 69.0318 63.4342 69.1096C63.3204 69.1815 63.234 69.2896 63.189 69.4165C63.1441 69.5434 63.143 69.6818 63.1861 69.8093C63.2647 70.0044 63.393 70.1755 63.5582 70.3056C63.9676 70.6432 64.3554 71.0062 64.7192 71.3925C65.1695 71.8801 65.659 72.3299 66.1829 72.7374C66.3201 72.8132 66.4799 72.8372 66.6332 72.8052C66.7866 72.7732 66.9235 72.6873 67.0189 72.563C67.1144 72.4387 67.1621 72.2843 67.1534 72.1278C67.1448 71.9713 67.0804 71.8231 66.9718 71.7101V71.725Z" fill="#F6AB80"/>
<g style="mix-blend-mode:multiply">
<path d="M161.129 318.815C161.129 318.815 162.786 314.056 165.232 306.691C159.824 306.458 154.342 305.302 149.276 304.115C139.065 301.723 128.933 299.053 118.702 296.671C108.928 294.373 99.034 292.403 89.0016 291.708C79.4355 291.058 69.6809 291.708 60.5862 294.919C52.7914 297.664 45.8898 302.061 39.6579 307.326C42.2876 313.56 44.0341 317.386 44.0341 317.386C45.6825 318.609 47.4654 319.64 49.348 320.458C50.385 330.538 57.0733 326.761 61.256 325.51C62.5312 325.128 63.7368 319.724 64.8185 311.58L132.044 319.247C133.771 323.044 137.06 327.421 142.488 328.379C150.615 329.813 185.972 331.724 187.887 326.468C189.802 321.212 161.129 318.815 161.129 318.815Z" fill="#B69E99"/>
</g>
<path d="M201.502 289.182C201.502 289.182 203.174 308.776 180.718 312.12C158.261 315.465 101.396 293.961 71.7697 294.914C42.1437 295.867 11.0788 346.032 11.0788 346.032C11.0788 346.032 27.8045 372.742 94.7025 381.407C157.304 389.531 192.397 384.022 215.122 362.766C233.52 345.56 233.415 327.138 230.175 314.493C225.397 295.872 201.502 289.182 201.502 289.182Z" fill="#EF7B43"/>
<path d="M138.504 384.96C143.123 383.164 147.217 380.99 148.923 378.394C143.287 376.474 135.527 377.71 129.489 376.583C123.45 375.456 111.131 374.707 106.923 370.702C113.495 371.08 120.084 371.07 126.656 370.672C132.808 370.137 138.837 368.629 144.517 366.206C130.972 364.593 115.025 361.188 104.169 356.022C110.411 358.057 144.503 356.548 146.547 351.228C141.391 351.095 136.279 350.243 131.359 348.697C126.715 347.272 118.315 346.394 114.678 343.778C122.711 343.282 137.1 344.275 143.54 338.781C131.89 335.6 118.355 333.029 106.997 328.061C115.725 328.374 139.248 323.887 143.545 320.587C136.519 315.728 123.331 319.292 116.588 313.48C123.753 310.726 134.783 311.431 142.498 307.525C118.121 302.13 89.8649 294.334 71.7648 294.914C42.1338 295.872 11.0738 346.032 11.0738 346.032C11.0738 346.032 27.8045 372.742 94.7025 381.407C111.106 383.556 125.609 384.742 138.504 384.96Z" fill="#FEFADA"/>
<g style="mix-blend-mode:multiply">
<path d="M231.585 322.448C230.16 327.927 227.466 332.994 223.72 337.237C217.866 343.932 193.628 367.918 125.772 370.727C119.492 371.064 113.198 371.055 106.918 370.702C111.14 374.707 123.421 375.451 129.484 376.583C135.547 377.714 143.282 376.474 148.918 378.394C147.207 380.98 143.113 383.164 138.499 384.96C135.284 384.904 131.976 384.788 128.576 384.613C170.636 386.767 196.888 379.863 215.142 362.776C229.962 348.905 232.76 334.26 231.585 322.448Z" fill="#CBB9B6"/>
</g>
<g style="mix-blend-mode:multiply">
<g style="mix-blend-mode:multiply">
<path d="M148.928 378.394C143.292 376.474 135.532 377.709 129.494 376.583C123.455 375.456 111.135 374.707 106.928 370.702C113.208 371.055 119.502 371.064 125.782 370.727C124.051 370.801 122.309 370.871 120.518 370.91C100.731 371.407 79.366 366.642 60.3083 361.352C43.6669 356.736 29.3625 349.337 13.5795 342.265C11.9868 344.617 11.0986 346.046 11.0986 346.046C11.0986 346.046 27.8045 372.742 94.7025 381.407C96.7169 381.671 98.7016 381.918 100.656 382.146C101.078 382.201 101.49 382.241 101.912 382.29C103.46 382.474 104.998 382.647 106.506 382.786L107.543 382.891C109.121 383.059 110.689 383.218 112.227 383.362L112.966 383.432C114.599 383.581 116.216 383.724 117.809 383.853L118.265 383.888C119.947 384.027 121.605 384.146 123.227 384.255H123.43C125.144 384.371 126.831 384.471 128.491 384.553H128.536C131.953 384.732 135.261 384.848 138.459 384.901C143.123 383.164 147.236 380.98 148.928 378.394Z" fill="#DFD4D1"/>
</g>
</g>
<path d="M121.436 60.4891C121.45 60.5949 121.503 60.6918 121.584 60.761C121.665 60.8302 121.77 60.8668 121.876 60.8637C121.983 60.8606 122.085 60.8181 122.162 60.7443C122.239 60.6705 122.286 60.5707 122.294 60.4642C122.376 59.1445 122.724 57.8548 123.316 56.6726L123.351 56.7024C127.582 58.9375 131.481 61.7503 134.937 65.0598C138.361 68.361 141.075 72.3261 142.915 76.7126C142.939 76.776 142.979 76.8324 143.03 76.8767C143.082 76.9211 143.144 76.952 143.21 76.9667C143.276 76.9815 143.345 76.9796 143.41 76.9612C143.476 76.9429 143.536 76.9086 143.585 76.8615C144.83 75.73 145.634 74.2312 146.879 73.0897C147.746 72.2822 148.841 71.7622 150.015 71.6009C150.769 71.5016 152 71.9036 152.64 71.3974C153.875 70.4048 151.479 68.916 150.804 68.4643C148.803 67.2024 146.575 66.3427 144.245 65.9333C146.844 64.7819 150.342 65.6405 152.927 64.3402C153.01 64.2903 153.08 64.2219 153.132 64.1402C153.184 64.0586 153.217 63.9661 153.227 63.8699C153.237 63.7737 153.224 63.6765 153.191 63.5858C153.157 63.4952 153.102 63.4137 153.032 63.3477C151.121 61.8588 148.616 61.3625 146.239 61.0995C144.922 60.945 143.596 60.8654 142.27 60.8613C141.57 60.8613 140.866 60.9109 140.161 60.9407C141.449 59.8504 142.898 58.968 144.458 58.3253C146.479 57.4231 148.558 56.6555 150.68 56.0275C150.785 55.9955 150.879 55.9332 150.949 55.8483C151.02 55.7633 151.063 55.6596 151.075 55.55C151.087 55.4404 151.066 55.3298 151.015 55.232C150.964 55.1342 150.885 55.0536 150.789 55.0001C147.812 53.3525 144.468 53.149 141.173 53.819C139.184 54.2886 137.23 54.9006 135.328 55.6503C137.219 52.345 140.29 49.9777 143.609 47.9926C144.324 47.5658 148.075 45.8089 146.264 44.6278C145.44 44.0918 143.967 44.3697 143.064 44.469C141.273 44.6847 139.498 45.0163 137.75 45.4615C134.083 46.3567 130.624 47.9526 127.564 50.1614C124.175 52.5683 120.84 56.1366 121.436 60.4891ZM151.578 70.782C151.578 70.8713 151.444 70.9607 151.578 70.782V70.782Z" fill="#ED6A30"/>
</svg>
