<svg width="62" height="45" viewBox="0 0 62 45" fill="none" xmlns="http://www.w3.org/2000/svg">
<path d="M31.4622 15.6835C31.4622 15.6835 32.1584 1.2791 28.9075 0.118008C25.6566 -1.04309 21.5905 6.62305 20.3139 11.7338C19.0373 16.8446 18.8042 19.2922 18.8042 19.2922L31.4622 15.6835Z" fill="#50231F"/>
<path d="M29.7694 15.6837C29.7694 15.6837 30.6987 3.9859 27.713 3.34263C24.7274 2.69937 22.4846 9.09022 21.8961 11.1471C21.3077 13.2039 20.8414 17.1311 20.8414 17.1311L29.7694 15.6837Z" fill="#FEFADA"/>
<path d="M29.6796 12.736C29.2313 11.5979 28.5674 10.5571 27.7245 9.6708C27.3263 9.24349 26.9009 8.84223 26.4512 8.4695C26.2213 8.28295 25.8692 7.95006 25.5508 7.95167C24.8514 7.95167 25.5653 9.09186 25.6859 9.33308C26.2438 10.4588 26.665 11.6392 26.6007 12.8711C26.213 12.3318 25.7869 11.8212 25.3257 11.3433C24.5444 10.5826 23.5925 10.0568 22.4976 9.97957C22.4621 9.97691 22.4265 9.98488 22.3955 10.0025C22.3645 10.02 22.3394 10.0464 22.3234 10.0783C22.3074 10.1101 22.3012 10.146 22.3056 10.1814C22.31 10.2168 22.3248 10.2501 22.3481 10.2771C22.8141 10.8213 23.2438 11.3956 23.6343 11.9962C23.9464 12.4419 24.1872 12.9335 24.3482 13.4532C24.1617 13.3213 23.9784 13.1863 23.7871 13.0624C23.4241 12.8323 23.0483 12.6229 22.6616 12.4352C21.9655 12.0927 21.197 11.792 20.4108 11.8579C20.3796 11.8634 20.3501 11.8761 20.3246 11.8949C20.2992 11.9138 20.2785 11.9383 20.2641 11.9665C20.2498 11.9947 20.2422 12.0259 20.242 12.0576C20.2418 12.0893 20.2489 12.1205 20.2628 12.149C20.7452 12.9531 21.8433 13.3358 22.3529 14.1045C21.6461 13.8076 20.888 13.6519 20.1214 13.6462C19.8625 13.6462 18.9477 13.6333 19.1085 14.1286C19.1904 14.3763 19.6004 14.4856 19.7885 14.6432C20.0802 14.8961 20.2864 15.2332 20.3786 15.6082C20.5185 16.1356 20.4751 16.6872 20.6165 17.2163C20.6214 17.2379 20.6316 17.258 20.6463 17.2746C20.6609 17.2912 20.6795 17.3039 20.7003 17.3114C20.7212 17.3189 20.7436 17.3211 20.7654 17.3177C20.7873 17.3143 20.808 17.3054 20.8256 17.2919C22.0956 16.4192 23.5299 15.8141 25.0412 15.5133C26.5631 15.2176 28.1187 15.1343 29.6635 15.2656C29.6635 15.2656 29.6732 15.2656 29.678 15.2656C29.6319 15.6921 29.5007 16.105 29.2921 16.4798C29.2816 16.4949 29.2741 16.5119 29.2701 16.5299C29.2661 16.5479 29.2657 16.5665 29.2689 16.5846C29.2722 16.6028 29.2789 16.6201 29.2888 16.6356C29.2987 16.6512 29.3116 16.6646 29.3267 16.6752C29.3418 16.6857 29.3588 16.6932 29.3768 16.6972C29.3948 16.7012 29.4134 16.7016 29.4315 16.6983C29.4497 16.6951 29.467 16.6884 29.4825 16.6785C29.4981 16.6686 29.5115 16.6557 29.522 16.6406C30.461 15.5406 30.1764 13.9839 29.6796 12.736ZM19.5184 14.1495C19.5184 14.2203 19.5056 14.1737 19.5184 14.1495V14.1495Z" fill="#ED6A30"/>
<path d="M38.353 17.311C38.353 17.311 42.5333 12.2002 48.4563 9.52906C54.3794 6.85789 56.1206 6.62471 55.7717 10.9233C55.4228 15.222 51.7072 23.5844 50.0818 25.3325C48.4563 27.0806 47.2955 28.3527 47.2955 28.3527L38.353 17.311Z" fill="#50231F"/>
<path d="M40.5592 18.7054C40.5592 18.7054 43.6943 15.1047 48.8055 12.0846C53.9166 9.06446 54.7269 10.6984 54.1417 13.2457C53.5565 15.793 50.4261 21.7256 48.8007 23.8162C47.1752 25.9068 45.7812 26.8363 45.7812 26.8363L40.5592 18.7054Z" fill="#FEFADA"/>
<path d="M11.4875 23.9335C11.4875 23.9335 21.0104 14.7557 26.5845 14.0593C32.1587 13.363 40.5208 16.15 42.844 18.1248C45.1673 20.0996 49.1143 27.1852 49.4632 29.16C49.8121 31.1349 33.7858 37.6399 27.747 36.7104C21.7081 35.7809 11.4875 23.9335 11.4875 23.9335Z" fill="#ED6A30"/>
<path d="M25.1905 34.4991C24.3464 32.6497 22.2033 31.0897 20.8993 29.5137C19.388 27.6804 17.4667 26.3553 15.494 25.0479C12.6177 23.1406 9.91499 22.1918 5.56756 22.076C4.09483 22.0358 -0.400517 23.578 0.0287602 24.567C0.747437 26.2218 4.26687 25.5319 6.48239 26.1639C5.3891 26.6544 4.2315 26.9391 3.24593 27.3089C1.64779 27.9136 0.943587 28.7901 0.478939 29.771C-0.278325 31.3631 1.58509 31.0206 2.68481 31.0206C3.97103 31.0206 5.27012 30.7794 6.51937 30.8051C5.74924 31.5127 4.34886 32.3731 3.35204 33.1434C2.29573 33.9587 1.59956 35.2533 1.6076 36.1024C1.62689 38.3201 6.35216 37.0078 7.66089 36.7457C12.1193 35.8338 15.4056 36.9933 19.1822 39.2721C20.0681 39.8076 21.0537 40.3045 21.8206 41.0089C22.5489 41.6779 23.0136 42.593 23.7355 43.2732C25.2403 44.6948 26.9237 45.2706 28.9302 44.8814C32.895 44.0966 36.445 41.7036 40.3149 40.6455C42.0834 40.163 44.1398 39.9395 45.9212 40.4525C47.8972 41.0234 50.5259 45.1017 52.0066 43.6769C53.3491 42.3903 51.5533 39.6291 50.3812 38.3699C52.9536 39.0421 54.8219 42.4112 56.4907 41.0234C58.0696 39.7127 56.3718 37.3568 54.7109 36.3211C57.0101 36.3694 58.4667 38.0483 60.0922 37.8714C61.499 37.7106 61.1951 35.2002 60.9041 34.2321C59.9668 31.1251 57.7545 28.7643 54.5357 28.2095C51.0339 27.6065 47.4454 28.5311 44.0755 29.496C40.4387 30.5462 36.7649 31.5368 33.2021 32.7912C30.8402 33.6226 27.1649 35.4414 24.7259 34.0407" fill="#FEFADA"/>
<path d="M29.5247 32.4644C28.7868 32.2168 28.007 32.1557 27.2352 32.0962L26.2963 32.0222C25.7207 31.9788 25.1274 31.9354 24.5808 32.1396C24.0342 32.3438 23.5438 32.8601 23.5197 33.4905C23.5187 33.712 23.5634 33.9313 23.6511 34.1347C23.7388 34.3381 23.8676 34.5212 24.0293 34.6725C24.3423 34.9544 24.7071 35.1729 25.1033 35.3157C26.2831 35.8082 27.5502 36.0571 28.8286 36.0474C29.6984 36.0362 31.5135 35.7515 31.6197 34.4698C31.7049 33.4374 30.2579 32.7105 29.5247 32.4644Z" fill="#50231F"/>
<path d="M24.5135 37.6205C24.6304 38.1516 24.8833 38.6431 25.2475 39.0468C25.6117 39.4506 26.0746 39.7526 26.5907 39.9234C27.0788 40.0774 27.5975 40.1079 28.1003 40.0122C28.6032 39.9165 29.0744 39.6976 29.4719 39.375C29.9252 39.0132 30.4896 38.3635 30.4044 37.7443C30.3965 37.7167 30.3824 37.6912 30.3632 37.6698C30.3439 37.6484 30.3201 37.6316 30.2935 37.6208C30.2668 37.6099 30.2381 37.6053 30.2094 37.6072C30.1807 37.6091 30.1528 37.6175 30.1278 37.6318C29.8754 37.7926 29.7082 38.103 29.5104 38.3361C29.3308 38.5575 29.1214 38.7528 28.8882 38.9167C28.461 39.2025 27.9549 39.347 27.4412 39.33C26.3158 39.2898 25.3945 38.423 24.9186 37.45C24.8061 37.2201 24.4572 37.3857 24.5151 37.6205H24.5135Z" fill="#50231F"/>
<path d="M27.1614 35.1842C27.0144 35.7278 26.9037 36.2806 26.8302 36.839C26.7307 37.4006 26.7637 37.9778 26.9267 38.5244C26.9653 38.6337 27.1437 38.6562 27.1711 38.5244C27.3881 37.463 27.3399 36.3614 27.5553 35.2936C27.5698 35.2413 27.563 35.1854 27.5363 35.1382C27.5096 35.091 27.4653 35.0564 27.413 35.0419C27.3608 35.0274 27.305 35.0342 27.2578 35.0609C27.2106 35.0876 27.1759 35.1319 27.1614 35.1842V35.1842Z" fill="#50231F"/>
<path d="M32.9399 27.4827C33.1686 26.9391 33.4565 26.4224 33.7984 25.942C34.1296 25.5046 34.5637 25.0591 35.0846 24.9273C35.2007 24.8949 35.3216 24.884 35.4416 24.8951C35.4866 24.8958 35.5314 24.9018 35.575 24.9128C35.6056 24.9208 35.7519 24.9771 35.6683 24.9369C35.8317 25.0153 35.9694 25.1386 36.0654 25.2923C36.3444 25.7431 36.5181 26.251 36.5735 26.7783C36.6054 27.0522 36.6237 27.3275 36.6281 27.6033C36.6281 27.7464 36.6281 27.8606 36.6522 28.0214C36.6362 27.8911 36.6522 27.9506 36.6442 27.9989C36.6345 28.0369 36.6281 28.0756 36.6249 28.1147C36.6188 28.188 36.6381 28.2613 36.6796 28.3221C36.6992 28.354 36.7285 28.3788 36.7632 28.393C36.7979 28.4071 36.8361 28.4099 36.8725 28.4009C37.0204 28.372 37.0703 28.2707 37.1346 28.15C37.2073 28.0182 37.2676 27.8798 37.3146 27.7367C37.3914 27.4343 37.4148 27.1209 37.3838 26.8104C37.3594 26.1363 37.1653 25.4791 36.8194 24.8999C36.4577 24.3387 35.9094 24.0171 35.231 24.0878C34.4737 24.1682 33.8708 24.6539 33.4254 25.2441C32.9801 25.8343 32.6151 26.6191 32.5974 27.3894C32.5974 27.5647 32.8659 27.6547 32.9431 27.4827H32.9399Z" fill="#50231F"/>
<path d="M26.2807 27.4342C26.5532 26.867 26.6798 26.2407 26.6488 25.6121C26.6376 24.9576 26.4881 24.2613 26.0861 23.7306C25.6842 23.1999 25.0314 22.8364 24.3417 22.986C23.6889 23.1291 23.0989 23.647 22.6969 24.16C22.4284 24.4862 22.2115 24.8518 22.0538 25.2439C21.9903 25.4133 21.955 25.5921 21.9493 25.773C21.9493 25.9338 21.9236 26.0946 22.0554 26.2136C22.0828 26.2392 22.1175 26.2556 22.1547 26.2605C22.1919 26.2654 22.2297 26.2586 22.2628 26.2409C22.3866 26.1702 22.3995 26.0705 22.4606 25.9531C22.5217 25.8357 22.5924 25.7488 22.6583 25.6411C22.7999 25.398 22.9539 25.1624 23.1198 24.9351C23.3022 24.7005 23.505 24.4826 23.7259 24.2838C23.8152 24.2013 23.9109 24.126 24.0121 24.0587C24.0748 24.0168 24.1375 23.9782 24.2034 23.9413C24.2275 23.9268 24.2532 23.9139 24.279 23.9011C24.279 23.9011 24.4028 23.8464 24.332 23.8737C24.4414 23.8285 24.5558 23.7966 24.6729 23.7788C24.5828 23.7917 24.7388 23.7788 24.7645 23.7788C24.7902 23.7788 24.8658 23.7933 24.7806 23.7788C24.816 23.7849 24.8509 23.7935 24.8851 23.8046C25.0867 23.8654 25.2661 23.9839 25.4012 24.1455C25.5501 24.3235 25.6661 24.5266 25.7437 24.7453C25.8402 25.0178 25.9076 25.2997 25.9446 25.5864C26.0063 26.1682 26.0036 26.7549 25.9366 27.3361C25.9371 27.3766 25.9507 27.4158 25.9755 27.4478C26.0002 27.4799 26.0347 27.503 26.0737 27.5137C26.1127 27.5244 26.1542 27.5221 26.1918 27.5072C26.2294 27.4923 26.2612 27.4655 26.2823 27.431L26.2807 27.4342Z" fill="#50231F"/>
<path d="M38.268 24.0041C38.4803 23.8079 38.6829 23.602 38.9112 23.4139L39.0719 23.2756L39.1137 23.2418C39.0864 23.2627 39.1137 23.2418 39.1234 23.2418L39.2247 23.1678L39.2809 23.1228C39.3163 23.0954 39.2681 23.1308 39.2906 23.1147C39.3131 23.0987 39.3581 23.0681 39.3903 23.0424C39.4552 22.9924 39.5122 22.9327 39.5591 22.8655C39.5707 22.8445 39.5774 22.8213 39.5789 22.7974C39.5804 22.7736 39.5765 22.7497 39.5676 22.7275C39.5586 22.7053 39.5449 22.6854 39.5273 22.6692C39.5097 22.653 39.4887 22.6409 39.4658 22.6339C39.133 22.5744 38.8227 22.843 38.5896 23.0552C38.3565 23.2675 38.1812 23.4943 37.9786 23.713C37.9392 23.7522 37.917 23.8055 37.9168 23.8612C37.9167 23.9168 37.9386 23.9702 37.9778 24.0097C38.0171 24.0491 38.0704 24.0714 38.126 24.0715C38.1816 24.0717 38.235 24.0497 38.2745 24.0105L38.268 24.0041Z" fill="#F6AB80"/>
<path d="M39.3294 25.1123C39.5554 25.0573 39.7761 24.982 39.9885 24.8871C40.0882 24.8442 40.1879 24.7992 40.2876 24.752C40.3363 24.7279 40.3831 24.6999 40.4275 24.6684C40.4602 24.6493 40.4896 24.6248 40.5143 24.596C40.5332 24.5688 40.5468 24.5382 40.5545 24.506C40.5606 24.4814 40.5588 24.4556 40.5493 24.4322C40.5397 24.4087 40.523 24.389 40.5014 24.3757C40.4795 24.3598 40.4551 24.3478 40.4291 24.3403C40.3874 24.3299 40.3438 24.3299 40.3021 24.3403C40.2469 24.3481 40.1929 24.3627 40.1413 24.3838C40.032 24.4288 39.9242 24.4802 39.8197 24.5317C39.7152 24.5832 39.6204 24.6266 39.548 24.6555C39.4428 24.6962 39.3355 24.7311 39.2265 24.7601C39.1807 24.7728 39.1419 24.8032 39.1184 24.8444C39.0949 24.8857 39.0887 24.9345 39.101 24.9804C39.1145 25.0256 39.145 25.064 39.186 25.0873C39.227 25.1107 39.2755 25.1173 39.3213 25.1058L39.3294 25.1123Z" fill="#F6AB80"/>
<path d="M39.5911 26.9616C39.8125 26.9602 40.0338 26.9737 40.2535 27.0018C40.3644 27.0179 40.4737 27.042 40.5831 27.0629C40.6393 27.0742 40.6956 27.0726 40.7439 27.079C40.7812 27.0846 40.8191 27.0846 40.8564 27.079C40.8821 27.079 40.9062 27.0661 40.932 27.0597C40.9514 27.0541 40.9691 27.0435 40.9832 27.029C40.9974 27.0145 41.0076 26.9966 41.0127 26.977C41.0179 26.9574 41.0179 26.9368 41.0128 26.9172C41.0077 26.8976 40.9975 26.8796 40.9834 26.8651C40.9474 26.8153 40.8992 26.7754 40.8435 26.7493C40.7844 26.718 40.7225 26.6922 40.6586 26.6721C40.5401 26.646 40.4197 26.6293 40.2985 26.6223C40.0608 26.6054 39.8223 26.6054 39.5846 26.6223C39.542 26.6223 39.5011 26.6392 39.471 26.6694C39.4408 26.6995 39.4239 26.7405 39.4239 26.7831C39.4239 26.8258 39.4408 26.8667 39.471 26.8968C39.5011 26.927 39.542 26.9439 39.5846 26.9439L39.5911 26.9616Z" fill="#F6AB80"/>
<path d="M23.3814 22.0952C23.3219 21.9054 23.2447 21.7221 23.1901 21.5307C23.1772 21.4841 23.166 21.439 23.1515 21.3924C23.1434 21.3699 23.1386 21.3474 23.1306 21.3249C23.125 21.3061 23.118 21.2878 23.1097 21.2702L23.0952 21.2348C23.0952 21.2235 23.0952 21.2235 23.0952 21.2348C23.0952 21.2461 23.0952 21.2348 23.0952 21.2187C23.0927 21.2073 23.0895 21.196 23.0856 21.1849C23.0778 21.1547 23.0642 21.1263 23.0454 21.1013C23.0454 21.1013 23.01 21.0499 23.0245 21.0772C23.0389 21.1045 23.0245 21.0659 23.0245 21.0611C23.0185 21.0474 23.011 21.0344 23.002 21.0225C22.9814 20.9994 22.9575 20.9793 22.9312 20.963C22.9135 20.9524 22.8932 20.9468 22.8725 20.9468C22.8519 20.9468 22.8316 20.9524 22.8138 20.963C22.7935 20.9755 22.7742 20.9895 22.756 21.0048C22.7349 21.0284 22.7195 21.0564 22.711 21.0869C22.711 21.0869 22.6949 21.1222 22.711 21.1045C22.727 21.0869 22.7029 21.1142 22.7013 21.1174C22.6855 21.1439 22.6756 21.1736 22.6724 21.2042C22.67 21.238 22.67 21.2718 22.6724 21.3056C22.6733 21.4221 22.6951 21.5376 22.7367 21.6465C22.8187 21.8539 22.9232 22.0501 23.0116 22.2544C23.0371 22.299 23.0779 22.3328 23.1265 22.3494C23.1751 22.366 23.2281 22.3642 23.2756 22.3445C23.323 22.3247 23.3615 22.2883 23.384 22.2421C23.4064 22.1959 23.4112 22.1431 23.3975 22.0936L23.3814 22.0952Z" fill="#F6AB80"/>
<path d="M21.7014 23.2417C21.5696 23.123 21.4476 22.994 21.3364 22.8558C21.2802 22.7882 21.2223 22.7207 21.1612 22.6548C21.0911 22.5799 21.0129 22.513 20.9281 22.4553C20.8776 22.4118 20.816 22.383 20.7502 22.3722C20.6844 22.3614 20.6168 22.369 20.5551 22.3942C20.5182 22.4175 20.4902 22.4526 20.4756 22.4937C20.4611 22.5348 20.4607 22.5797 20.4747 22.621C20.5002 22.6842 20.5417 22.7396 20.5953 22.7818C20.7279 22.8912 20.8536 23.0088 20.9715 23.134C21.1174 23.292 21.276 23.4378 21.4458 23.5698C21.4902 23.5944 21.542 23.6022 21.5917 23.5918C21.6414 23.5814 21.6857 23.5536 21.7167 23.5133C21.7476 23.473 21.7631 23.423 21.7603 23.3723C21.7575 23.3216 21.7366 23.2735 21.7014 23.2369V23.2417Z" fill="#F6AB80"/>
<path d="M39.35 19.6009C39.3545 19.6352 39.3717 19.6666 39.398 19.6891C39.4244 19.7115 39.4581 19.7233 39.4927 19.7223C39.5273 19.7213 39.5603 19.7076 39.5853 19.6837C39.6103 19.6597 39.6256 19.6274 39.6281 19.5929C39.6548 19.1652 39.7674 18.7473 39.9593 18.3643L39.9706 18.3739C41.3414 19.0982 42.6049 20.0096 43.7248 21.0821C44.8343 22.1518 45.714 23.4366 46.3101 24.858C46.318 24.8786 46.3308 24.8969 46.3475 24.9112C46.3642 24.9256 46.3842 24.9356 46.4057 24.9404C46.4271 24.9452 46.4495 24.9445 46.4707 24.9386C46.4919 24.9326 46.5113 24.9215 46.5271 24.9063C46.9307 24.5396 47.1911 24.054 47.5947 23.6841C47.8756 23.4224 48.2305 23.2539 48.6108 23.2016C48.8552 23.1695 49.2539 23.2997 49.4613 23.1357C49.8617 22.8141 49.0851 22.3316 48.8664 22.1853C48.2179 21.7763 47.496 21.4977 46.7409 21.3651C47.5834 20.992 48.7169 21.2702 49.5546 20.8489C49.5814 20.8327 49.6041 20.8105 49.6209 20.7841C49.6378 20.7576 49.6482 20.7276 49.6515 20.6965C49.6548 20.6653 49.6508 20.6338 49.6398 20.6044C49.6288 20.5751 49.6112 20.5486 49.5883 20.5272C48.9693 20.0448 48.1574 19.884 47.3873 19.7987C46.9603 19.7487 46.5309 19.7229 46.1011 19.7216C45.8744 19.7216 45.646 19.7376 45.4177 19.7473C45.8349 19.394 46.3047 19.108 46.8101 18.8998C47.465 18.6074 48.1385 18.3587 48.8262 18.1552C48.8604 18.1448 48.8908 18.1246 48.9136 18.0971C48.9363 18.0696 48.9505 18.036 48.9542 18.0005C48.958 17.965 48.9512 17.9291 48.9348 17.8974C48.9183 17.8657 48.8928 17.8396 48.8616 17.8223C47.8969 17.2884 46.8133 17.2225 45.7457 17.4396C45.101 17.5917 44.4681 17.79 43.8518 18.033C44.4643 16.9619 45.4595 16.1948 46.5352 15.5516C46.7667 15.4133 47.9822 14.844 47.3953 14.4612C47.1284 14.2876 46.6509 14.3776 46.3583 14.4098C45.778 14.4797 45.2028 14.5871 44.6364 14.7314C43.4482 15.0215 42.3274 15.5386 41.3356 16.2543C40.2375 17.0343 39.1571 18.1906 39.35 19.6009ZM49.1172 22.9363C49.1172 22.9652 49.0738 22.9942 49.1172 22.9363V22.9363Z" fill="#ED6A30"/>
</svg>
