<svg width="267" height="48" viewBox="0 0 267 48" fill="none" xmlns="http://www.w3.org/2000/svg">
<g clip-path="url(#clip0_57_270)">
<path d="M17.9538 2.85425H21.6969C18.2661 10.9435 16.2822 15.6153 15.7529 16.8659L12.1965 25.2897H27.4542C25.1581 19.8576 23.3647 15.6343 22.0738 12.6123C22.0701 12.6046 28.2119 24.1455 28.2081 24.1341C28.17 24.0087 23.0219 14.8437 22.0738 12.6123C23.3342 9.84865 23.6693 9.0504 23.8292 8.72348L26.8526 14.9767L28.5089 18.8883C29.4989 21.2033 29.0572 20.1731 31.46 25.8979C31.9893 27.0992 33.6989 31.1171 36.5814 37.952L37.8037 40.841H34.0606C34.0263 40.7877 33.6799 39.9933 33.0249 38.4575C31.1667 34.0593 29.7959 30.8283 28.9125 28.7642H10.7115C7.3873 36.6405 5.67761 40.6661 5.59004 40.8447H1.84702C1.92698 40.6471 3.52624 36.8534 6.88848 28.9238C10.3041 20.8535 12.0442 16.7481 12.1166 16.6075C12.7714 15.0375 14.4773 10.9929 17.238 4.47361C17.6797 3.44344 17.9196 2.90746 17.9538 2.85425Z" fill="#FF5B04"/>
<path d="M38.9498 41.6012H33.6532L33.4286 41.2667C33.3714 41.1793 33.3333 41.1261 32.3243 38.7578C30.5994 34.6752 29.2933 31.6 28.4099 29.5244H11.2141C6.40488 40.9094 6.31349 41.0956 6.2678 41.1831L6.05837 41.605H0.71228L1.14255 40.5559C1.23775 40.3278 2.92839 36.3136 6.18783 28.6273C10.8181 17.6832 11.3359 16.482 11.4197 16.2995C12.0784 14.7182 13.75 10.7534 16.5373 4.1771C17.2304 2.57294 17.2684 2.51212 17.3217 2.4323L17.5464 2.09778H22.8429L22.3936 3.15455C18.9628 11.2438 16.9791 15.9118 16.4498 17.1663L13.3388 24.5332H26.3004C24.2595 19.7093 22.6069 15.8168 21.3808 12.943C21.377 12.9354 21.3732 12.924 21.3693 12.9164L21.0838 12.2473L21.4912 12.0496C22.1576 10.5899 22.5459 9.71564 22.7859 9.17967C22.9725 8.7577 23.0752 8.53343 23.1438 8.39278L23.833 6.9901L27.5379 14.6498L29.2095 18.5956C29.8188 20.0173 29.8874 20.1769 30.4052 21.4162C30.7327 22.1954 31.2353 23.3967 32.1644 25.6052C32.6937 26.8026 34.369 30.7484 37.2858 37.6593L38.9498 41.6012ZM34.5519 40.0807H36.6537L35.8808 38.2485C33.0097 31.444 31.2885 27.3918 30.7631 26.2058C29.8302 23.982 29.3238 22.7808 29.0001 22.0016C28.4823 20.7661 28.4137 20.6065 27.8083 19.1886L26.1519 15.277L23.8521 10.5253C23.6274 11.0309 23.3265 11.6962 22.9229 12.5856L24.8535 16.2121C26.2661 18.8692 28.1243 22.3588 28.6993 23.4385C28.9088 23.8186 28.9163 23.8414 28.9354 23.906L29.1448 24.5674L28.5051 24.8335C28.3605 24.8944 28.2386 24.921 28.1282 24.9172C28.1396 24.94 28.1472 24.9666 28.1586 24.9894L28.6041 26.0462H11.0504L15.0523 16.5657C15.5588 15.3682 17.3902 11.0461 20.5469 3.60691H18.4412C18.3384 3.83498 18.1823 4.19612 17.9385 4.76252C15.1475 11.3502 13.4721 15.3188 12.821 16.885L12.7981 16.9344C12.7257 17.094 11.7548 19.3634 7.5929 29.2089C5.1369 35.0059 3.6671 38.4766 2.99693 40.0731H5.09501C5.62809 38.8339 7.27686 34.9413 10.0146 28.46L10.2126 27.9963H29.4228L29.6208 28.4562C30.5042 30.5242 31.875 33.7552 33.7332 38.1534C34.1596 39.176 34.4072 39.7538 34.5519 40.0807Z" fill="#FF5B04"/>
<path d="M44.0865 13.7146H47.4298L47.4563 13.7412V28.9731C47.4563 30.1743 47.5287 31.0487 47.6696 31.5961C48.0238 32.9721 48.652 34.1734 49.5544 35.1997C49.9771 35.6749 50.3312 36.0208 50.6168 36.2337C52.2084 37.4691 53.9791 38.0887 55.9248 38.0887H55.9515C58.179 38.0887 60.1629 37.2752 61.8954 35.6521C62.5312 34.9793 62.9464 34.4509 63.1444 34.0631C63.4261 33.6564 63.6927 33.1165 63.9401 32.4475C64.26 31.5124 64.4161 30.6457 64.4161 29.8513V13.7184H67.786L67.8126 13.745V29.6916C67.8126 32.2537 66.9978 34.6371 65.3719 36.8457C65.071 37.2334 64.736 37.6135 64.3628 37.9861C63.5137 38.7996 62.8131 39.3546 62.2648 39.6549C60.2999 40.8751 58.2057 41.4833 55.9744 41.4833H55.8944C53.3127 41.4833 50.9214 40.6813 48.7319 39.0733C48.3436 38.754 47.9552 38.4194 47.563 38.0659C46.8357 37.2905 46.3597 36.7165 46.1313 36.3439C44.7529 34.295 44.0598 32.0788 44.0598 29.6953V13.7488C44.0598 13.7221 44.0674 13.7146 44.0865 13.7146Z" fill="#FF5B04"/>
<path d="M55.9742 42.236H55.8944C53.1566 42.236 50.594 41.3769 48.2788 39.6777L48.2483 39.6549C47.8485 39.328 47.4449 38.9783 47.0489 38.621L47.0032 38.5791C46.2379 37.7581 45.739 37.1574 45.4801 36.7393C44.037 34.5992 43.2982 32.2157 43.2982 29.6916V12.9848L44.0864 12.9582H47.7419L48.1912 13.4029L48.2179 13.745V28.977C48.2179 30.3872 48.3207 31.0791 48.4045 31.4098C48.7281 32.6642 49.3031 33.7705 50.1218 34.7018C50.5064 35.1351 50.8262 35.4469 51.0699 35.6293C52.5473 36.7773 54.1313 37.3322 55.921 37.3322C57.9886 37.3322 59.7554 36.6062 61.3546 35.1161C62.0667 34.3634 62.3485 33.9453 62.4589 33.7248L62.5161 33.6298C62.7597 33.2762 62.9997 32.7897 63.2243 32.1853C63.5061 31.3528 63.6545 30.5583 63.6545 29.8513V12.9582H68.0982L68.5475 13.4029L68.5742 13.745V29.6916C68.5742 32.4057 67.7022 34.964 65.9849 37.2943C65.6536 37.7238 65.2919 38.1306 64.9035 38.5183C63.9973 39.385 63.2624 39.9666 62.6531 40.3049C60.5741 41.586 58.3313 42.236 55.9742 42.236ZM49.1965 38.465C51.2413 39.959 53.4955 40.7155 55.8944 40.7155H55.9742C58.0495 40.7155 60.0296 40.1377 61.8611 39.0011L61.8954 38.9821C62.3828 38.7159 63.0339 38.1914 63.8297 37.4312C64.1648 37.0966 64.4808 36.7393 64.7626 36.3744C66.2743 34.3255 67.0435 32.0713 67.0435 29.6878V14.4749H65.17V29.8475C65.17 30.7218 64.9949 31.6759 64.6521 32.687C64.3856 33.4093 64.0963 33.9986 63.7916 34.4471C63.5555 34.8994 63.11 35.462 62.4437 36.1691L62.4132 36.1995C60.5398 37.9519 58.3656 38.8414 55.9477 38.8414C53.8115 38.8414 51.8696 38.1648 50.1484 36.8267C49.8324 36.591 49.4478 36.2185 48.9871 35.6978C48.0046 34.5839 47.3155 33.2648 46.9346 31.7786C46.7747 31.1666 46.6986 30.2466 46.6986 28.9656V14.4673H44.8251V29.6802C44.8251 31.9002 45.4763 33.9947 46.7633 35.9068C46.9156 36.1538 47.2583 36.61 48.0998 37.511C48.4578 37.8455 48.8271 38.161 49.1965 38.465Z" fill="#FF5B04"/>
<path d="M79.7994 2.85419H83.1693V13.6347H88.2643C88.2832 13.6347 88.2909 13.6424 88.2909 13.6614V17.0256C88.2909 17.0445 88.2832 17.0522 88.2643 17.0522H83.1693V34.6143C83.1693 35.922 83.7519 36.9369 84.9208 37.6592C85.4692 37.9253 85.9183 38.0583 86.2723 38.0583C86.2723 38.0774 86.4746 38.0849 86.8817 38.0849H89.9589C89.9777 38.0849 89.9854 38.0925 89.9854 38.1116V41.4491C89.9854 41.4681 89.9777 41.4757 89.9589 41.4757H86.5354C84.978 41.4757 83.5462 40.955 82.2364 39.9134C80.5915 38.4841 79.769 36.724 79.769 34.6409V17.0256H76.3991C76.3801 17.0256 76.3725 17.018 76.3725 16.9989V13.6614C76.3725 13.6424 76.3801 13.6347 76.3991 13.6347H79.769V2.88078C79.7728 2.86177 79.7804 2.85419 79.7994 2.85419Z" fill="#FF5B04"/>
<path d="M89.9623 42.236H86.5389C84.8143 42.236 83.2074 41.6544 81.7642 40.5064C79.9289 38.9098 79.0113 36.9446 79.0113 34.6409V17.7858H75.6414L75.6147 16.9989V12.9011L76.4029 12.8745H79.0113V2.12054L79.7994 2.09393H83.9308V12.8745H89.0254L89.052 13.6614V17.7858L88.2643 17.8124H83.9308V34.6143C83.9308 35.6521 84.3611 36.4086 85.2903 36.9939C85.8463 37.2562 86.1429 37.2981 86.2766 37.2981H87.0377V37.3247H90.7277L90.7543 38.1116V42.2094L89.9623 42.236ZM77.1378 16.2653H80.5343V34.6409C80.5343 36.5112 81.2578 38.0469 82.7391 39.3393C83.8966 40.2593 85.1455 40.7155 86.5389 40.7155H89.2277V38.8452H86.886C86.688 38.8452 86.4746 38.8452 86.2766 38.8186C85.8009 38.8186 85.2521 38.6627 84.5934 38.3472L84.5248 38.3092C83.1236 37.4387 82.4154 36.1994 82.4154 34.6181V16.2957H87.5366V14.3989H82.4154V3.61826H80.5419V14.3989H77.1454V16.2653H77.1378Z" fill="#FF5B04"/>
<path d="M112.699 13.0798H112.832C115.714 13.0798 118.402 13.9275 120.897 15.6229C121.392 15.9574 121.947 16.4097 122.568 16.9724C123.204 17.592 123.639 18.0596 123.867 18.3751C124.362 19.0099 124.75 19.5687 125.036 20.0439C126.345 22.3209 127 24.7156 127 27.2207V27.3538C127 29.9501 126.292 32.421 124.88 34.7702C123.162 37.4539 120.809 39.3888 117.82 40.5711C116.175 41.1717 114.511 41.4719 112.832 41.4719H112.699C110.079 41.4719 107.577 40.7497 105.189 39.3014C104.622 38.9479 103.967 38.4537 103.225 37.8189C102.57 37.1841 102.135 36.724 101.926 36.4428C101.451 35.8764 101.07 35.3746 100.784 34.9336C99.2992 32.5502 98.5569 30.0148 98.5569 27.331V27.1979C98.5569 24.4952 99.3257 21.9369 100.864 19.5154C101.237 18.9339 101.713 18.3219 102.296 17.687C102.844 17.1054 103.286 16.672 103.621 16.3907C104.382 15.7901 105.018 15.3492 105.532 15.0679C107.798 13.7412 110.186 13.0798 112.699 13.0798ZM101.953 27.2778C101.953 29.9083 102.848 32.2841 104.634 34.4053C105.323 35.1275 105.738 35.5267 105.883 35.5989C107.916 37.2601 110.216 38.0888 112.782 38.0888H112.809C115.284 38.0888 117.549 37.2867 119.602 35.6787C120.363 35.0249 120.92 34.4699 121.274 34.0099C121.822 33.3029 122.256 32.6073 122.572 31.9154C123.261 30.3949 123.608 28.9124 123.608 27.4641V27.0915C123.608 25.2897 123.105 23.5069 122.096 21.7392C120.805 19.6029 118.954 18.0671 116.552 17.1282C115.329 16.6873 114.077 16.4668 112.782 16.4668C110.06 16.4668 107.626 17.4019 105.487 19.2759C104.832 19.9107 104.39 20.3973 104.162 20.7319C102.684 22.7124 101.953 24.8906 101.953 27.2778Z" fill="#FF5B04"/>
<path d="M112.832 42.236H112.699C109.949 42.236 107.291 41.4681 104.793 39.9552C104.192 39.5789 103.499 39.0581 102.729 38.4005L102.695 38.3701C102.018 37.7125 101.572 37.2373 101.332 36.9218C100.841 36.3402 100.442 35.808 100.144 35.348C98.5834 32.843 97.7949 30.1516 97.7949 27.3348V27.2017C97.7949 24.366 98.61 21.6442 100.221 19.1125C100.612 18.4929 101.123 17.8429 101.736 17.1776C102.315 16.5618 102.768 16.1171 103.133 15.813C103.952 15.1667 104.611 14.7106 105.167 14.4026C107.52 13.0266 110.06 12.3195 112.699 12.3195H112.832C115.859 12.3195 118.715 13.2205 121.327 14.9957C121.849 15.3492 122.443 15.8281 123.082 16.4136C123.775 17.0863 124.228 17.5767 124.487 17.9341C124.983 18.5727 125.393 19.1581 125.694 19.6599C127.069 22.0547 127.766 24.5941 127.766 27.2245V27.3576C127.766 30.0831 127.016 32.7098 125.535 35.1656C123.729 37.9899 121.232 40.0426 118.106 41.2819C116.361 41.9167 114.595 42.236 112.832 42.236ZM103.739 37.2563C104.443 37.8569 105.068 38.3282 105.593 38.6551C107.84 40.0198 110.235 40.7117 112.699 40.7117H112.832C114.416 40.7117 116.007 40.4228 117.557 39.8564C120.363 38.7464 122.614 36.8952 124.236 34.3597C125.561 32.1587 126.239 29.7943 126.239 27.35V27.2169C126.239 24.8563 125.611 22.5679 124.377 20.4163C124.118 19.9792 123.741 19.4432 123.269 18.835C123.112 18.6221 122.789 18.2382 122.039 17.5083C121.467 16.9875 120.934 16.5542 120.47 16.2425C118.117 14.6421 115.546 13.8325 112.832 13.8325H112.699C110.334 13.8325 108.053 14.4673 105.921 15.7141C105.429 15.984 104.82 16.4059 104.097 16.98C103.8 17.2309 103.377 17.6452 102.852 18.2002C102.307 18.7932 101.854 19.371 101.507 19.9146C100.053 22.1992 99.318 24.6472 99.318 27.1903V27.3234C99.318 29.8513 100.03 32.2727 101.432 34.5231C101.691 34.9261 102.052 35.405 102.509 35.9448L102.536 35.979C102.661 36.1538 102.974 36.515 103.739 37.2563ZM112.805 38.8452C110.067 38.8452 107.6 37.9634 105.448 36.2223C105.266 36.1082 104.961 35.846 104.081 34.9261L104.051 34.8919C102.155 32.6414 101.192 30.0794 101.192 27.2778C101.192 24.7385 101.984 22.3855 103.545 20.2833C103.788 19.926 104.257 19.4128 104.954 18.7324L104.984 18.7057C107.257 16.7177 109.881 15.7103 112.782 15.7103C114.157 15.7103 115.512 15.9498 116.811 16.4173C119.381 17.4171 121.377 19.0745 122.751 21.3477C123.829 23.2369 124.373 25.1642 124.373 27.0915V27.464C124.373 29.015 124.004 30.6153 123.269 32.2271C122.926 32.9684 122.457 33.721 121.879 34.4699C121.491 34.9754 120.908 35.5571 120.101 36.2489C117.889 37.9785 115.444 38.8452 112.805 38.8452ZM106.248 34.9298L106.359 35.0059C108.243 36.5454 110.403 37.3247 112.774 37.3247C115.089 37.3247 117.219 36.5682 119.122 35.0743C119.811 34.4813 120.34 33.9567 120.661 33.5385C121.174 32.8771 121.582 32.2233 121.871 31.5923C122.511 30.1858 122.835 28.7907 122.835 27.4603V27.0877C122.835 25.4303 122.359 23.7539 121.422 22.1118C120.234 20.1464 118.494 18.7057 116.263 17.8352C115.147 17.4323 113.97 17.2232 112.771 17.2232C110.22 17.2232 108.003 18.0747 105.989 19.8309C105.231 20.5646 104.912 20.9562 104.775 21.1576C103.396 23.0165 102.707 25.0654 102.707 27.2702C102.707 29.6992 103.545 31.9268 105.194 33.8882C105.951 34.6827 106.187 34.8842 106.248 34.9298ZM106.218 34.9147L106.221 34.9184C106.221 34.9147 106.221 34.9147 106.218 34.9147Z" fill="#FF5B04"/>
<path d="M147.109 13.7146H147.243C149.664 13.7146 151.923 14.4559 154.009 15.9384C154.291 16.1512 154.611 16.4135 154.965 16.7329C155.673 17.4209 156.081 17.8543 156.187 18.0291C156.453 18.3294 156.701 18.6753 156.929 19.0631C158.151 20.9865 158.761 23.0545 158.761 25.2631V40.8143C158.761 40.8333 158.753 40.8409 158.734 40.8409H155.471C155.452 40.8409 155.445 40.8333 155.445 40.8143V25.3163C155.445 23.2331 154.729 21.3781 153.297 19.7549C152.642 19.082 152.174 18.6677 151.892 18.5081C150.46 17.5197 148.884 17.0256 147.17 17.0256H147.143C145.217 17.0256 143.465 17.6604 141.889 18.9338C141.287 19.4622 140.88 19.8804 140.667 20.1806C140.244 20.728 139.905 21.2678 139.658 21.7962C139.143 22.9442 138.888 24.0656 138.888 25.1604V40.8143C138.888 40.8333 138.88 40.8409 138.861 40.8409H135.598C135.579 40.8409 135.572 40.8333 135.572 40.8143V25.2631C135.572 22.7389 136.36 20.4049 137.932 18.2686C138.233 17.896 138.561 17.5273 138.915 17.1547C139.677 16.4325 140.24 15.9612 140.613 15.7521C142.628 14.395 144.794 13.7146 147.109 13.7146Z" fill="#FF5B04"/>
<path d="M158.731 41.6012H154.706L154.679 40.8143V25.3162C154.679 23.4118 154.043 21.762 152.733 20.2681C151.926 19.4432 151.61 19.2227 151.511 19.1695L151.454 19.1315C150.155 18.2382 148.713 17.782 147.163 17.782C145.373 17.782 143.808 18.3522 142.361 19.5192C141.694 20.1046 141.405 20.4392 141.284 20.6102C140.876 21.1386 140.567 21.6327 140.343 22.1079C139.882 23.1381 139.646 24.1683 139.646 25.149V41.5632L138.858 41.5898H134.833L134.806 40.8029V25.2555C134.806 22.5755 135.651 20.0704 137.316 17.8124C137.651 17.398 137.997 17.0066 138.359 16.6264C139.181 15.8433 139.775 15.353 140.205 15.1021C142.335 13.6728 144.657 12.9467 147.109 12.9467H147.243C149.817 12.9467 152.242 13.7412 154.45 15.3111C154.767 15.5469 155.105 15.8281 155.475 16.1589C156.377 17.0369 156.667 17.3715 156.796 17.5616C157.078 17.8885 157.345 18.2571 157.584 18.6677C158.864 20.6862 159.523 22.91 159.523 25.2516V41.5593L158.731 41.6012ZM156.202 40.0807H157.995V25.2669C157.995 23.2141 157.42 21.2679 156.282 19.4736C156.065 19.1087 155.844 18.8007 155.612 18.5385L155.532 18.4282C155.513 18.3978 155.349 18.1736 154.431 17.284C154.119 17.0027 153.814 16.7518 153.552 16.5542C151.622 15.1819 149.493 14.4825 147.243 14.4825H147.109C144.957 14.4825 142.913 15.1249 141.036 16.3907L140.986 16.4211C140.769 16.5465 140.324 16.8697 139.437 17.7136C139.128 18.0405 138.808 18.3978 138.523 18.7551C137.076 20.7204 136.329 22.9215 136.329 25.2706V40.0845H138.123V25.1642C138.123 23.9668 138.405 22.7313 138.957 21.4883C139.231 20.8991 139.6 20.3061 140.057 19.7169C140.286 19.3899 140.724 18.9414 141.375 18.3675C143.107 16.9685 145.034 16.2691 147.132 16.2691C149.013 16.2691 150.738 16.8088 152.288 17.8695C152.517 18.0063 152.931 18.3028 153.834 19.2265L153.861 19.2531C155.414 21.0131 156.198 23.0545 156.198 25.3201V40.0807H156.202Z" fill="#FF5B04"/>
<path d="M221.559 13.0798C223.93 13.0798 226.113 13.8021 228.111 15.2504C228.5 15.5317 228.942 15.9118 229.437 16.3907C230.038 17.0256 230.506 17.6109 230.841 18.1394C231.992 19.9754 232.567 21.9635 232.567 24.0999V40.8409H229.197C229.178 40.8409 229.17 40.8333 229.17 40.8143V23.9668C229.17 22.3969 228.668 20.903 227.659 19.4889C227.464 19.2227 227.137 18.8806 226.676 18.4549C225.915 17.7669 225.111 17.2726 224.262 16.9724C223.394 16.6378 222.544 16.4706 221.715 16.4706H221.448C219.784 16.4706 218.219 17.037 216.753 18.1659C216.171 18.6602 215.756 19.0935 215.504 19.4622C215.062 20.0629 214.75 20.5836 214.575 21.0246C214.152 22.0129 213.939 22.9747 213.939 23.9136V40.8143C213.939 40.8333 213.932 40.8409 213.913 40.8409H210.569C210.55 40.8409 210.543 40.8333 210.543 40.8143V24.0466C210.543 21.5568 211.346 19.2684 212.957 17.1852C213.699 16.3376 214.301 15.7445 214.761 15.4101C216.818 13.8553 219.083 13.0798 221.559 13.0798ZM240.159 13.0798H240.239C242.733 13.0798 245.014 13.8819 247.086 15.4899C247.809 16.0905 248.396 16.6834 248.837 17.2651C250.429 19.314 251.225 21.5757 251.225 24.0466V40.8143C251.225 40.8333 251.217 40.8409 251.198 40.8409H247.855C247.836 40.8409 247.828 40.8333 247.828 40.8143V23.9136C247.828 22.4843 247.367 21.0778 246.45 19.7017C246.221 19.4014 245.928 19.0555 245.574 18.6677C244.017 17.2005 242.223 16.4706 240.186 16.4706C238.168 16.4706 236.801 16.2881 234.885 18.3826C234.547 17.6642 235.32 17.5464 235.072 17.9873C239.093 11.5251 237.166 16.501 235.072 18.1508L234.821 18.2344C234.185 16.8583 233.785 16.7139 233.283 15.4822C235.076 14.1327 233.579 15.9346 233.397 15.4138C235.464 13.8553 237.718 13.0798 240.159 13.0798Z" fill="#7F2726"/>
<path d="M251.198 41.6013H247.094L247.066 40.8143V23.9136C247.066 22.6478 246.651 21.382 245.829 20.1427C245.616 19.869 245.349 19.5497 245.03 19.2C243.613 17.8733 242.029 17.2271 240.186 17.2271L239.737 17.2233C238.027 17.2157 236.991 17.2043 235.449 18.8921L234.684 19.7284L234.417 19.1657H234.413L234.196 18.702C234.181 18.6716 234.17 18.6412 234.154 18.6107L234.124 18.55C233.842 17.938 233.61 17.592 233.385 17.2575C233.127 16.8698 232.86 16.4706 232.57 15.7636L232.35 15.2238L232.818 14.874C233.035 14.7106 233.245 14.5547 233.454 14.4293C235.51 13.0266 237.76 12.3196 240.156 12.3196H240.236C242.894 12.3196 245.353 13.1863 247.551 14.8893C248.335 15.5393 248.967 16.1779 249.442 16.8052C251.129 18.9719 251.986 21.4124 251.986 24.0467V41.5746L251.198 41.6013ZM248.589 40.0807H250.463V24.0467C250.463 21.7583 249.713 19.6333 248.235 17.7327C247.824 17.1929 247.276 16.6379 246.598 16.0753C244.695 14.5966 242.547 13.8401 240.239 13.8401H240.159C239.409 13.8401 238.674 13.9199 237.958 14.0796L238 14.0872L238.153 14.5966C238.225 14.8665 238.092 15.2999 237.848 15.7978C238.469 15.7028 239.093 15.7066 239.748 15.7103H240.189C242.417 15.7103 244.405 16.5201 246.099 18.1166L246.141 18.1584C246.503 18.5575 246.812 18.9225 247.059 19.2418L247.089 19.2836C248.091 20.7814 248.597 22.3399 248.597 23.9175V40.0807H248.589ZM234.349 15.9347C234.447 16.1019 234.547 16.2502 234.657 16.4136C234.737 16.5353 234.825 16.6645 234.916 16.8089C235.674 15.6191 236.169 14.9197 236.519 14.5205C235.944 14.7449 235.384 15.0223 234.836 15.353C234.745 15.5431 234.566 15.7598 234.349 15.9347ZM233.332 41.6013H228.439L228.412 40.8143V23.9669C228.412 22.5641 227.952 21.2071 227.042 19.9298C226.935 19.7854 226.688 19.4965 226.162 19.0137C225.484 18.4017 224.761 17.9531 224.011 17.6871C223.215 17.3791 222.449 17.2271 221.718 17.2271H221.452C219.948 17.2271 218.565 17.7288 217.221 18.7628C216.723 19.1885 216.35 19.5687 216.144 19.8804C215.721 20.4582 215.439 20.9258 215.287 21.3021C214.899 22.2069 214.705 23.0812 214.705 23.9061V41.567L213.916 41.5937H209.811L209.785 40.8068V24.0391C209.785 21.3895 210.649 18.9225 212.359 16.7139L212.39 16.6759C213.177 15.775 213.81 15.1592 214.316 14.7866C216.483 13.1445 218.924 12.3082 221.559 12.3082C224.083 12.3082 226.437 13.0874 228.561 14.6231C228.98 14.9273 229.452 15.3341 229.97 15.832C230.629 16.5276 231.131 17.1549 231.489 17.7213C232.712 19.6751 233.332 21.8153 233.332 24.0885V41.6013ZM229.935 40.0807H231.809V24.0999C231.809 22.1194 231.268 20.2492 230.199 18.5423C229.893 18.0596 229.452 17.5122 228.885 16.9115C228.443 16.4897 228.024 16.1285 227.662 15.8662C225.808 14.5205 223.752 13.8401 221.554 13.8401C219.259 13.8401 217.13 14.5738 215.223 16.0183C214.803 16.3223 214.244 16.8773 213.547 17.6718C212.058 19.6067 211.305 21.7507 211.305 24.0505V40.0845H213.177V23.9175C213.177 22.8835 213.414 21.8115 213.874 20.7319C214.069 20.2453 214.404 19.6789 214.891 19.0175C215.162 18.6107 215.614 18.1356 216.258 17.592C217.884 16.3414 219.621 15.718 221.448 15.718H221.715C222.636 15.718 223.588 15.9042 224.536 16.273C225.458 16.596 226.356 17.1473 227.187 17.9038C227.693 18.3675 228.043 18.7439 228.272 19.0517C229.376 20.5989 229.932 22.2525 229.932 23.9783V40.0807H229.935Z" fill="#7F2726"/>
<path d="M262.633 2.85419C263.535 2.85419 264.297 3.23431 264.914 3.99458C265.287 4.50776 265.469 5.06275 265.469 5.66336V5.68998C265.469 6.67832 265.009 7.4842 264.091 8.10001C263.615 8.36611 263.127 8.49915 262.633 8.49915C261.677 8.49915 260.881 8.0772 260.246 7.22951C259.945 6.73534 259.796 6.22217 259.796 5.69378V5.66717C259.796 4.71303 260.218 3.92616 261.068 3.31033C261.563 3.00243 262.084 2.85419 262.633 2.85419ZM264.331 13.7146V40.8143C264.331 40.8332 264.323 40.8409 264.304 40.8409H260.961C260.942 40.8409 260.935 40.8332 260.935 40.8143V13.7146H264.331Z" fill="#7F2726"/>
<path d="M264.304 41.6012H260.199L260.173 40.8143V12.9543H265.093V41.5746L264.304 41.6012ZM261.696 40.0807H263.57V14.4749H261.696V40.0807ZM262.633 9.25568C261.429 9.25568 260.421 8.72725 259.636 7.68189L259.594 7.62106C259.221 7.00906 259.03 6.35903 259.03 5.68999C259.03 4.45836 259.563 3.45861 260.619 2.69074L260.672 2.65653C261.285 2.284 261.944 2.09393 262.633 2.09393C263.771 2.09393 264.739 2.5729 265.503 3.51183L265.531 3.54604C265.995 4.18846 266.231 4.89932 266.231 5.65959C266.231 6.92164 265.637 7.97459 264.513 8.72725L264.457 8.76145C263.871 9.08836 263.253 9.25568 262.633 9.25568ZM260.877 6.79618C261.369 7.43481 261.928 7.73512 262.633 7.73512C262.991 7.73512 263.337 7.64008 263.695 7.45001C264.388 6.97485 264.711 6.41605 264.711 5.68999C264.711 5.23003 264.582 4.8347 264.312 4.45836C263.836 3.88437 263.303 3.61826 262.633 3.61826C262.233 3.61826 261.86 3.7247 261.49 3.94138C260.854 4.41274 260.558 4.96394 260.558 5.66719C260.553 6.06633 260.661 6.43126 260.877 6.79618Z" fill="#7F2726"/>
<path d="M158.757 40.8143C158.757 40.8143 158.901 44.2888 162.771 44.1633C166.323 44.0493 167.462 41.0348 167.462 41.0348L171.068 40.8371C171.068 40.8371 168.246 47.6948 162.321 47.1208C155.311 46.4441 155.471 40.8371 155.471 40.8371L158.757 40.8143Z" fill="#FF5B04"/>
<path d="M163.011 47.919C162.759 47.919 162.504 47.9076 162.249 47.881C156.145 47.2917 154.648 43.0039 154.709 40.8181L154.729 40.0845L159.489 40.0465L159.519 40.7763C159.534 41.0614 159.747 43.4943 162.747 43.4031C165.725 43.308 166.712 40.8675 166.749 40.7649L166.929 40.3088L167.42 40.2783L172.229 40.0161L171.772 41.1298C171.741 41.2059 171.003 42.9811 169.487 44.6993C167.625 46.8166 165.398 47.919 163.011 47.919ZM156.297 41.5936C156.537 42.9887 157.611 45.9043 162.393 46.3681C166.277 46.7368 168.737 43.4638 169.785 41.6696L167.956 41.7685C167.443 42.7263 165.957 44.8209 162.797 44.9198C159.42 45.0338 158.418 42.7796 158.121 41.5746L156.297 41.5936Z" fill="#FF5B04"/>
<path d="M184.193 1.18542H187.936C184.505 9.27462 182.522 13.9465 181.992 15.1971L178.436 23.6209H193.694C191.397 18.1888 189.603 13.9655 188.313 10.9435C188.309 10.9359 194.451 22.4767 194.447 22.4653C194.409 22.3398 189.261 13.1748 188.313 10.9435C189.573 8.17987 189.909 7.38159 190.068 7.05468L193.092 13.3079L194.748 17.2194C195.738 19.5345 195.297 18.5043 197.699 24.2291C198.228 25.4303 199.938 29.4483 202.821 36.2831L204.043 39.1721H200.3C200.265 39.1189 199.919 38.3244 199.264 36.7887C197.406 32.3906 196.035 29.1594 195.152 27.0953H176.95C173.626 34.9717 171.917 38.9973 171.829 39.176H168.204C168.285 38.9782 169.769 35.1845 173.127 27.255C176.543 19.1847 178.283 15.0793 178.356 14.9386C179.011 13.3687 180.717 9.32408 183.477 2.80479C183.919 1.77463 184.159 1.23864 184.193 1.18542Z" fill="#7F2726"/>
<path d="M205.479 40.1187H199.793L199.511 39.6968C199.439 39.5903 199.409 39.5447 198.392 37.1536C196.698 33.1471 195.411 30.106 194.527 28.0381H177.586C172.827 39.309 172.731 39.4991 172.686 39.5903L172.423 40.1149H166.796L167.385 38.6628C168.562 35.6978 170.291 31.5125 172.259 26.8749C176.841 16.0449 177.396 14.7562 177.491 14.5472C178.154 12.9582 179.825 8.99342 182.609 2.42471C183.309 0.801539 183.348 0.744514 183.412 0.649481L183.694 0.227539H189.379L188.819 1.55039C185.389 9.63962 183.409 14.3077 182.876 15.5621L179.879 22.6668H192.266C190.263 17.9341 188.648 14.129 187.456 11.3464C187.452 11.335 187.445 11.3236 187.441 11.3122L187.087 10.4797L187.593 10.2364C188.241 8.8147 188.621 7.95945 188.858 7.42726C189.048 7.00151 189.147 6.77723 189.215 6.63657L190.076 4.88417L193.971 12.9392L195.627 16.8508C196.237 18.2686 196.302 18.4321 196.823 19.6714C197.151 20.4506 197.654 21.6519 198.583 23.8604C199.112 25.0578 200.836 29.1177 203.704 35.9106L205.479 40.1187ZM200.917 38.218H202.607L201.945 36.6519C199.082 29.8666 197.361 25.8143 196.831 24.613C195.894 22.3855 195.392 21.1843 195.064 20.405C194.547 19.1734 194.481 19.0099 193.872 17.5958L192.224 13.7032L190.099 9.30893C189.904 9.73845 189.669 10.2669 189.375 10.9131L191.367 14.6536C192.813 17.3753 194.561 20.6559 195.11 21.6898C195.323 22.0814 195.331 22.108 195.357 22.184L195.612 23.0014L194.824 23.3396C194.759 23.3662 194.698 23.389 194.637 23.4042L195.129 24.5674H177.004L181.116 14.8246C181.619 13.6386 183.412 9.40776 186.501 2.132H184.806C184.707 2.36007 184.563 2.6908 184.353 3.17357C181.604 9.66242 179.883 13.7413 179.235 15.296L179.209 15.3568C179.133 15.5241 178.161 17.8011 174.007 27.6199C172.29 31.676 170.751 35.3784 169.609 38.2218H171.205C171.78 36.8762 173.413 33.0216 176.071 26.7228L176.314 26.1412H195.777L196.023 26.719C196.907 28.7869 198.282 32.0181 200.139 36.4162C200.529 37.3247 200.768 37.8797 200.917 38.218Z" fill="#7F2726"/>
</g>
<defs>
<clipPath id="clip0_57_270">
<rect width="266.571" height="48" fill="white"/>
</clipPath>
</defs>
</svg>
