<svg width="71" height="52" viewBox="0 0 71 52" fill="none" xmlns="http://www.w3.org/2000/svg">
<path d="M36.3563 18.1231C36.3563 18.1231 37.1608 1.47807 33.4041 0.136364C29.6475 -1.20535 24.9489 7.65329 23.4738 13.559C21.9986 19.4648 21.7292 22.2932 21.7292 22.2932L36.3563 18.1231Z" fill="#50231F"/>
<path d="M34.4002 18.123C34.4002 18.123 35.474 4.60558 32.0239 3.86225C28.5739 3.11892 25.9821 10.5039 25.3021 12.8807C24.6222 15.2575 24.0834 19.7955 24.0834 19.7955L34.4002 18.123Z" fill="#FEFADA"/>
<path d="M34.2964 14.7169C33.7783 13.4018 33.0112 12.1991 32.0372 11.1749C31.577 10.6811 31.0855 10.2175 30.5658 9.78674C30.3001 9.57118 29.8932 9.1865 29.5254 9.18836C28.7172 9.18836 29.5421 10.5059 29.6814 10.7847C30.3261 12.0855 30.8129 13.4495 30.7386 14.873C30.2906 14.2498 29.7982 13.6598 29.2653 13.1076C28.3623 12.2286 27.2625 11.6209 25.9973 11.5317C25.9562 11.5286 25.9151 11.5379 25.8793 11.5582C25.8434 11.5785 25.8144 11.609 25.7959 11.6458C25.7774 11.6826 25.7702 11.7241 25.7753 11.765C25.7804 11.8059 25.7975 11.8443 25.8245 11.8755C26.363 12.5043 26.8595 13.168 27.3108 13.862C27.6714 14.3771 27.9496 14.9451 28.1357 15.5457C27.9202 15.3933 27.7084 15.2372 27.4873 15.0941C27.0678 14.8282 26.6336 14.5862 26.1868 14.3694C25.3823 13.9735 24.4942 13.626 23.5857 13.7022C23.5497 13.7086 23.5156 13.7232 23.4862 13.745C23.4568 13.7668 23.4329 13.7951 23.4163 13.8277C23.3997 13.8603 23.391 13.8964 23.3907 13.933C23.3905 13.9696 23.3987 14.0057 23.4148 14.0386C23.9722 14.9678 25.2411 15.41 25.8301 16.2983C25.0133 15.9552 24.1372 15.7752 23.2513 15.7687C22.9522 15.7687 21.8951 15.7538 22.0809 16.3262C22.1756 16.6124 22.6494 16.7387 22.8667 16.9208C23.2038 17.2131 23.442 17.6026 23.5486 18.0358C23.7102 18.6454 23.6601 19.2828 23.8235 19.8942C23.8292 19.9191 23.841 19.9423 23.8579 19.9615C23.8748 19.9807 23.8963 19.9953 23.9204 20.004C23.9445 20.0127 23.9703 20.0152 23.9956 20.0113C24.0209 20.0074 24.0448 19.9971 24.0651 19.9815C25.5327 18.9731 27.1901 18.2738 28.9364 17.9262C30.6951 17.5846 32.4927 17.4883 34.2778 17.64C34.2778 17.64 34.289 17.64 34.2945 17.64C34.2413 18.1328 34.0896 18.6099 33.8486 19.0431C33.8364 19.0605 33.8278 19.0802 33.8232 19.101C33.8186 19.1218 33.8182 19.1433 33.8219 19.1642C33.8256 19.1852 33.8334 19.2052 33.8448 19.2232C33.8563 19.2411 33.8711 19.2566 33.8886 19.2688C33.906 19.281 33.9257 19.2897 33.9465 19.2943C33.9673 19.2989 33.9888 19.2993 34.0097 19.2956C34.0307 19.2919 34.0507 19.2841 34.0687 19.2727C34.0866 19.2612 34.1021 19.2463 34.1143 19.2289C35.1993 17.9578 34.8705 16.1589 34.2964 14.7169ZM22.5546 16.3503C22.5546 16.4321 22.5398 16.3782 22.5546 16.3503V16.3503Z" fill="#ED6A30"/>
<path d="M44.319 20.0039C44.319 20.0039 49.1495 14.0981 55.9939 11.0114C62.8383 7.92475 64.8504 7.65529 64.4472 12.6226C64.0441 17.5899 59.7505 27.2532 57.8722 29.2732C55.9939 31.2932 54.6525 32.7631 54.6525 32.7631L44.319 20.0039Z" fill="#50231F"/>
<path d="M46.8683 21.6148C46.8683 21.6148 50.4912 17.454 56.3974 13.9641C62.3035 10.4742 63.2399 12.3622 62.5637 15.3058C61.8874 18.2494 58.2701 25.1048 56.3918 27.5206C54.5135 29.9364 52.9027 31.0105 52.9027 31.0105L46.8683 21.6148Z" fill="#FEFADA"/>
<path d="M13.2744 27.6562C13.2744 27.6562 24.2786 17.0508 30.7199 16.2461C37.1611 15.4415 46.8239 18.6619 49.5086 20.944C52.1932 23.226 56.7543 31.4138 57.1574 33.6958C57.5606 35.9778 39.0413 43.4947 32.0631 42.4206C25.0849 41.3465 13.2744 27.6562 13.2744 27.6562Z" fill="#ED6A30"/>
<path d="M29.109 39.8654C28.1336 37.7283 25.6571 35.9257 24.1503 34.1046C22.4039 31.9861 20.1838 30.4548 17.9041 28.944C14.5804 26.74 11.4573 25.6436 6.43362 25.5098C4.7318 25.4633 -0.462819 27.2455 0.033234 28.3883C0.863705 30.3006 4.93059 29.5033 7.49075 30.2337C6.22739 30.8005 4.88972 31.1294 3.75084 31.5568C1.90412 32.2555 1.09037 33.2683 0.55344 34.4019C-0.32162 36.2416 1.83166 35.8458 3.10244 35.8458C4.58875 35.8458 6.08991 35.5671 7.53348 35.5968C6.64356 36.4144 5.02535 37.4087 3.87346 38.2988C2.65284 39.241 1.84838 40.7369 1.85767 41.7181C1.87996 44.2807 7.34026 42.7643 8.85257 42.4614C14.0045 41.4078 17.802 42.7476 22.1661 45.3809C23.1898 45.9997 24.3287 46.5739 25.2149 47.3879C26.0565 48.1609 26.5934 49.2183 27.4276 50.0044C29.1666 51.6471 31.1118 52.3124 33.4304 51.8627C38.0119 50.9558 42.1141 48.1906 46.586 46.9679C48.6297 46.4104 51.0059 46.1521 53.0644 46.7449C55.3478 47.4046 58.3854 52.1173 60.0965 50.4708C61.6478 48.9842 59.5726 45.7934 58.2182 44.3383C61.1908 45.1151 63.3496 49.0083 65.2781 47.4046C67.1025 45.89 65.1406 43.1676 63.2215 41.9708C65.8782 42.0266 67.5614 43.9667 69.4398 43.7623C71.0654 43.5764 70.7143 40.6756 70.378 39.5569C69.2948 35.9666 66.7384 33.2386 63.0189 32.5975C58.9725 31.9006 54.8257 32.9691 50.9316 34.0841C46.7291 35.2976 42.4838 36.4423 38.3668 37.8918C35.6376 38.8526 31.3905 40.9543 28.5721 39.3357" fill="#FEFADA"/>
<path d="M34.1174 37.5146C33.2646 37.2284 32.3636 37.1578 31.4718 37.089L30.3868 37.0036C29.7217 36.9534 29.0361 36.9032 28.4044 37.1392C27.7728 37.3752 27.2061 37.9718 27.1782 38.7002C27.1771 38.9562 27.2288 39.2096 27.3301 39.4447C27.4315 39.6797 27.5803 39.8913 27.7672 40.0661C28.1289 40.3919 28.5504 40.6443 29.0083 40.8094C30.3715 41.3785 31.8357 41.6661 33.3129 41.655C34.3181 41.6419 36.4156 41.313 36.5382 39.8319C36.6367 38.6389 34.9646 37.7989 34.1174 37.5146Z" fill="#50231F"/>
<path d="M28.3266 43.4725C28.4617 44.0862 28.754 44.6542 29.1749 45.1207C29.5957 45.5872 30.1306 45.9363 30.727 46.1336C31.2911 46.3116 31.8904 46.3469 32.4715 46.2363C33.0525 46.1257 33.597 45.8727 34.0563 45.5C34.5802 45.0818 35.2323 44.3311 35.1339 43.6156C35.1247 43.5837 35.1085 43.5542 35.0863 43.5295C35.0641 43.5047 35.0365 43.4853 35.0057 43.4728C34.975 43.4603 34.9417 43.4549 34.9086 43.4571C34.8754 43.4593 34.8432 43.469 34.8143 43.4855C34.5226 43.6714 34.3294 44.03 34.1009 44.2995C33.8933 44.5552 33.6514 44.781 33.3819 44.9703C32.8882 45.3006 32.3034 45.4676 31.7098 45.4479C30.4093 45.4015 29.3447 44.3998 28.7948 43.2755C28.6648 43.0098 28.2616 43.2012 28.3285 43.4725H28.3266Z" fill="#50231F"/>
<path d="M31.3865 40.6572C31.2166 41.2854 31.0887 41.9242 31.0038 42.5694C30.8887 43.2184 30.9269 43.8853 31.1153 44.5169C31.1599 44.6433 31.3661 44.6693 31.3977 44.5169C31.6485 43.2904 31.5927 42.0175 31.8417 40.7836C31.8585 40.7232 31.8505 40.6586 31.8197 40.6041C31.7889 40.5495 31.7376 40.5095 31.6773 40.4927C31.6169 40.476 31.5524 40.4839 31.4978 40.5147C31.4433 40.5456 31.4033 40.5968 31.3865 40.6572Z" fill="#50231F"/>
<path d="M38.0638 31.7576C38.3281 31.1295 38.6608 30.5325 39.0559 29.9773C39.4386 29.4719 39.9402 28.9571 40.5422 28.8047C40.6763 28.7674 40.816 28.7548 40.9546 28.7676C41.0067 28.7684 41.0584 28.7753 41.1088 28.788C41.1441 28.7973 41.3132 28.8623 41.2166 28.8159C41.4054 28.9064 41.5646 29.0489 41.6755 29.2266C41.9979 29.7474 42.1986 30.3344 42.2626 30.9437C42.2996 31.2602 42.3206 31.5783 42.3258 31.897C42.3258 32.0624 42.3258 32.1943 42.3536 32.3801C42.335 32.2296 42.3536 32.2984 42.3443 32.3541C42.3332 32.398 42.3257 32.4428 42.322 32.4879C42.315 32.5727 42.3373 32.6573 42.3852 32.7276C42.4079 32.7645 42.4418 32.7931 42.4818 32.8095C42.5219 32.8259 42.5661 32.8291 42.6082 32.8187C42.7791 32.7853 42.8367 32.6682 42.911 32.5288C42.995 32.3764 43.0647 32.2165 43.1191 32.0512C43.2077 31.7018 43.2348 31.3396 43.199 30.9808C43.1707 30.2018 42.9465 29.4424 42.5468 28.7731C42.1288 28.1246 41.4953 27.7529 40.7113 27.8347C39.8362 27.9276 39.1395 28.4888 38.6249 29.1708C38.1102 29.8528 37.6885 30.7597 37.6681 31.6498C37.6681 31.8524 37.9783 31.9564 38.0675 31.7576H38.0638Z" fill="#50231F"/>
<path d="M30.3687 31.7017C30.6837 31.0463 30.8299 30.3226 30.7942 29.5962C30.7812 28.8399 30.6084 28.0352 30.1439 27.422C29.6795 26.8087 28.9252 26.3888 28.1281 26.5616C27.3738 26.727 26.692 27.3254 26.2275 27.9182C25.9172 28.2952 25.6666 28.7176 25.4844 29.1707C25.411 29.3665 25.3702 29.573 25.3636 29.7821C25.3636 29.9679 25.3339 30.1537 25.4862 30.2912C25.5179 30.3208 25.558 30.3398 25.601 30.3454C25.644 30.3511 25.6876 30.3432 25.7259 30.3228C25.869 30.2411 25.8838 30.1259 25.9544 29.9902C26.025 29.8545 26.1068 29.7542 26.1829 29.6297C26.3466 29.3488 26.5245 29.0765 26.7161 28.8139C26.9269 28.5428 27.1613 28.2909 27.4166 28.0613C27.5197 27.9659 27.6303 27.8789 27.7473 27.8011C27.8197 27.7528 27.8922 27.7082 27.9683 27.6654C27.9962 27.6487 28.0259 27.6338 28.0557 27.619C28.0557 27.619 28.1987 27.5558 28.117 27.5874C28.2434 27.5351 28.3756 27.4983 28.5109 27.4777C28.4068 27.4926 28.587 27.4777 28.6167 27.4777C28.6465 27.4777 28.7338 27.4945 28.6353 27.4777C28.6762 27.4848 28.7166 27.4947 28.7561 27.5075C28.9891 27.5778 29.1964 27.7147 29.3525 27.9014C29.5246 28.1071 29.6586 28.3418 29.7482 28.5946C29.8598 28.9094 29.9376 29.2352 29.9804 29.5665C30.0516 30.2387 30.0485 30.9168 29.9711 31.5884C29.9717 31.6351 29.9875 31.6804 30.0161 31.7175C30.0447 31.7545 30.0845 31.7812 30.1296 31.7936C30.1747 31.8059 30.2226 31.8033 30.2661 31.7861C30.3095 31.7688 30.3462 31.7379 30.3706 31.698L30.3687 31.7017Z" fill="#50231F"/>
<path d="M44.2208 27.7381C44.466 27.5114 44.7001 27.2736 44.9639 27.0561L45.1497 26.8963L45.198 26.8573C45.1664 26.8815 45.198 26.8573 45.2092 26.8573L45.3262 26.7718L45.3912 26.7198C45.4321 26.6882 45.3764 26.7291 45.4024 26.7105C45.4284 26.6919 45.4804 26.6566 45.5176 26.6269C45.5926 26.5691 45.6584 26.5001 45.7127 26.4225C45.726 26.3983 45.7339 26.3714 45.7356 26.3438C45.7373 26.3162 45.7328 26.2886 45.7225 26.263C45.7121 26.2374 45.6962 26.2144 45.6759 26.1956C45.6556 26.1769 45.6313 26.163 45.6049 26.1549C45.2203 26.0861 44.8617 26.3964 44.5924 26.6417C44.323 26.887 44.1205 27.1491 43.8864 27.4018C43.8408 27.4471 43.8151 27.5087 43.8149 27.573C43.8147 27.6373 43.8401 27.6991 43.8854 27.7447C43.9308 27.7902 43.9924 27.8159 44.0566 27.8161C44.1209 27.8163 44.1826 27.7909 44.2282 27.7456L44.2208 27.7381Z" fill="#F6AB80"/>
<path d="M45.4472 29.0185C45.7085 28.955 45.9634 28.8679 46.2089 28.7583C46.3241 28.7087 46.4393 28.6567 46.5545 28.6022C46.6108 28.5743 46.6649 28.542 46.7161 28.5056C46.754 28.4835 46.7879 28.4552 46.8164 28.4219C46.8383 28.3904 46.854 28.3551 46.8629 28.3179C46.87 28.2895 46.8679 28.2596 46.8569 28.2326C46.8458 28.2055 46.8265 28.1827 46.8016 28.1673C46.7763 28.149 46.748 28.1351 46.718 28.1265C46.6698 28.1144 46.6194 28.1144 46.5712 28.1265C46.5074 28.1354 46.445 28.1523 46.3854 28.1766C46.2591 28.2287 46.1346 28.2881 46.0138 28.3476C45.8931 28.4071 45.7835 28.4572 45.6999 28.4907C45.5783 28.5376 45.4542 28.578 45.3283 28.6115C45.2755 28.6262 45.2306 28.6613 45.2035 28.709C45.1763 28.7566 45.1691 28.8131 45.1834 28.8661C45.199 28.9184 45.2341 28.9626 45.2816 28.9896C45.329 29.0166 45.385 29.0243 45.4379 29.011L45.4472 29.0185Z" fill="#F6AB80"/>
<path d="M45.7496 31.1555C46.0055 31.1539 46.2612 31.1695 46.5151 31.202C46.6433 31.2206 46.7696 31.2484 46.8959 31.2726C46.961 31.2856 47.026 31.2837 47.0817 31.2912C47.1248 31.2977 47.1687 31.2977 47.2118 31.2912C47.2415 31.2912 47.2694 31.2763 47.2991 31.2689C47.3216 31.2624 47.342 31.2501 47.3583 31.2334C47.3747 31.2166 47.3864 31.1959 47.3924 31.1733C47.3984 31.1506 47.3984 31.1268 47.3925 31.1042C47.3866 31.0815 47.3749 31.0608 47.3585 31.044C47.3169 30.9864 47.2613 30.9404 47.1969 30.9102C47.1286 30.874 47.057 30.8442 46.9833 30.821C46.8463 30.7908 46.7071 30.7715 46.5671 30.7634C46.2925 30.7439 46.0168 30.7439 45.7422 30.7634C45.6929 30.7634 45.6457 30.783 45.6108 30.8178C45.576 30.8527 45.5564 30.9 45.5564 30.9492C45.5564 30.9985 45.576 31.0458 45.6108 31.0807C45.6457 31.1155 45.6929 31.1351 45.7422 31.1351L45.7496 31.1555Z" fill="#F6AB80"/>
<path d="M27.0185 25.5322C26.9497 25.3129 26.8606 25.1011 26.7974 24.88C26.7825 24.8261 26.7695 24.774 26.7528 24.7201C26.7435 24.6941 26.7379 24.6681 26.7287 24.6421C26.7222 24.6204 26.7142 24.5993 26.7045 24.5789L26.6878 24.538C26.6878 24.525 26.6878 24.525 26.6878 24.538C26.6878 24.551 26.6878 24.538 26.6878 24.5194C26.6849 24.5062 26.6812 24.4932 26.6766 24.4804C26.6677 24.4455 26.6519 24.4126 26.6302 24.3838C26.6302 24.3838 26.5893 24.3243 26.606 24.3559C26.6228 24.3875 26.606 24.3429 26.606 24.3373C26.5992 24.3215 26.5905 24.3065 26.58 24.2927C26.5562 24.266 26.5287 24.2428 26.4983 24.224C26.4778 24.2117 26.4544 24.2052 26.4305 24.2052C26.4066 24.2052 26.3831 24.2117 26.3627 24.224C26.3392 24.2384 26.3168 24.2546 26.2958 24.2723C26.2714 24.2995 26.2536 24.3319 26.2438 24.3671C26.2438 24.3671 26.2252 24.4079 26.2438 24.3875C26.2623 24.3671 26.2345 24.3987 26.2326 24.4024C26.2143 24.433 26.2029 24.4672 26.1992 24.5027C26.1964 24.5417 26.1964 24.5808 26.1992 24.6198C26.2003 24.7545 26.2255 24.8879 26.2735 25.0138C26.3682 25.2535 26.489 25.4802 26.5912 25.7162C26.6206 25.7678 26.6678 25.8068 26.724 25.826C26.7802 25.8451 26.8414 25.8431 26.8962 25.8203C26.951 25.7975 26.9955 25.7554 27.0215 25.702C27.0474 25.6486 27.053 25.5876 27.0371 25.5304L27.0185 25.5322Z" fill="#F6AB80"/>
<path d="M25.0771 26.8572C24.9249 26.7201 24.7838 26.5709 24.6554 26.4112C24.5904 26.3332 24.5235 26.2551 24.4529 26.179C24.3719 26.0924 24.2815 26.0151 24.1835 25.9485C24.1252 25.8981 24.054 25.8649 23.9779 25.8524C23.9019 25.84 23.8238 25.8488 23.7525 25.8779C23.7099 25.9048 23.6775 25.9453 23.6607 25.9928C23.6438 26.0404 23.6435 26.0922 23.6596 26.1399C23.689 26.213 23.7371 26.277 23.7989 26.3258C23.9522 26.4522 24.0974 26.5881 24.2337 26.7327C24.4023 26.9153 24.5856 27.0838 24.7817 27.2363C24.8331 27.2647 24.8929 27.2737 24.9504 27.2617C25.0078 27.2497 25.059 27.2176 25.0948 27.171C25.1305 27.1245 25.1484 27.0667 25.1452 27.0081C25.1419 26.9495 25.1178 26.894 25.0771 26.8517V26.8572Z" fill="#F6AB80"/>
<path d="M45.471 22.65C45.4763 22.6896 45.4961 22.7259 45.5265 22.7518C45.557 22.7777 45.596 22.7914 45.6359 22.7902C45.6759 22.7891 45.714 22.7732 45.7429 22.7455C45.7718 22.7179 45.7895 22.6805 45.7925 22.6407C45.8232 22.1465 45.9534 21.6636 46.1752 21.2209L46.1882 21.232C47.7723 22.069 49.2323 23.1222 50.5263 24.3615C51.8084 25.5976 52.825 27.0823 53.5138 28.7248C53.5229 28.7486 53.5378 28.7697 53.5571 28.7863C53.5763 28.8029 53.5994 28.8145 53.6242 28.82C53.6491 28.8255 53.6749 28.8248 53.6994 28.8179C53.7239 28.811 53.7463 28.7982 53.7646 28.7806C54.2309 28.3569 54.5319 27.7957 54.9982 27.3682C55.3229 27.0659 55.733 26.8712 56.1724 26.8107C56.4548 26.7736 56.9156 26.9241 57.1552 26.7345C57.6178 26.3629 56.7205 25.8054 56.4678 25.6363C55.7185 25.1637 54.8842 24.8418 54.0117 24.6885C54.9852 24.2574 56.295 24.5789 57.263 24.092C57.294 24.0733 57.3203 24.0477 57.3397 24.0171C57.3591 23.9866 57.3712 23.9519 57.375 23.9159C57.3788 23.8799 57.3742 23.8435 57.3615 23.8095C57.3488 23.7756 57.3285 23.7451 57.302 23.7203C56.5867 23.1628 55.6485 22.977 54.7586 22.8785C54.2652 22.8207 53.769 22.7909 53.2723 22.7893C53.0103 22.7893 52.7465 22.8079 52.4827 22.8191C52.9647 22.4108 53.5076 22.0804 54.0916 21.8397C54.8484 21.5019 55.6267 21.2145 56.4214 20.9793C56.4609 20.9674 56.496 20.944 56.5223 20.9122C56.5486 20.8804 56.5649 20.8416 56.5693 20.8005C56.5736 20.7595 56.5658 20.7181 56.5468 20.6815C56.5277 20.6448 56.4983 20.6146 56.4622 20.5946C55.3475 19.9777 54.0953 19.9015 52.8617 20.1524C52.1167 20.3282 51.3853 20.5574 50.6731 20.8381C51.3809 19.6004 52.531 18.714 53.7739 17.9707C54.0414 17.8109 55.446 17.153 54.7679 16.7107C54.4594 16.51 53.9077 16.6141 53.5695 16.6513C52.8989 16.7321 52.2343 16.8562 51.5797 17.0229C50.2068 17.3581 48.9116 17.9557 47.7655 18.7828C46.4966 19.6841 45.2481 21.0202 45.471 22.65ZM56.7576 26.5041C56.7576 26.5376 56.7075 26.571 56.7576 26.5041V26.5041Z" fill="#ED6A30"/>
</svg>
