<svg width="28" height="28" viewBox="0 0 28 28" fill="none" xmlns="http://www.w3.org/2000/svg">
<path d="M11.9759 5.93705L7.23969 0.470381C6.69369 -0.159581 5.69269 -0.156781 5.0585 0.478781L1.16372 4.38035C0.00452536 5.54088 -0.327273 7.26417 0.343323 8.64589C4.34957 16.9403 11.0393 23.6391 19.3286 27.6568C20.709 28.3273 22.431 27.9955 23.5902 26.835L27.5214 22.897C28.1584 22.2601 28.1598 21.2535 27.5242 20.7076L22.0362 15.9969C21.4622 15.5041 20.5704 15.5685 19.995 16.1452L18.0854 18.0575C17.9877 18.16 17.859 18.2275 17.7191 18.2498C17.5793 18.272 17.436 18.2478 17.3112 18.1807C14.1899 16.3834 11.6007 13.7909 9.80727 10.6674C9.74011 10.5424 9.71579 10.3989 9.73804 10.2588C9.7603 10.1187 9.8279 9.9898 9.93047 9.89182L11.8345 7.98653C12.4113 7.40697 12.4743 6.51102 11.9759 5.93565V5.93705Z" fill="#75302D"/>
</svg>
