<svg id="Calque_1" data-name="Calque 1" xmlns="http://www.w3.org/2000/svg" viewBox="0 0 503 645.2"><defs><style>.cls-1{fill:#fff;}</style></defs><path class="cls-1" d="M320.87,121.65a71.52,71.52,0,0,1,7.68,2.77c8.4,4.12,14.23,14.21,13.22,22.53a25.34,25.34,0,0,1-19.08,21.88c-8.83,2.23-19.24-1.74-24.47-9.61-1.74-2.61-3.75-3.67-6.84-3.32a41.78,41.78,0,0,0-22.92,9.78,15.64,15.64,0,0,0-5.57,12.12c-.51,17.44,3.32,34.18,7.95,50.79A496.19,496.19,0,0,0,312.05,330c2.29,4.28,4.58,8.48,8.92,11.45,2.75,1.89,4.54,5.29,6.5,8.19,7.88,11.63,15.86,23.23,26.21,32.84a111.7,111.7,0,0,0,16.08,12.39c8.61,5.47,17.59,5,26.51.16,11.34-6.17,20-15.28,27.84-25.22,5-6.28,9.37-13,14.13-19.4,3-4,5.83-7.92,9.77-11.29,3.56-3,5.66-8,7.93-12.33,19.91-38.12,35.56-77.87,44.88-119.94a148,148,0,0,0,3.09-23.74c.66-11.67-3.94-18.58-14.63-23.17-3.81-1.63-7.84-2.77-11.79-4.07s-6.66-.13-9.07,3.21a24.64,24.64,0,0,1-16.72,10.11c-15.15,2.39-31.9-14.54-26.21-30.07,3.23-8.8,8.76-14.77,18.05-16.91a4.54,4.54,0,0,0,1.1-.6h7.9c6.38,1.7,12.27,4.34,15.72,10.3,2.5,4.32,6.16,6,10.81,7,19.92,4.32,36.6,12.76,41.94,34.76v15.8c-1,6.14-1.75,12.32-2.92,18.42-5.35,27.65-14.11,54.29-25.18,80.1-7.94,18.5-17,36.53-25.47,54.81-3.33,7.19-4.94,15-9.63,21.77-11.25,16.15-22.49,32.31-38.56,44.12-6.21,4.57-13.23,8.13-20.15,11.63-3,1.52-3.89,3.15-3.9,6.41-.11,58.25-.67,116.5-.49,174.75.22,68.41-44.06,136.45-120.64,159.39-9.9,3-19.93,5.22-30.32,5.49a16.06,16.06,0,0,0-2.54.5h-25c-1-.18-1.92-.37-2.89-.53-8.63-1.37-17.46-2-25.87-4.23C138.94,749.2,102.83,720.4,79.49,676c-12.62-24-18.17-49.71-18-76.94.19-43.54-.48-87.08-.67-130.63,0-2.76-.79-4-3.48-4.75a50.91,50.91,0,0,1-32.48-27.32c-3.15-6.38-4.58-13.6-6.79-20.44V405.41c.65-2.76,1.22-5.53,2-8.26C26,375,45,358.9,68.43,356.23c21-2.39,42.83,9.83,53.43,29.71a47.94,47.94,0,0,1,5.54,21.67c.39,12.2-1.42,23.49-8.68,33.67A61.42,61.42,0,0,1,88.77,463.9c-2.37.85-2.94,2.14-3,4.33-.24,24.79-.82,49.57-.7,74.36.1,23.69.65,47.39,1.49,71.06,1,27,11.31,50.77,27.33,72,20.73,27.47,47.8,46.2,81.56,53.56,52.67,11.48,98.29-2.32,136-41a136.52,136.52,0,0,0,35.43-64c2.34-9.68,2.85-20,2.95-30,.59-59.89.82-119.79,1.09-179.69,0-1-.77-2.71-1.6-3-26.5-10.42-43.38-31.26-58.61-53.89a58.31,58.31,0,0,1-4.43-6.92c-1.88-3.89-3.3-8-5.07-11.95-2.76-6.2-5.45-12.44-8.52-18.49-17.44-34.4-31.7-70-41.2-107.46-3.57-14-6.52-28.2-6.44-42.8.08-12.86,5.36-23,16-30.42a64.71,64.71,0,0,1,26.25-10.74c4.57-.79,8.12-2.56,10.61-6.76,3.48-5.91,9.29-8.72,15.7-10.43ZM60.51,446.49c1.1-6-.44-10.78-4.92-14.68a36.1,36.1,0,0,1-4.19-4.62c-3.28-4.11-5.5-8.7-5.75-14.06-.61-13.37,8.36-25.6,21-28.69,13.05-3.18,25.78,3.37,31.71,16.31,4.84,10.59.7,25.78-8.84,32.41-4.84,3.37-6,7.85-3.62,13.54,15.41-4,26.3-22.58,24.45-41.24-1.5-15.11-15.5-31.24-35.56-31.67-18.39-.4-35.23,12.1-38.3,28.87C32.86,422.37,42.81,440.6,60.51,446.49Z" transform="translate(-18.02 -121.65)"/></svg>