<svg width="24" height="25" viewBox="0 0 24 25" fill="none" xmlns="http://www.w3.org/2000/svg">
<path d="M4.79699 7.45614L7.97494 10.6341L6.20301 12.406L0 6.20301L6.20301 0L7.97494 1.77193L4.79699 4.94987H13.7845C16.4433 4.94987 18.9932 6.00608 20.8733 7.88615C22.7533 9.76621 23.8095 12.3161 23.8095 14.9749C23.8095 17.6337 22.7533 20.1837 20.8733 22.0637C18.9932 23.9438 16.4433 25 13.7845 25H2.50627V22.4937H13.7845C15.7786 22.4937 17.691 21.7016 19.1011 20.2915C20.5111 18.8815 21.3033 16.969 21.3033 14.9749C21.3033 12.9808 20.5111 11.0684 19.1011 9.65834C17.691 8.2483 15.7786 7.45614 13.7845 7.45614H4.79699Z" fill="#75302D"/>
</svg>
